<svg width="35" height="43" viewBox="0 0 35 43" fill="none" xmlns="http://www.w3.org/2000/svg">
<rect width="35" height="43" fill="white"/>
<path d="M27 18.0714H23.7736L20.3841 12.2947C20.216 12.0077 19.8512 11.914 19.5694 12.0866C19.2882 12.2591 19.1972 12.632 19.3659 12.9196L22.3888 18.0714H12.6112L15.6341 12.9196C15.8028 12.632 15.7118 12.2591 15.4306 12.0865C15.1482 11.914 14.7846 12.0077 14.6159 12.2946L11.2264 18.0714H8V19.2857H9.28868L10.7971 27.5135C10.9548 28.3751 11.6912 29 12.5482 29H22.4518C23.3088 29 24.0451 28.3751 24.2023 27.5142L25.7112 19.2857H27C27 19.2857 27 18.0714 27 18.0714ZM23.0351 27.2906C22.9829 27.5776 22.7376 27.7857 22.4517 27.7857H12.5482C12.2624 27.7857 12.0171 27.5776 11.9643 27.2901L10.4965 19.2857H24.5035L23.0351 27.2906Z" fill="black"/>
</svg>
