<svg width="19" height="17" viewBox="0 0 19 17" fill="none" xmlns="http://www.w3.org/2000/svg">
<path d="M19 6.07143H15.7736L12.3841 0.294678C12.216 0.00772045 11.8512 -0.0859699 11.5694 0.0865723C11.2882 0.259115 11.1972 0.632036 11.3659 0.919607L14.3888 6.07143H4.61119L7.63407 0.919566C7.80281 0.631995 7.71179 0.259074 7.43056 0.0865315C7.14818 -0.0860107 6.78464 0.0076796 6.6159 0.294637L3.22636 6.07139H0V7.28568H1.28868L2.79711 15.5135C2.95481 16.3751 3.6912 17 4.54822 17H14.4518C15.3088 17 16.0451 16.3751 16.2023 15.5142L17.7112 7.28568H19C19 7.28568 19 6.07143 19 6.07143ZM15.0351 15.2906C14.9829 15.5776 14.7376 15.7857 14.4517 15.7857H4.54822C4.26236 15.7857 4.01711 15.5776 3.96435 15.2901L2.49649 7.28568H16.5035L15.0351 15.2906Z" fill="white"/>
</svg>
