<svg width="40" height="30" viewBox="0 0 40 30" fill="none" xmlns="http://www.w3.org/2000/svg">
<path d="M40 2.95898H0V26.1766H40V2.95898ZM1.81509 4.77997H38.1849H1.81509ZM38.1849 24.3556H1.81509V4.77997H38.1849V24.3556Z" fill="black"/>
<path d="M5.09876 10.0895C3.99269 10.0895 3.09082 9.18468 3.09082 8.07501C3.09082 6.96535 3.99269 6.06055 5.09876 6.06055C6.20483 6.06055 7.1067 6.96535 7.1067 8.07501C7.1067 9.18468 6.20483 10.0895 5.09876 10.0895ZM5.09876 6.91413C4.46348 6.91413 3.94164 7.43767 3.94164 8.07501C3.94164 8.71236 4.46348 9.23589 5.09876 9.23589C5.73404 9.23589 6.25588 8.71236 6.25588 8.07501C6.25588 7.43767 5.73404 6.91413 5.09876 6.91413Z" fill="black"/>
<path d="M34.9005 10.0895C33.7944 10.0895 32.8926 9.18468 32.8926 8.07501C32.8926 6.96535 33.7944 6.06055 34.9005 6.06055C36.0066 6.06055 36.9085 6.96535 36.9085 8.07501C36.9085 9.18468 36.0066 10.0895 34.9005 10.0895ZM34.9005 6.91413C34.2652 6.91413 33.7434 7.43767 33.7434 8.07501C33.7434 8.71236 34.2652 9.23589 34.9005 9.23589C35.5358 9.23589 36.0576 8.71236 36.0576 8.07501C36.0576 7.43767 35.5358 6.91413 34.9005 6.91413Z" fill="black"/>
<path d="M19.9999 21.5727C16.7214 21.5727 14.0498 18.4315 14.0498 14.5676C14.0498 10.7037 16.7214 7.5625 19.9999 7.5625C23.2784 7.5625 25.95 10.7037 25.95 14.5676C25.95 18.4315 23.2784 21.5727 19.9999 21.5727ZM19.9999 8.58681C17.1979 8.58681 14.9176 11.2671 14.9176 14.5676C14.9176 17.8682 17.1979 20.5484 19.9999 20.5484C22.8019 20.5484 25.0821 17.8682 25.0821 14.5676C25.0821 11.2671 22.8019 8.58681 19.9999 8.58681Z" fill="black"/>
<path d="M5.09876 23.0748C3.99269 23.0748 3.09082 22.17 3.09082 21.0604C3.09082 19.9507 3.99269 19.0459 5.09876 19.0459C6.20483 19.0459 7.1067 19.9507 7.1067 21.0604C7.1067 22.17 6.20483 23.0748 5.09876 23.0748ZM5.09876 19.8995C4.46348 19.8995 3.94164 20.423 3.94164 21.0604C3.94164 21.6977 4.46348 22.2212 5.09876 22.2212C5.73404 22.2212 6.25588 21.6977 6.25588 21.0604C6.25588 20.423 5.73404 19.8995 5.09876 19.8995Z" fill="black"/>
<path d="M34.9005 23.0748C33.7944 23.0748 32.8926 22.17 32.8926 21.0604C32.8926 19.9507 33.7944 19.0459 34.9005 19.0459C36.0066 19.0459 36.9085 19.9507 36.9085 21.0604C36.9085 22.17 36.0066 23.0748 34.9005 23.0748ZM34.9005 19.8995C34.2652 19.8995 33.7434 20.423 33.7434 21.0604C33.7434 21.6977 34.2652 22.2212 34.9005 22.2212C35.5358 22.2212 36.0576 21.6977 36.0576 21.0604C36.0576 20.423 35.5358 19.8995 34.9005 19.8995Z" fill="black"/>
</svg>
