<svg width="25" height="17" viewBox="0 0 25 17" fill="none" xmlns="http://www.w3.org/2000/svg">
<path d="M24.5686 16.3791H0.431049C0.193015 16.3791 0 16.1861 0 15.9481V0.431049C0 0.193015 0.193015 0 0.431049 0H24.5687C24.8067 0 24.9997 0.193015 24.9997 0.431049V15.9481C24.9997 16.1862 24.8067 16.3791 24.5686 16.3791Z" fill="#F5F5F5"/>
<path d="M25.0006 1.25999H0.000976562V0.431049C0.000976562 0.193015 0.193992 0 0.432025 0H24.5696C24.8077 0 25.0007 0.193015 25.0007 0.431049L25.0006 1.25999Z" fill="#FF4B55"/>
<path d="M25.0002 5.03979H0.000488281V6.29974H25.0002V5.03979Z" fill="#FF4B55"/>
<path d="M25.0002 2.51978H0.000488281V3.77972H25.0002V2.51978Z" fill="#FF4B55"/>
<path d="M25.0002 8.81956H0.431537C0.193503 8.81956 0.000488281 8.62655 0.000488281 8.38851V7.55957H25.0002V8.81956Z" fill="#FF4B55"/>
<path d="M25.0002 12.5996H0.000488281V13.8596H25.0002V12.5996Z" fill="#FF4B55"/>
<path d="M24.5691 16.3791H0.431537C0.193503 16.3791 0.000488281 16.1861 0.000488281 15.948V15.1191H25.0002V15.9481C25.0002 16.1861 24.8071 16.3791 24.5691 16.3791Z" fill="#FF4B55"/>
<path d="M25.0002 10.0796H0.000488281V11.3395H25.0002V10.0796Z" fill="#FF4B55"/>
<path d="M11.2067 0.000244141H0.431049C0.193015 0.000244141 0 0.19321 0 0.431244V8.38866C0 8.62669 0.193015 8.81971 0.431049 8.81971H11.2068C11.4448 8.81971 11.6378 8.62669 11.6378 8.38866V0.431244C11.6378 0.19321 11.4448 0.000244141 11.2067 0.000244141Z" fill="#41479B"/>
<path d="M1.21124 0.989459L1.30665 1.27559L1.60826 1.27788C1.64732 1.27822 1.66348 1.32803 1.63209 1.35122L1.38946 1.53042L1.48048 1.81796C1.49229 1.85517 1.44986 1.88603 1.41807 1.86328L1.17272 1.68794L0.927358 1.86332C0.895572 1.88603 0.853238 1.85522 0.864957 1.81801L0.955971 1.53047L0.713347 1.35127C0.681951 1.32803 0.698113 1.27827 0.737175 1.27793L1.03878 1.27564L1.13419 0.989508C1.1465 0.952399 1.19884 0.952399 1.21124 0.989459Z" fill="#F5F5F5"/>
<path d="M1.21075 2.48625L1.30616 2.77238L1.60777 2.77467C1.64683 2.77501 1.66299 2.82482 1.6316 2.84801L1.38897 3.02721L1.47999 3.31475C1.4918 3.35196 1.44937 3.38282 1.41759 3.36006L1.17223 3.18473L0.92687 3.36011C0.895083 3.38282 0.85275 3.35201 0.864468 3.3148L0.955483 3.02726L0.712859 2.84806C0.681463 2.82482 0.697625 2.77506 0.736687 2.77472L1.03829 2.77243L1.1337 2.4863C1.14601 2.44924 1.19835 2.44924 1.21075 2.48625Z" fill="#F5F5F5"/>
<path d="M1.21075 3.98307L1.30616 4.2692L1.60777 4.2715C1.64683 4.27184 1.66299 4.32164 1.6316 4.34484L1.38897 4.52403L1.47999 4.81158C1.4918 4.84879 1.44937 4.87964 1.41759 4.85689L1.17223 4.68155L0.92687 4.85694C0.895083 4.87964 0.85275 4.84883 0.864468 4.81163L0.955483 4.52408L0.712859 4.34489C0.681463 4.32164 0.697625 4.27189 0.736687 4.27155L1.03829 4.26925L1.1337 3.98312C1.14601 3.94606 1.19835 3.94606 1.21075 3.98307Z" fill="#F5F5F5"/>
<path d="M1.21075 5.47969L1.30616 5.76582L1.60777 5.76812C1.64683 5.76846 1.66299 5.81826 1.6316 5.84146L1.38897 6.02065L1.47999 6.3082C1.4918 6.3454 1.44937 6.37626 1.41759 6.35351L1.17223 6.17817L0.92687 6.35356C0.895083 6.37626 0.85275 6.34545 0.864468 6.30825L0.955483 6.0207L0.712859 5.8415C0.681463 5.81826 0.697625 5.76851 0.736687 5.76817L1.03829 5.76587L1.1337 5.47974C1.14601 5.44263 1.19835 5.44263 1.21075 5.47969Z" fill="#F5F5F5"/>
<path d="M1.21075 6.97656L1.30616 7.26268L1.60777 7.26498C1.64683 7.26532 1.66299 7.31513 1.6316 7.33832L1.38897 7.51752L1.47999 7.80506C1.4918 7.84227 1.44937 7.87313 1.41759 7.85037L1.17223 7.67503L0.92687 7.85042C0.895083 7.87313 0.85275 7.84232 0.864468 7.80511L0.955483 7.51756L0.712859 7.33837C0.681463 7.31513 0.697625 7.26537 0.736687 7.26503L1.03829 7.26273L1.1337 6.97661C1.14601 6.93945 1.19835 6.93945 1.21075 6.97656Z" fill="#F5F5F5"/>
<path d="M2.37237 1.72332L2.46778 2.00944L2.76939 2.01174C2.80845 2.01208 2.82461 2.06188 2.79322 2.08508L2.55059 2.26427L2.64161 2.55182C2.65342 2.58903 2.61099 2.61988 2.57921 2.59713L2.33385 2.42174L2.08849 2.59713C2.0567 2.61984 2.01437 2.58903 2.02609 2.55182L2.1171 2.26427L1.87448 2.08508C1.84308 2.06184 1.85925 2.01208 1.89831 2.01174L2.19992 2.00944L2.29532 1.72332C2.30758 1.6863 2.36002 1.6863 2.37237 1.72332Z" fill="#F5F5F5"/>
<path d="M2.37237 3.22018L2.46778 3.50631L2.76939 3.5086C2.80845 3.50894 2.82461 3.55875 2.79322 3.58194L2.55059 3.76114L2.64161 4.04868C2.65342 4.08589 2.61099 4.11675 2.57921 4.09399L2.33385 3.91861L2.08849 4.09399C2.0567 4.1167 2.01437 4.08594 2.02609 4.04868L2.1171 3.76114L1.87448 3.58194C1.84308 3.5587 1.85925 3.50894 1.89831 3.5086L2.19992 3.50631L2.29532 3.22018C2.30758 3.18312 2.36002 3.18312 2.37237 3.22018Z" fill="#F5F5F5"/>
<path d="M2.37237 4.71676L2.46778 5.00289L2.76939 5.00518C2.80845 5.00553 2.82461 5.05533 2.79322 5.07852L2.55059 5.25772L2.64161 5.54526C2.65342 5.58247 2.61099 5.61333 2.57921 5.59058L2.33385 5.41519L2.08849 5.59058C2.0567 5.61328 2.01437 5.58247 2.02609 5.54526L2.1171 5.25772L1.87448 5.07852C1.84308 5.05528 1.85925 5.00553 1.89831 5.00518L2.19992 5.00289L2.29532 4.71676C2.30758 4.6797 2.36002 4.6797 2.37237 4.71676Z" fill="#F5F5F5"/>
<path d="M2.37237 6.21355L2.46778 6.49968L2.76939 6.50197C2.80845 6.50231 2.82461 6.55212 2.79322 6.57531L2.55059 6.75451L2.64161 7.04205C2.65342 7.07926 2.61099 7.11012 2.57921 7.08737L2.33385 6.91198L2.08849 7.08737C2.0567 7.11007 2.01437 7.07926 2.02609 7.04205L2.1171 6.75451L1.87448 6.57531C1.84308 6.55207 1.85925 6.50231 1.89831 6.50197L2.19992 6.49968L2.29532 6.21355C2.30758 6.17654 2.36002 6.17654 2.37237 6.21355Z" fill="#F5F5F5"/>
<path d="M3.53448 0.989465L3.62989 1.27559L3.9315 1.27789C3.97056 1.27823 3.98672 1.32803 3.95533 1.35123L3.7127 1.53042L3.80372 1.81797C3.81553 1.85518 3.7731 1.88603 3.74132 1.86328L3.49596 1.68789L3.2506 1.86328C3.21881 1.88599 3.17648 1.85518 3.1882 1.81797L3.27921 1.53042L3.03659 1.35123C3.00519 1.32799 3.02136 1.27823 3.06042 1.27789L3.36202 1.27559L3.45743 0.989465C3.46974 0.952405 3.52213 0.952405 3.53448 0.989465Z" fill="#F5F5F5"/>
<path d="M3.53448 2.48625L3.62989 2.77238L3.9315 2.77468C3.97056 2.77502 3.98672 2.82482 3.95533 2.84802L3.7127 3.02721L3.80372 3.31476C3.81553 3.35197 3.7731 3.38282 3.74132 3.36007L3.49596 3.18468L3.2506 3.36007C3.21881 3.38278 3.17648 3.35197 3.1882 3.31476L3.27921 3.02721L3.03659 2.84802C3.00519 2.82478 3.02136 2.77502 3.06042 2.77468L3.36202 2.77238L3.45743 2.48625C3.46974 2.44924 3.52213 2.44924 3.53448 2.48625Z" fill="#F5F5F5"/>
<path d="M3.53448 3.98308L3.62989 4.26921L3.9315 4.27151C3.97056 4.27185 3.98672 4.32165 3.95533 4.34484L3.7127 4.52404L3.80372 4.81159C3.81553 4.84879 3.7731 4.87965 3.74132 4.8569L3.49596 4.68151L3.2506 4.8569C3.21881 4.8796 3.17648 4.84879 3.1882 4.81159L3.27921 4.52404L3.03659 4.34484C3.00519 4.3216 3.02136 4.27185 3.06042 4.27151L3.36202 4.26921L3.45743 3.98308C3.46974 3.94607 3.52213 3.94607 3.53448 3.98308Z" fill="#F5F5F5"/>
<path d="M3.53448 5.4797L3.62989 5.76583L3.9315 5.76812C3.97056 5.76846 3.98672 5.81827 3.95533 5.84146L3.7127 6.02066L3.80372 6.3082C3.81553 6.34541 3.7731 6.37627 3.74132 6.35352L3.49596 6.17813L3.2506 6.35352C3.21881 6.37622 3.17648 6.34541 3.1882 6.3082L3.27921 6.02066L3.03659 5.84146C3.00519 5.81822 3.02136 5.76846 3.06042 5.76812L3.36202 5.76583L3.45743 5.4797C3.46974 5.44264 3.52213 5.44264 3.53448 5.4797Z" fill="#F5F5F5"/>
<path d="M3.53448 6.97656L3.62989 7.26269L3.9315 7.26499C3.97056 7.26533 3.98672 7.31513 3.95533 7.33832L3.7127 7.51752L3.80372 7.80507C3.81553 7.84227 3.7731 7.87313 3.74132 7.85038L3.49596 7.67499L3.2506 7.85038C3.21881 7.87308 3.17648 7.84227 3.1882 7.80507L3.27921 7.51752L3.03659 7.33832C3.00519 7.31508 3.02136 7.26533 3.06042 7.26499L3.36202 7.26269L3.45743 6.97656C3.46974 6.93945 3.52213 6.93945 3.53448 6.97656Z" fill="#F5F5F5"/>
<path d="M4.6961 1.72332L4.79151 2.00944L5.09312 2.01174C5.13218 2.01208 5.14834 2.06188 5.11695 2.08508L4.87432 2.26427L4.96534 2.55182C4.97716 2.58903 4.93472 2.61988 4.90294 2.59713L4.65758 2.42174L4.41222 2.59713C4.38043 2.61984 4.3381 2.58903 4.34982 2.55182L4.44083 2.26427L4.19821 2.08508C4.16681 2.06184 4.18298 2.01208 4.22204 2.01174L4.52365 2.00944L4.61905 1.72332C4.63131 1.6863 4.68375 1.6863 4.6961 1.72332Z" fill="#F5F5F5"/>
<path d="M4.6961 3.22018L4.79151 3.50631L5.09312 3.5086C5.13218 3.50894 5.14834 3.55875 5.11695 3.58194L4.87432 3.76114L4.96534 4.04868C4.97716 4.08589 4.93472 4.11675 4.90294 4.09399L4.65758 3.91861L4.41222 4.09399C4.38043 4.1167 4.3381 4.08594 4.34982 4.04868L4.44083 3.76114L4.19821 3.58194C4.16681 3.5587 4.18298 3.50894 4.22204 3.5086L4.52365 3.50631L4.61905 3.22018C4.63131 3.18312 4.68375 3.18312 4.6961 3.22018Z" fill="#F5F5F5"/>
<path d="M4.6961 4.71676L4.79151 5.00289L5.09312 5.00518C5.13218 5.00553 5.14834 5.05533 5.11695 5.07852L4.87432 5.25772L4.96534 5.54526C4.97716 5.58247 4.93472 5.61333 4.90294 5.59058L4.65758 5.41519L4.41222 5.59058C4.38043 5.61328 4.3381 5.58247 4.34982 5.54526L4.44083 5.25772L4.19821 5.07852C4.16681 5.05528 4.18298 5.00553 4.22204 5.00518L4.52365 5.00289L4.61905 4.71676C4.63131 4.6797 4.68375 4.6797 4.6961 4.71676Z" fill="#F5F5F5"/>
<path d="M4.6961 6.21355L4.79151 6.49968L5.09312 6.50197C5.13218 6.50231 5.14834 6.55212 5.11695 6.57531L4.87432 6.75451L4.96534 7.04205C4.97716 7.07926 4.93472 7.11012 4.90294 7.08737L4.65758 6.91198L4.41222 7.08737C4.38043 7.11007 4.3381 7.07926 4.34982 7.04205L4.44083 6.75451L4.19821 6.57531C4.16681 6.55207 4.18298 6.50231 4.22204 6.50197L4.52365 6.49968L4.61905 6.21355C4.63131 6.17654 4.68375 6.17654 4.6961 6.21355Z" fill="#F5F5F5"/>
<path d="M5.85777 0.989465L5.95318 1.27559L6.25479 1.27789C6.29385 1.27823 6.31001 1.32803 6.27862 1.35123L6.03599 1.53042L6.12701 1.81797C6.13883 1.85518 6.09639 1.88603 6.06461 1.86328L5.8192 1.68789L5.57384 1.86328C5.54206 1.88599 5.49972 1.85518 5.51144 1.81797L5.60246 1.53042L5.35983 1.35123C5.32844 1.32799 5.3446 1.27823 5.38366 1.27789L5.68527 1.27559L5.78068 0.989465C5.79303 0.952405 5.84542 0.952405 5.85777 0.989465Z" fill="#F5F5F5"/>
<path d="M5.85777 2.48625L5.95318 2.77238L6.25479 2.77468C6.29385 2.77502 6.31001 2.82482 6.27862 2.84802L6.03599 3.02721L6.12701 3.31476C6.13883 3.35197 6.09639 3.38282 6.06461 3.36007L5.8192 3.18468L5.57384 3.36007C5.54206 3.38278 5.49972 3.35197 5.51144 3.31476L5.60246 3.02721L5.35983 2.84802C5.32844 2.82478 5.3446 2.77502 5.38366 2.77468L5.68527 2.77238L5.78068 2.48625C5.79303 2.44924 5.84542 2.44924 5.85777 2.48625Z" fill="#F5F5F5"/>
<path d="M5.85777 3.98308L5.95318 4.26921L6.25479 4.27151C6.29385 4.27185 6.31001 4.32165 6.27862 4.34484L6.03599 4.52404L6.12701 4.81159C6.13883 4.84879 6.09639 4.87965 6.06461 4.8569L5.8192 4.68151L5.57384 4.8569C5.54206 4.8796 5.49972 4.84879 5.51144 4.81159L5.60246 4.52404L5.35983 4.34484C5.32844 4.3216 5.3446 4.27185 5.38366 4.27151L5.68527 4.26921L5.78068 3.98308C5.79303 3.94607 5.84542 3.94607 5.85777 3.98308Z" fill="#F5F5F5"/>
<path d="M5.85777 5.4797L5.95318 5.76583L6.25479 5.76812C6.29385 5.76846 6.31001 5.81827 6.27862 5.84146L6.03599 6.02066L6.12701 6.3082C6.13883 6.34541 6.09639 6.37627 6.06461 6.35352L5.8192 6.17813L5.57384 6.35352C5.54206 6.37622 5.49972 6.34541 5.51144 6.3082L5.60246 6.02066L5.35983 5.84146C5.32844 5.81822 5.3446 5.76846 5.38366 5.76812L5.68527 5.76583L5.78068 5.4797C5.79303 5.44264 5.84542 5.44264 5.85777 5.4797Z" fill="#F5F5F5"/>
<path d="M5.85777 6.97656L5.95318 7.26269L6.25479 7.26499C6.29385 7.26533 6.31001 7.31513 6.27862 7.33832L6.03599 7.51752L6.12701 7.80507C6.13883 7.84227 6.09639 7.87313 6.06461 7.85038L5.8192 7.67499L5.57384 7.85038C5.54206 7.87308 5.49972 7.84227 5.51144 7.80507L5.60246 7.51752L5.35983 7.33832C5.32844 7.31508 5.3446 7.26533 5.38366 7.26499L5.68527 7.26269L5.78068 6.97656C5.79303 6.93945 5.84542 6.93945 5.85777 6.97656Z" fill="#F5F5F5"/>
<path d="M7.01935 1.72332L7.11476 2.00944L7.41636 2.01174C7.45542 2.01208 7.47159 2.06188 7.44019 2.08508L7.19757 2.26427L7.28858 2.55182C7.3004 2.58903 7.25797 2.61988 7.22618 2.59713L6.98082 2.42174L6.73546 2.59713C6.70368 2.61984 6.66134 2.58903 6.67306 2.55182L6.76408 2.26427L6.52145 2.08508C6.49006 2.06184 6.50622 2.01208 6.54528 2.01174L6.84689 2.00944L6.9423 1.72332C6.95465 1.6863 7.00699 1.6863 7.01935 1.72332Z" fill="#F5F5F5"/>
<path d="M7.01935 3.22018L7.11476 3.50631L7.41636 3.5086C7.45542 3.50894 7.47159 3.55875 7.44019 3.58194L7.19757 3.76114L7.28858 4.04868C7.3004 4.08589 7.25797 4.11675 7.22618 4.09399L6.98082 3.91861L6.73546 4.09399C6.70368 4.1167 6.66134 4.08594 6.67306 4.04868L6.76408 3.76114L6.52145 3.58194C6.49006 3.5587 6.50622 3.50894 6.54528 3.5086L6.84689 3.50631L6.9423 3.22018C6.95465 3.18312 7.00699 3.18312 7.01935 3.22018Z" fill="#F5F5F5"/>
<path d="M7.01935 4.71676L7.11476 5.00289L7.41636 5.00518C7.45542 5.00553 7.47159 5.05533 7.44019 5.07852L7.19757 5.25772L7.28858 5.54526C7.3004 5.58247 7.25797 5.61333 7.22618 5.59058L6.98082 5.41519L6.73546 5.59058C6.70368 5.61328 6.66134 5.58247 6.67306 5.54526L6.76408 5.25772L6.52145 5.07852C6.49006 5.05528 6.50622 5.00553 6.54528 5.00518L6.84689 5.00289L6.9423 4.71676C6.95465 4.6797 7.00699 4.6797 7.01935 4.71676Z" fill="#F5F5F5"/>
<path d="M7.01935 6.21355L7.11476 6.49968L7.41636 6.50197C7.45542 6.50231 7.47159 6.55212 7.44019 6.57531L7.19757 6.75451L7.28858 7.04205C7.3004 7.07926 7.25797 7.11012 7.22618 7.08737L6.98082 6.91198L6.73546 7.08737C6.70368 7.11007 6.66134 7.07926 6.67306 7.04205L6.76408 6.75451L6.52145 6.57531C6.49006 6.55207 6.50622 6.50231 6.54528 6.50197L6.84689 6.49968L6.9423 6.21355C6.95465 6.17654 7.00699 6.17654 7.01935 6.21355Z" fill="#F5F5F5"/>
<path d="M8.18146 0.989465L8.27686 1.27559L8.57847 1.27789C8.61753 1.27823 8.6337 1.32803 8.6023 1.35123L8.35968 1.53042L8.45069 1.81797C8.46251 1.85518 8.42008 1.88603 8.38829 1.86328L8.14293 1.68789L7.89757 1.86328C7.86579 1.88599 7.82345 1.85518 7.83517 1.81797L7.92619 1.53042L7.68356 1.35123C7.65217 1.32799 7.66833 1.27823 7.70739 1.27789L8.009 1.27559L8.10441 0.989465C8.11666 0.952405 8.1691 0.952405 8.18146 0.989465Z" fill="#F5F5F5"/>
<path d="M8.18146 2.48625L8.27686 2.77238L8.57847 2.77468C8.61753 2.77502 8.6337 2.82482 8.6023 2.84802L8.35968 3.02721L8.45069 3.31476C8.46251 3.35197 8.42008 3.38282 8.38829 3.36007L8.14293 3.18468L7.89757 3.36007C7.86579 3.38278 7.82345 3.35197 7.83517 3.31476L7.92619 3.02721L7.68356 2.84802C7.65217 2.82478 7.66833 2.77502 7.70739 2.77468L8.009 2.77238L8.10441 2.48625C8.11666 2.44924 8.1691 2.44924 8.18146 2.48625Z" fill="#F5F5F5"/>
<path d="M8.18146 3.98308L8.27686 4.26921L8.57847 4.27151C8.61753 4.27185 8.6337 4.32165 8.6023 4.34484L8.35968 4.52404L8.45069 4.81159C8.46251 4.84879 8.42008 4.87965 8.38829 4.8569L8.14293 4.68151L7.89757 4.8569C7.86579 4.8796 7.82345 4.84879 7.83517 4.81159L7.92619 4.52404L7.68356 4.34484C7.65217 4.3216 7.66833 4.27185 7.70739 4.27151L8.009 4.26921L8.10441 3.98308C8.11666 3.94607 8.1691 3.94607 8.18146 3.98308Z" fill="#F5F5F5"/>
<path d="M8.18146 5.4797L8.27686 5.76583L8.57847 5.76812C8.61753 5.76846 8.6337 5.81827 8.6023 5.84146L8.35968 6.02066L8.45069 6.3082C8.46251 6.34541 8.42008 6.37627 8.38829 6.35352L8.14293 6.17813L7.89757 6.35352C7.86579 6.37622 7.82345 6.34541 7.83517 6.3082L7.92619 6.02066L7.68356 5.84146C7.65217 5.81822 7.66833 5.76846 7.70739 5.76812L8.009 5.76583L8.10441 5.4797C8.11666 5.44264 8.1691 5.44264 8.18146 5.4797Z" fill="#F5F5F5"/>
<path d="M8.18146 6.97656L8.27686 7.26269L8.57847 7.26499C8.61753 7.26533 8.6337 7.31513 8.6023 7.33832L8.35968 7.51752L8.45069 7.80507C8.46251 7.84227 8.42008 7.87313 8.38829 7.85038L8.14293 7.67499L7.89757 7.85038C7.86579 7.87308 7.82345 7.84227 7.83517 7.80507L7.92619 7.51752L7.68356 7.33832C7.65217 7.31508 7.66833 7.26533 7.70739 7.26499L8.009 7.26269L8.10441 6.97656C8.11666 6.93945 8.1691 6.93945 8.18146 6.97656Z" fill="#F5F5F5"/>
<path d="M9.34308 1.72332L9.43849 2.00944L9.74009 2.01174C9.77916 2.01208 9.79532 2.06188 9.76392 2.08508L9.5213 2.26427L9.61231 2.55182C9.62413 2.58903 9.5817 2.61988 9.54991 2.59713L9.30455 2.42174L9.05919 2.59713C9.02741 2.61984 8.98507 2.58903 8.99679 2.55182L9.08781 2.26427L8.84518 2.08508C8.81379 2.06184 8.82995 2.01208 8.86901 2.01174L9.17062 2.00944L9.26603 1.72332C9.27833 1.6863 9.33077 1.6863 9.34308 1.72332Z" fill="#F5F5F5"/>
<path d="M9.34308 3.22018L9.43849 3.50631L9.74009 3.5086C9.77916 3.50894 9.79532 3.55875 9.76392 3.58194L9.5213 3.76114L9.61231 4.04868C9.62413 4.08589 9.5817 4.11675 9.54991 4.09399L9.30455 3.91861L9.05919 4.09399C9.02741 4.1167 8.98507 4.08594 8.99679 4.04868L9.08781 3.76114L8.84518 3.58194C8.81379 3.5587 8.82995 3.50894 8.86901 3.5086L9.17062 3.50631L9.26603 3.22018C9.27833 3.18312 9.33077 3.18312 9.34308 3.22018Z" fill="#F5F5F5"/>
<path d="M9.34308 4.71676L9.43849 5.00289L9.74009 5.00518C9.77916 5.00553 9.79532 5.05533 9.76392 5.07852L9.5213 5.25772L9.61231 5.54526C9.62413 5.58247 9.5817 5.61333 9.54991 5.59058L9.30455 5.41519L9.05919 5.59058C9.02741 5.61328 8.98507 5.58247 8.99679 5.54526L9.08781 5.25772L8.84518 5.07852C8.81379 5.05528 8.82995 5.00553 8.86901 5.00518L9.17062 5.00289L9.26603 4.71676C9.27833 4.6797 9.33077 4.6797 9.34308 4.71676Z" fill="#F5F5F5"/>
<path d="M9.34308 6.21355L9.43849 6.49968L9.74009 6.50197C9.77916 6.50231 9.79532 6.55212 9.76392 6.57531L9.5213 6.75451L9.61231 7.04205C9.62413 7.07926 9.5817 7.11012 9.54991 7.08737L9.30455 6.91198L9.05919 7.08737C9.02741 7.11007 8.98507 7.07926 8.99679 7.04205L9.08781 6.75451L8.84518 6.57531C8.81379 6.55207 8.82995 6.50231 8.86901 6.50197L9.17062 6.49968L9.26603 6.21355C9.27833 6.17654 9.33077 6.17654 9.34308 6.21355Z" fill="#F5F5F5"/>
<path d="M10.5052 0.989465L10.6006 1.27559L10.9022 1.27789C10.9413 1.27823 10.9574 1.32803 10.926 1.35123L10.6834 1.53042L10.7744 1.81797C10.7862 1.85518 10.7438 1.88603 10.712 1.86328L10.4667 1.68789L10.2213 1.86328C10.1895 1.88599 10.1472 1.85518 10.1589 1.81797L10.2499 1.53042L10.0073 1.35123C9.9759 1.32799 9.99206 1.27823 10.0311 1.27789L10.3327 1.27559L10.4281 0.989465C10.4404 0.952405 10.4928 0.952405 10.5052 0.989465Z" fill="#F5F5F5"/>
<path d="M10.5052 2.48625L10.6006 2.77238L10.9022 2.77468C10.9413 2.77502 10.9574 2.82482 10.926 2.84802L10.6834 3.02721L10.7744 3.31476C10.7862 3.35197 10.7438 3.38282 10.712 3.36007L10.4667 3.18468L10.2213 3.36007C10.1895 3.38278 10.1472 3.35197 10.1589 3.31476L10.2499 3.02721L10.0073 2.84802C9.9759 2.82478 9.99206 2.77502 10.0311 2.77468L10.3327 2.77238L10.4281 2.48625C10.4404 2.44924 10.4928 2.44924 10.5052 2.48625Z" fill="#F5F5F5"/>
<path d="M10.5052 3.98308L10.6006 4.26921L10.9022 4.27151C10.9413 4.27185 10.9574 4.32165 10.926 4.34484L10.6834 4.52404L10.7744 4.81159C10.7862 4.84879 10.7438 4.87965 10.712 4.8569L10.4667 4.68151L10.2213 4.8569C10.1895 4.8796 10.1472 4.84879 10.1589 4.81159L10.2499 4.52404L10.0073 4.34484C9.9759 4.3216 9.99206 4.27185 10.0311 4.27151L10.3327 4.26921L10.4281 3.98308C10.4404 3.94607 10.4928 3.94607 10.5052 3.98308Z" fill="#F5F5F5"/>
<path d="M10.5052 5.4797L10.6006 5.76583L10.9022 5.76812C10.9413 5.76846 10.9574 5.81827 10.926 5.84146L10.6834 6.02066L10.7744 6.3082C10.7862 6.34541 10.7438 6.37627 10.712 6.35352L10.4667 6.17813L10.2213 6.35352C10.1895 6.37622 10.1472 6.34541 10.1589 6.3082L10.2499 6.02066L10.0073 5.84146C9.9759 5.81822 9.99206 5.76846 10.0311 5.76812L10.3327 5.76583L10.4281 5.4797C10.4404 5.44264 10.4928 5.44264 10.5052 5.4797Z" fill="#F5F5F5"/>
<path d="M10.5052 6.97656L10.6006 7.26269L10.9022 7.26499C10.9413 7.26533 10.9574 7.31513 10.926 7.33832L10.6834 7.51752L10.7744 7.80507C10.7862 7.84227 10.7438 7.87313 10.712 7.85038L10.4667 7.67499L10.2213 7.85038C10.1895 7.87308 10.1472 7.84227 10.1589 7.80507L10.2499 7.51752L10.0073 7.33832C9.9759 7.31508 9.99206 7.26533 10.0311 7.26499L10.3327 7.26269L10.4281 6.97656C10.4404 6.93945 10.4928 6.93945 10.5052 6.97656Z" fill="#F5F5F5"/>
</svg>
