<svg width="33" height="23" viewBox="0 0 33 23" fill="none" xmlns="http://www.w3.org/2000/svg">
<path d="M21.2823 0C14.757 0 9.56641 5.16772 9.56641 11.5C9.56641 17.9051 14.8312 23 21.2823 23C27.7336 23 32.9983 17.8323 32.9983 11.5C32.9983 5.16772 27.7336 0 21.2823 0ZM21.2823 15.7943C18.9095 15.7943 16.9074 13.8291 16.9074 11.5C16.9074 9.17089 18.9095 7.20569 21.2823 7.20569C23.6552 7.20569 25.6573 9.17089 25.6573 11.5C25.5833 13.8291 23.6552 15.7943 21.2823 15.7943Z" fill="#8B3FFD"/>
<path d="M9.49142 3.34863V20.0891H5.33893L0 3.34863H9.49142Z" fill="#8B3FFD"/>
</svg>
