<svg width="13" height="8" viewBox="0 0 13 8" fill="none" xmlns="http://www.w3.org/2000/svg">
<path d="M6.68012 5.59001L11.626 0.450574C11.8832 0.183357 12.296 0.18342 12.553 0.450531L12.5531 0.450618C12.8156 0.723121 12.8157 1.16898 12.5531 1.44168L12.553 1.44173L6.96349 7.25012C6.96347 7.25014 6.96344 7.25017 6.96342 7.25019C6.83375 7.38479 6.66624 7.45029 6.49998 7.45029C6.33372 7.45029 6.16616 7.38464 6.0365 7.24997L0.44682 1.44155L0.44682 1.44155C0.184375 1.16884 0.184424 0.722909 0.446784 0.450395L0.446819 0.450359C0.703867 0.183255 1.11669 0.183174 1.37398 0.450354C1.374 0.45037 1.37401 0.450386 1.37403 0.450402L6.31984 5.59L6.49997 5.7772L6.68012 5.59001Z" fill="white" stroke="black" stroke-width="0.5"/>
</svg>
