<svg width="13" height="8" viewBox="0 0 13 8" fill="none" xmlns="http://www.w3.org/2000/svg">
<path d="M6.31989 2.11019L1.37404 7.24962C1.11678 7.51684 0.70399 7.51677 0.446957 7.24966L0.446873 7.24958C0.184395 6.97707 0.184345 6.53121 0.446907 6.25851L0.446952 6.25846L6.03651 0.450078C6.03654 0.450053 6.03656 0.450028 6.03658 0.450003C6.16625 0.31541 6.33376 0.249901 6.50002 0.249901C6.66628 0.249901 6.83384 0.315556 6.9635 0.450229L12.5532 6.25865L12.5532 6.25865C12.8156 6.53136 12.8156 6.97729 12.5532 7.2498L12.5532 7.24984C12.2961 7.51694 11.8833 7.51702 11.626 7.24984C11.626 7.24983 11.626 7.24981 11.626 7.24979L6.68016 2.11019L6.50003 1.923L6.31989 2.11019Z" fill="black" stroke="white" stroke-width="0.5"/>
</svg>
