<svg width="54" height="54" viewBox="0 0 54 54" fill="none" xmlns="http://www.w3.org/2000/svg">
<rect width="54" height="54" fill="black"/>
<path d="M26.5 36C26.2295 36 25.9687 35.8957 25.7655 35.7061C24.9979 34.9914 24.2579 34.3198 23.605 33.7274L23.6017 33.7243C21.6875 31.9873 20.0346 30.4873 18.8845 29.0096C17.5988 27.3576 17 25.7914 17 24.0803C17 22.4179 17.5353 20.8842 18.5073 19.7615C19.4908 18.6256 20.8404 18 22.3078 18C23.4046 18 24.409 18.3692 25.2931 19.0973C25.7393 19.4649 26.1437 19.9147 26.5 20.4393C26.8565 19.9147 27.2607 19.4649 27.7071 19.0973C28.5912 18.3692 29.5956 18 30.6923 18C32.1596 18 33.5093 18.6256 34.4929 19.7615C35.4648 20.8842 36 22.4179 36 24.0803C36 25.7914 35.4013 27.3576 34.1157 29.0094C32.9656 30.4873 31.3128 31.9872 29.3989 33.724C28.7448 34.3173 28.0037 34.99 27.2344 35.7064C27.0313 35.8957 26.7703 36 26.5 36ZM22.3078 19.1852C21.1549 19.1852 20.0959 19.6751 19.3254 20.5648C18.5435 21.468 18.1128 22.7164 18.1128 24.0803C18.1128 25.5194 18.6151 26.8064 19.7413 28.2534C20.8298 29.652 22.4488 31.1212 24.3234 32.8224L24.3269 32.8255C24.9823 33.4202 25.7252 34.0944 26.4984 34.8144C27.2763 34.0931 28.0203 33.4177 28.677 32.8221C30.5514 31.1209 32.1703 29.652 33.2588 28.2534C34.3849 26.8064 34.8872 25.5194 34.8872 24.0803C34.8872 22.7164 34.4565 21.468 33.6746 20.5648C32.9043 19.6751 31.8451 19.1852 30.6923 19.1852C29.8478 19.1852 29.0724 19.471 28.3878 20.0347C27.7777 20.5373 27.3526 21.1727 27.1035 21.6172C26.9753 21.8458 26.7498 21.9823 26.5 21.9823C26.2502 21.9823 26.0247 21.8458 25.8965 21.6172C25.6475 21.1727 25.2225 20.5373 24.6122 20.0347C23.9276 19.471 23.1522 19.1852 22.3078 19.1852Z" fill="white"/>
</svg>
