<svg width="54" height="54" viewBox="0 0 54 54" fill="none" xmlns="http://www.w3.org/2000/svg">
<rect width="54" height="54" fill="black"/>
<path d="M34.4927 19.6363C33.5092 18.5811 32.1596 18 30.6923 18C29.5956 18 28.5912 18.343 27.7069 19.0193C27.2607 19.3607 26.8565 19.7784 26.5 20.2659C26.1437 19.7785 25.7393 19.3607 25.2929 19.0193C24.4088 18.343 23.4044 18 22.3077 18C20.8404 18 19.4907 18.5811 18.5071 19.6363C17.5353 20.6791 17 22.1037 17 23.6479C17 25.2373 17.5988 26.6922 18.8845 28.2267C20.0346 29.5993 21.6875 30.9927 23.6017 32.6061C24.2553 33.1571 24.9962 33.7817 25.7655 34.447C25.9687 34.6231 26.2295 34.72 26.5 34.72C26.7703 34.72 27.0313 34.6231 27.2342 34.4473C28.0035 33.7819 28.7448 33.157 29.3987 32.6057C31.3126 30.9925 32.9656 29.5993 34.1157 28.2265C35.4013 26.6922 36 25.2373 36 23.6478C36 22.1037 35.4647 20.6791 34.4927 19.6363Z" fill="white"/>
</svg>
