<svg width="48" height="30" viewBox="0 0 48 30" fill="none" xmlns="http://www.w3.org/2000/svg">
<path fill-rule="evenodd" clip-rule="evenodd" d="M26.3749 1.72407L26.2698 1.72757L25.2208 2.40257C25.2164 2.40558 25.2108 2.41029 25.2064 2.41344L24.6475 2.80629C24.5251 2.89226 24.4865 2.92843 24.3931 2.94651C24.3691 2.99761 24.3044 3.04878 24.2618 3.07064C24.1071 3.14983 24.2074 3.06707 24.1248 3.20279L24.0264 3.21036L24.0365 3.21172C24.1224 3.35101 24.3984 3.49173 24.6105 3.72957C24.8029 3.94525 24.9297 4.01886 25.0237 4.1187L25.5511 4.66499C25.7115 4.80007 25.8546 5.01418 25.9526 5.09022L26.1084 5.21321C26.1461 5.25374 26.1427 5.26896 26.178 5.3167L26.6715 5.92702C26.7725 6.05895 26.8356 6.21568 26.8715 6.25784L27.1864 6.69515C27.2612 6.81971 27.2356 6.81821 27.3314 6.92405C27.4522 7.05755 27.5646 7.21299 27.6074 7.3828C27.6325 7.48257 27.6647 7.47578 27.7098 7.55246L28.1153 8.32323C28.1413 8.36361 28.1641 8.39762 28.1802 8.43493C28.2619 8.62439 28.2812 8.54356 28.3218 8.65798L29.2051 11.2542C29.2378 11.5093 29.2727 11.6432 29.3269 11.8665C29.327 11.8668 29.3429 11.9284 29.3474 11.942C29.4418 12.2242 29.4179 12.5165 29.4949 12.7985C29.5718 13.0804 29.5059 13.529 29.5898 13.7843C29.6466 13.9573 29.6722 15.9482 29.5959 16.1964L29.5635 16.5831C29.5454 17.1053 29.4711 17.7001 29.3299 18.1941C29.3055 18.2796 29.294 18.3892 29.2702 18.4872C29.2692 18.4915 29.2508 18.5614 29.2494 18.5658L29.0396 19.2323C28.9524 19.4264 28.9496 19.6382 28.859 19.8315C28.8361 19.8802 28.8627 19.8075 28.8368 19.8817C28.8093 19.9603 28.7972 20.0991 28.7879 20.2025C28.6908 20.2772 28.7478 20.1851 28.7011 20.3013L28.506 20.7586C28.4462 20.8775 28.3644 21.031 28.3326 21.1553C28.2948 21.303 28.1297 21.6297 28.053 21.7864L27.6134 22.5741C27.5401 22.7771 27.4344 22.8573 27.3305 23.0464L27.1737 23.2679C27.1707 23.2719 27.1661 23.2778 27.1632 23.2819C27.047 23.4411 26.8513 23.6895 26.7895 23.8677C26.7666 23.9338 26.7889 23.8933 26.7595 23.9362L26.7374 23.9607C26.6414 24.0644 26.5866 24.18 26.4767 24.2733C26.4128 24.3275 26.4347 24.3114 26.3975 24.3744L25.5943 25.2517C25.5737 25.2708 25.5635 25.28 25.5557 25.2879C25.5543 25.2894 25.4841 25.3737 25.479 25.3804C25.3449 25.5567 25.1571 25.6988 24.998 25.8544C24.9927 25.8596 24.9774 25.8747 24.9721 25.8799L24.3804 26.4159C24.2737 26.5225 24.088 26.6163 24.0078 26.747C24.0746 26.7468 24.0505 26.7376 24.1029 26.7625C24.109 26.7653 24.1685 26.8161 24.1825 26.8307L25.2226 27.5701C25.2734 27.6011 25.2607 27.6009 25.3057 27.6381C25.3375 27.6643 25.3566 27.669 25.3751 27.6854C25.4934 27.7166 25.4126 27.6975 25.5035 27.7426C25.5469 27.764 25.5171 27.7732 25.5962 27.7682L25.689 27.7828C25.7808 27.9025 25.9002 27.9064 26.0249 28.0409C26.1089 28.0644 26.0921 28.078 26.1498 28.1176C26.2056 28.1559 26.2373 28.1577 26.2986 28.195L27.2636 28.6554C27.3584 28.6963 27.3236 28.6951 27.4224 28.7271C27.4659 28.7412 27.4718 28.7373 27.5167 28.7553C27.5239 28.7582 27.5443 28.7672 27.5511 28.7708C27.6667 28.832 27.584 28.8272 27.7529 28.8644C27.9267 28.9026 27.8762 28.9171 27.9254 28.9459C27.9796 28.9776 28.0311 28.9726 28.0967 28.9976C28.2036 29.0383 28.1685 29.0526 28.2535 29.086C28.4347 29.1572 28.5464 29.0519 28.6169 29.2342C28.7749 29.2025 28.9216 29.3165 29.057 29.3425C29.1495 29.3602 29.2288 29.3607 29.3108 29.3917C29.6123 29.5057 29.6675 29.4706 29.7766 29.5245C30.053 29.6612 29.986 29.557 30.2699 29.6298L30.4914 29.7068C30.6436 29.7438 30.8488 29.7277 31.0121 29.7639C31.1886 29.8031 31.358 29.811 31.546 29.8321C31.7162 29.8513 31.9053 29.8713 32.1002 29.8754C32.3284 29.8803 32.4049 29.9256 32.6497 29.9265C33.0002 29.9279 33.486 29.9575 33.8215 29.9234C33.9027 29.9152 33.9871 29.8894 34.0758 29.8823L35.9306 29.6592C36.0156 29.6396 36.0917 29.6223 36.1774 29.6068C36.457 29.5561 36.7452 29.4328 36.9343 29.4836L36.9619 29.4476C37.0728 29.3332 37.1644 29.3775 37.3328 29.3266C37.4106 29.303 37.4255 29.2741 37.5018 29.2502C37.5793 29.2258 37.6576 29.2194 37.728 29.1988C37.8255 29.1702 37.8208 29.1465 37.9031 29.1245C37.9907 29.1012 38.0616 29.1078 38.1315 29.0745C38.1917 29.0458 38.1944 29.0089 38.3037 28.9796L39.2399 28.5877C39.3302 28.5383 39.3184 28.5481 39.4178 28.5139C39.5197 28.4788 39.5221 28.4428 39.5883 28.4144C39.6598 28.3837 39.7261 28.3881 39.8003 28.3445C39.9135 28.2782 39.841 28.2726 40.0181 28.2612L40.0331 28.2727C40.1188 28.0992 40.1154 28.2122 40.3031 28.0725L40.7013 27.8205C40.7654 27.7648 40.7477 27.8057 40.9097 27.7023L41.2028 27.5426C41.2069 27.5397 41.2131 27.5355 41.217 27.5324L41.3927 27.3855C41.4653 27.3363 41.4943 27.2872 41.6036 27.2765L41.6061 27.1949C41.7173 27.1493 42.0103 26.9063 42.1555 26.8167C42.3148 26.7183 42.2364 26.6791 42.4131 26.6585C42.5063 26.6261 42.4097 26.6614 42.477 26.6134C42.5091 26.5904 42.5372 26.576 42.5674 26.553C42.6435 26.495 42.6159 26.476 42.7101 26.4464C42.7388 26.3796 42.7192 26.411 42.7578 26.3686C42.7742 26.3505 42.7938 26.3401 42.8146 26.323C43.0315 26.1444 42.9435 26.1644 43.2263 25.9773C43.3207 25.9149 43.2707 25.951 43.3167 25.8836C43.32 25.8787 43.3237 25.8721 43.3272 25.8673C43.3308 25.8624 43.3352 25.8564 43.339 25.8517L43.4855 25.7152C43.5937 25.6212 43.492 25.6343 43.6095 25.6169C43.6291 25.5639 43.612 25.5955 43.6432 25.549L44.2703 24.8731C44.3098 24.8259 44.3249 24.8026 44.3755 24.751C44.467 24.6575 44.4212 24.6571 44.5185 24.6478C44.5193 24.5161 44.5454 24.5779 44.628 24.4558L45.3625 23.4881C45.3654 23.4834 45.3687 23.4768 45.3716 23.4721L45.8274 22.7452C45.8305 22.7389 45.8505 22.6948 45.8514 22.6933L46.0684 22.3323C46.1419 22.1627 46.1373 22.3018 46.1934 22.1371C46.2413 21.9964 46.2691 22.0283 46.3007 21.9085C46.3618 21.6774 46.3315 21.8451 46.4133 21.7014C46.4719 21.5983 46.4374 21.5591 46.5595 21.4945C46.5448 21.3862 46.757 20.9725 46.8104 20.8397L46.9152 20.6424C46.9264 20.4183 46.9248 20.5096 46.9975 20.3776C47.0446 20.292 47.0208 20.2233 47.0822 20.1089C47.1712 19.9429 47.2535 19.5873 47.2918 19.4893C47.3135 19.4338 47.3287 19.4274 47.3499 19.3745C47.3834 19.2915 47.3864 19.1849 47.4196 19.0925C47.4578 18.986 47.4825 18.9493 47.5065 18.8343L47.6945 17.9869C47.7264 17.879 47.7331 17.8125 47.7473 17.6891C47.7552 17.6198 47.759 17.6039 47.7728 17.5438C47.7735 17.5411 47.7867 17.4853 47.7871 17.4839L47.8064 17.4251C47.899 17.1516 47.8571 16.6425 47.9328 16.3176C47.9669 16.1714 47.9191 16.2379 48 16.2015V13.6435C47.8986 13.5287 47.8785 13.0446 47.8738 12.9133C47.8713 12.8435 47.8725 12.7542 47.8662 12.687C47.8612 12.6325 47.8633 12.6485 47.8507 12.6065L47.7562 12.1753C47.7144 11.8593 47.7025 11.9587 47.6757 11.8288C47.6461 11.6852 47.6471 11.609 47.6086 11.4713C47.57 11.333 47.581 11.4312 47.5465 11.308C47.4996 11.1405 47.553 11.0878 47.4795 10.9729C47.3856 10.8263 47.4289 10.7949 47.3911 10.6316C47.3618 10.5052 47.3354 10.613 47.2702 10.3323C47.2492 10.242 47.2369 10.2375 47.217 10.1821C47.1682 10.0466 47.179 9.98483 47.1171 9.8539L46.8835 9.26058C46.8806 9.25587 46.8763 9.24986 46.8733 9.24536C46.8106 9.1526 46.8266 9.2395 46.8021 9.09242C46.7799 8.95892 46.8009 9.02382 46.7493 8.9412C46.6754 8.82292 46.7043 8.75739 46.6199 8.64597C46.5114 8.50268 46.5896 8.48074 46.4997 8.39126C46.3715 8.3173 46.303 7.9699 46.1351 7.77379C46.0508 7.67531 46.1041 7.67695 46.0412 7.56775L45.4898 6.71759C45.4684 6.68042 45.4625 6.65112 45.4419 6.6141C45.4156 6.56672 45.3502 6.48411 45.3097 6.44251C45.1798 6.30901 45.2303 6.27721 45.0648 6.05995L44.4156 5.25459C44.4121 5.25031 44.4078 5.24423 44.4045 5.24001L43.3144 4.10219C43.2812 4.07232 43.2466 4.04688 43.2197 4.01908L42.9 3.71256C42.7511 3.55147 42.5515 3.42791 42.3694 3.31342C42.3339 3.29112 42.333 3.2814 42.295 3.24252C42.2487 3.19514 42.1963 3.14854 42.1376 3.0988C42.1017 3.06843 42.0897 3.06593 42.0536 3.03255C41.9768 2.96152 42.0228 3.07179 41.9923 2.94079C41.8873 2.94494 41.9009 2.91906 41.8335 2.8754L41.2028 2.4298C41.0847 2.34083 41.0992 2.38842 40.9976 2.28601C40.9923 2.28072 40.9731 2.26079 40.9689 2.25643L40.936 2.22134C40.8561 2.23005 40.8902 2.22934 40.8256 2.1826L40.3653 1.91017C40.3385 1.89716 40.3366 1.89902 40.3101 1.88887C40.1765 1.83763 40.2268 1.83449 40.134 1.77102L39.704 1.57285C39.5675 1.47815 39.348 1.41776 39.2032 1.34673L38.7063 1.13976C38.6033 1.10789 38.7107 1.14869 38.6112 1.08795L38.1591 0.911638C38.0743 0.89127 38.0236 0.865971 37.9404 0.832024C37.8153 0.780997 37.6145 0.710245 37.4998 0.681086C37.4117 0.678442 37.3469 0.681229 37.2719 0.648355C37.2684 0.646783 37.2237 0.61984 37.2115 0.613408C37.0644 0.536081 36.8947 0.573744 36.7696 0.525432C36.6271 0.470331 36.5944 0.471618 36.4354 0.432883C36.3424 0.410228 36.2316 0.368134 36.132 0.343835C35.9078 0.289235 35.7677 0.326541 35.5873 0.235707C35.5074 0.195471 35.1258 0.189753 35.022 0.18082C34.9567 0.175174 34.8947 0.177676 34.8336 0.162239C34.2538 0.0164469 31.9573 0.0560394 31.4755 0.154663C31.2316 0.204619 30.9668 0.195614 30.7348 0.261149C30.6216 0.293094 30.5219 0.311104 30.3752 0.324611L29.4016 0.56774C29.2548 0.612479 29.2542 0.667365 29.0999 0.680157C28.8644 0.699668 28.2971 0.87033 28.1031 0.95659C28.0637 0.9741 27.9967 1.01434 27.9545 1.0292C27.9079 1.04557 27.8409 1.05143 27.7953 1.0738C27.7128 1.11439 27.7878 1.11332 27.6714 1.14662C27.6166 1.16227 27.5406 1.16191 27.4883 1.17735C27.3468 1.21902 27.4974 1.19014 27.3569 1.26061C27.2755 1.30142 27.2805 1.26797 27.2134 1.31764C27.1491 1.36538 27.2481 1.34408 27.0945 1.39375C26.9386 1.44421 26.5822 1.6396 26.3752 1.72386L26.3749 1.72407Z" fill="#FE9F00"/>
<path fill-rule="evenodd" clip-rule="evenodd" d="M9.60613 1.00019C9.56213 1.0723 9.60386 1.02191 9.54429 1.07094L9.02723 1.29956C8.9329 1.34423 8.98415 1.33251 8.92679 1.37632C8.8373 1.44464 8.79173 1.38096 8.67949 1.45464C8.56057 1.53269 8.70913 1.48552 8.57201 1.51754C8.28747 1.58393 8.46397 1.54276 8.31697 1.61988C8.2773 1.64067 8.24702 1.64246 8.20793 1.66276C8.12383 1.70642 8.17551 1.70013 8.1072 1.73558C8.05659 1.76188 8.02432 1.75523 7.97541 1.78103C7.84967 1.8475 7.96582 1.86408 7.72698 1.89009L5.95758 3.06908C5.83702 3.16091 5.87377 3.18371 5.67467 3.23695C5.65725 3.28269 5.51793 3.4099 5.45296 3.41312C5.41742 3.49802 5.46348 3.42412 5.40867 3.4983C5.39794 3.51281 5.38792 3.52132 5.37178 3.53547C5.32465 3.57685 5.30269 3.59636 5.22556 3.60079C5.19308 3.62623 5.17502 3.65975 5.14062 3.70348C5.03293 3.84056 5.00449 3.80254 4.80816 3.99921L4.40107 4.39342C4.36503 4.49083 4.41323 4.40164 4.3634 4.48147L3.88757 4.98195C3.85629 5.02047 3.84783 5.03448 3.80653 5.078C3.74753 5.14018 3.77739 5.12581 3.69202 5.17098L3.46036 5.46164C3.40768 5.52038 3.42496 5.46485 3.37662 5.52453L3.36532 5.61629C3.26978 5.68047 3.31513 5.67689 3.25805 5.76294L1.85615 7.81589C1.79822 7.88607 1.84627 7.83519 1.79197 7.87907C1.79218 7.98491 1.74256 7.95882 1.70574 8.06824L1.52874 8.46924C1.40449 8.60638 1.49974 8.48696 1.44167 8.65955C1.3966 8.79355 1.36966 8.66398 1.33106 8.84451C1.29545 9.01117 1.32175 8.91162 1.25316 9.04805C1.21179 9.1303 1.21164 9.19119 1.1744 9.27159C1.14141 9.34285 1.08789 9.3645 1.12478 9.46005C1.11206 9.66745 1.04979 9.62728 0.998962 9.84175C0.957948 10.0148 0.91281 9.99498 0.887575 10.2246C0.865397 10.4268 0.781164 10.2813 0.764033 10.5772C0.749674 10.8256 0.683567 10.6709 0.648096 10.9253C0.62144 11.1164 0.560735 11.1374 0.537562 11.2804C0.498537 11.5215 0.547087 11.4941 0.453968 11.6862C0.390633 11.8168 0.417432 11.9482 0.387363 12.1023C0.362911 12.2277 0.303201 12.2923 0.291188 12.486C0.281094 12.6485 0.272067 12.7804 0.263039 12.94C0.253301 13.1125 0.194302 13.1276 0.174754 13.3215C0.146463 13.6026 0.159827 13.9807 0.158263 14.2713C0.156201 14.6599 0.142198 16.3262 0.173119 16.6597C0.187407 16.814 0.211646 16.81 0.22963 16.851C0.27427 16.9525 0.281734 17.3414 0.291543 17.4899C0.305405 17.6991 0.378265 17.6667 0.39241 17.8636C0.404495 18.0312 0.392979 18.151 0.461716 18.2802C0.550286 18.4469 0.501168 18.5047 0.537704 18.6775C0.565569 18.809 0.589097 18.769 0.621653 18.8431C0.644187 18.8944 0.638856 18.9769 0.647741 19.0443C0.672691 19.234 0.747399 19.2154 0.76581 19.3981C0.790405 19.6424 0.858431 19.5957 0.887646 19.7755C0.900939 19.8574 0.900299 19.9371 0.92397 19.9872L1.35189 20.994C1.3821 21.0836 1.35388 21.0867 1.40428 21.1535C1.44345 21.2054 1.4121 21.1286 1.46171 21.2227C1.48474 21.2664 1.47913 21.2743 1.4932 21.3263L1.64489 21.6452C1.69863 21.7297 1.68278 21.6583 1.72444 21.7863C1.78798 21.9811 1.84727 21.8895 1.86063 22.1507C1.86589 22.2473 2.06827 22.5111 2.12712 22.6116C2.20432 22.7434 2.16245 22.7281 2.33511 22.9843C2.3998 23.0802 2.3956 23.005 2.39333 23.1027C2.47259 23.1588 2.48958 23.1711 2.53763 23.2625C2.61511 23.41 2.86582 23.7001 2.91543 23.7808C3.02121 23.9531 3.37982 24.3701 3.41117 24.4896C3.45254 24.5136 3.53471 24.597 3.5748 24.6516C3.6225 24.7167 3.59385 24.6932 3.65001 24.7543C3.70083 24.8096 3.70012 24.7556 3.7122 24.8429C3.80177 24.8753 3.92098 25.0319 4.05013 25.1548L4.4504 25.5811C4.57416 25.7016 4.694 25.8102 4.81947 25.939L5.10991 26.2004C5.166 26.2522 5.17502 26.2398 5.19734 26.3107C5.2965 26.2961 5.27852 26.2931 5.36282 26.3733C5.51864 26.5215 5.78712 26.7079 5.94357 26.8461L6.5841 27.301C6.65967 27.3525 6.65199 27.3184 6.65128 27.415L6.77489 27.4273C6.87889 27.5632 7.07785 27.6347 7.20544 27.736C7.3872 27.8802 7.57813 27.8579 7.66457 28.0594C7.76941 28.1276 7.64651 28.1081 7.86843 28.1724C7.96894 28.2015 8.01685 28.2653 8.12476 28.2749L8.22307 28.2773C8.3454 28.4273 8.38826 28.3428 8.52851 28.443C8.62867 28.5146 8.57308 28.4728 8.69413 28.5082C8.80147 28.5396 8.7596 28.5647 8.83843 28.6023L9.17551 28.7427C9.30552 28.769 9.44342 28.8196 9.50853 28.9227L11.0383 29.4368C11.1244 29.4779 11.1622 29.4809 11.2747 29.4761L12.1655 29.6379C12.4688 29.7665 12.7245 29.6715 13.0728 29.7822C13.5055 29.9199 15.9091 29.8581 16.4258 29.8348C16.7606 29.8197 17.8671 29.6239 18.1761 29.5247C18.2827 29.4906 18.3521 29.4882 18.4693 29.4656L19.7859 29.0598C19.9276 28.9834 19.8973 29.0203 20.062 28.9747L20.3071 28.8712C20.4706 28.8166 20.3319 28.8022 20.5289 28.7548C20.6832 28.7177 20.6908 28.6676 20.8075 28.6799C20.8845 28.5682 21.1607 28.5097 21.2198 28.4672C21.3451 28.3772 21.3379 28.4106 21.4425 28.3393C21.5027 28.2983 21.4214 28.333 21.5172 28.2924C21.6055 28.255 21.6205 28.2731 21.7 28.2201C21.7617 28.179 21.9329 28.0732 21.9997 28.0462C22.0854 27.9811 22.1783 27.9487 22.2722 27.8887C22.3607 27.8322 22.307 27.8375 22.3744 27.7975C22.4595 27.7471 22.581 27.7106 22.697 27.6161C22.7012 27.6127 22.7062 27.6072 22.7102 27.6038C22.7833 27.542 22.8231 27.5548 22.8951 27.4855C22.986 27.398 23.0961 27.3432 23.2013 27.2717C23.3247 27.1878 23.2126 27.2364 23.3122 27.1843L23.6294 26.9696C23.6786 26.9345 23.688 26.9527 23.7579 26.8991C23.8314 26.8429 23.9122 26.7755 23.9477 26.6877C23.9434 26.6837 23.9371 26.6784 23.9346 26.6761C23.7689 26.5217 23.5839 26.3995 23.4227 26.2373C23.3176 26.1315 23.1629 26.0422 23.0653 25.921L22.208 25.0727C22.1371 24.9958 22.058 24.9234 22.008 24.8253C21.9476 24.7071 21.8517 24.6301 21.7712 24.5304C21.6749 24.4112 21.631 24.3188 21.5251 24.2216L21.1631 23.7597C21.1191 23.6968 21.1127 23.6472 21.0561 23.5884C20.993 23.5229 21.036 23.594 20.9843 23.5155C20.9555 23.4717 20.986 23.5201 20.9597 23.4674C20.838 23.2246 20.6312 22.9222 20.4811 22.687C20.4782 22.6825 20.4738 22.6766 20.4708 22.6722C20.4678 22.6679 20.4627 22.6626 20.4597 22.6584C20.3706 22.5345 20.337 22.3718 20.2368 22.2524L19.9908 21.8461C19.9877 21.8421 19.9823 21.8369 19.9791 21.8328C19.9084 21.7394 19.8449 21.4848 19.7721 21.3628C19.7293 21.2911 19.6968 21.287 19.6703 21.1993C19.5948 20.9496 19.5284 20.7194 19.4109 20.4937C19.3978 20.4685 19.3829 20.4493 19.3663 20.4146C19.3346 20.3485 19.3174 20.2809 19.295 20.2128C19.2604 20.1078 19.229 20.0879 19.2128 20.0204C19.183 19.8961 19.2099 19.904 19.1614 19.7853C19.1365 19.7244 19.1177 19.6738 19.1017 19.5918L18.7518 18.3115C18.677 18.0456 18.4791 16.7041 18.4645 16.4333C18.4586 16.3236 18.4445 16.2928 18.4397 16.1808C18.4342 16.0497 18.4248 16.0507 18.4076 15.9731C18.3668 15.7889 18.3891 15.1301 18.3892 14.8995C18.3894 14.3459 18.4312 13.6319 18.5118 13.0866C18.5172 13.0508 18.5157 13.0549 18.5242 13.0199C18.5259 13.0129 18.5281 13.0067 18.5299 13.0001C18.5812 12.8117 18.5814 12.6009 18.6212 12.3913C18.6789 12.0875 18.7081 11.7786 18.8115 11.4995C18.8769 11.3231 18.868 11.258 18.9125 11.0781C18.9432 10.9537 18.9787 10.7656 19.0184 10.6253C19.1172 10.2753 19.2523 9.94838 19.3536 9.60012C19.3761 9.52273 19.4047 9.50457 19.4343 9.42939C19.4903 9.28703 19.4877 9.0712 19.5918 8.96086C19.7203 8.82457 19.7538 8.63647 19.8258 8.46045C19.8474 8.40763 19.8941 8.34846 19.9233 8.28514C19.9427 8.24312 19.9518 8.21575 19.9745 8.18794C20.2201 7.88707 20.3957 7.4399 20.6246 7.08357L20.9282 6.58402C20.9629 6.53435 20.9477 6.56987 20.9927 6.49633L21.2181 6.17008C21.3165 6.02172 21.467 5.89136 21.5129 5.82011C21.5987 5.68697 21.4827 5.85556 21.5423 5.77302C21.5648 5.74178 21.5492 5.76301 21.5785 5.72878L22.8867 4.22669C22.9518 4.14758 22.8816 4.19675 22.9604 4.1548L23.2249 3.94154C23.2348 3.93011 23.2515 3.9131 23.2625 3.90252L23.6074 3.59693C23.6878 3.51181 24.0037 3.33143 24.0245 3.22809C24.0264 3.21873 24.0313 3.21601 24.0366 3.21201L24.0265 3.21065L23.9484 3.19164L23.8747 3.18728C23.8256 3.08315 23.829 3.1324 23.7394 3.07151C23.6638 3.02019 23.7038 3.01297 23.6063 2.9771L23.5973 2.91149C23.5649 2.87183 23.529 2.84446 23.4911 2.8203C23.4612 2.80122 23.3781 2.74483 23.3706 2.74133C23.1883 2.72175 23.2571 2.70045 23.1364 2.62334L22.6335 2.29809C22.5951 2.27058 22.5737 2.26279 22.5381 2.24356L22.135 1.99829C22.0206 1.95077 22.0577 1.93076 21.9238 1.88502C21.8395 1.85622 21.7544 1.82484 21.7444 1.72893C21.6485 1.73029 21.6612 1.71128 21.588 1.66597C21.5091 1.61723 21.503 1.63831 21.4255 1.60022C21.3521 1.56413 21.3739 1.55355 21.2855 1.51596L20.8172 1.2847C20.4654 1.16728 20.6614 1.20894 20.5047 1.14862C20.4086 1.11168 20.409 1.12161 20.3243 1.0773C20.2439 1.03521 20.2484 1.04085 20.1507 1.02313C19.969 0.990183 20.0403 0.972316 19.9434 0.93158L19.4837 0.769637C19.3087 0.732617 19.2945 0.696455 19.1397 0.660364C19.0669 0.643355 19.0021 0.636209 18.9317 0.616841C18.8661 0.598832 18.8357 0.571317 18.7681 0.554308L17.6505 0.298457C17.3553 0.283664 17.1839 0.210268 17.0492 0.195974C16.7252 0.161599 16.2659 0.179823 16.0033 0.0912041C15.7648 0.0107327 14.5279 0.061331 14.175 0.0644756C13.6193 0.0695497 13.2465 0.155524 12.8758 0.173962C12.4111 0.197046 12.46 0.248002 12.0699 0.294527C11.9161 0.312822 11.4075 0.4048 11.3046 0.453969C11.0584 0.571674 11.1716 0.499279 10.9684 0.563884L9.91193 0.889129C9.6502 0.953949 9.72072 1.00283 9.60641 0.999974L9.60613 1.00019Z" fill="#FF0015"/>
<path fill-rule="evenodd" clip-rule="evenodd" d="M22 28.0459C22.1806 28.0038 22.1584 27.9827 22.251 27.9443C22.438 27.9048 22.417 27.8214 22.6844 27.6797L23.3609 27.2268C23.4304 27.1725 23.5095 27.1051 23.5787 27.0702L24.0077 26.7472C24.0879 26.6164 24.2736 26.5227 24.3803 26.4161L24.972 25.8801C24.9773 25.8749 24.9926 25.8598 24.9979 25.8546C25.1571 25.699 25.3448 25.5569 25.4789 25.3806C25.484 25.3739 25.5542 25.2896 25.5556 25.2881C25.5633 25.2802 25.5736 25.271 25.5942 25.2519L26.3974 24.3746C26.4346 24.3116 26.4127 24.3277 26.4766 24.2735C26.5865 24.1802 26.6413 24.0646 26.7373 23.9609L26.7594 23.9364C26.7889 23.8936 26.7666 23.9339 26.7894 23.8679C26.8512 23.6897 27.0469 23.4413 27.1631 23.2821C27.1661 23.278 27.1706 23.2722 27.1736 23.2681L27.3304 23.0465C27.4343 22.8574 27.54 22.7773 27.6133 22.5743L28.0529 21.7866C28.1297 21.63 28.2947 21.3033 28.3325 21.1555C28.3643 21.0312 28.4461 20.8777 28.5059 20.7588L28.701 20.3015C28.7477 20.1852 28.6908 20.2774 28.7878 20.2027C28.7971 20.0993 28.8092 19.9605 28.8367 19.8819C28.8626 19.8077 28.8361 19.8804 28.8589 19.8317C28.9495 19.6384 28.9523 19.4267 29.0395 19.2324L29.2493 18.566C29.2507 18.5616 29.2691 18.4916 29.2701 18.4874C29.2939 18.3895 29.3054 18.2798 29.3298 18.1943C29.471 17.7003 29.5453 17.1055 29.5634 16.5833L29.5958 16.1966C29.6721 15.9484 29.6465 13.9576 29.5897 13.7845C29.5058 13.5292 29.5717 13.0806 29.4948 12.7987C29.4178 12.5167 29.4417 12.2244 29.3473 11.9422C29.3428 11.9286 29.3269 11.867 29.3268 11.8667C29.2726 11.6434 29.2377 11.5095 29.205 11.2544L28.3217 8.65817C28.2811 8.54368 28.2618 8.62458 28.1801 8.43512C28.164 8.39782 28.1412 8.36373 28.1152 8.32342L27.7097 7.55265C27.6645 7.47597 27.6324 7.48276 27.6073 7.38299C27.5646 7.21319 27.4521 7.05768 27.3313 6.92425C27.2355 6.81841 27.2611 6.81991 27.1863 6.69534L26.8714 6.25804C26.8355 6.21587 26.7724 6.05914 26.6714 5.92722L26.1779 5.31689C26.1426 5.26908 26.1461 5.25393 26.1083 5.21341L25.9525 5.09041C25.8544 5.01437 25.7114 4.80026 25.551 4.66519L25.0236 4.1189C24.9295 4.01906 24.8028 3.94545 24.6104 3.72976C24.3983 3.49192 24.1223 3.3512 24.0364 3.21191C24.031 3.21592 24.0261 3.21863 24.0242 3.22799C24.0034 3.33133 23.6876 3.51172 23.6072 3.59683L23.2622 3.90242C23.2512 3.91293 23.2345 3.93001 23.2247 3.94145L22.9602 4.1547C22.8813 4.19665 22.9516 4.14748 22.8864 4.2266L21.5782 5.72868C21.5489 5.76292 21.5645 5.74169 21.542 5.77292C21.4823 5.85554 21.5984 5.68687 21.5126 5.82002C21.4667 5.89127 21.3162 6.02162 21.2178 6.16999L20.9924 6.49623C20.9474 6.56985 20.9627 6.53433 20.9279 6.58392L20.6243 7.08348C20.3954 7.43981 20.2198 7.88698 19.9742 8.18785C19.9515 8.21558 19.9424 8.24295 19.923 8.28504C19.8938 8.34836 19.8471 8.40754 19.8255 8.46035C19.7535 8.63637 19.7201 8.82447 19.5915 8.96076C19.4875 9.07111 19.49 9.28686 19.434 9.4293C19.4044 9.50455 19.3759 9.52263 19.3533 9.60003C19.252 9.94829 19.117 10.2752 19.0181 10.6252C18.9785 10.7655 18.943 10.9536 18.9123 11.078C18.8678 11.2579 18.8767 11.323 18.8113 11.4994C18.7078 11.7785 18.6786 12.0874 18.6209 12.3912C18.5811 12.6009 18.5809 12.8117 18.5296 13C18.5278 13.0066 18.5256 13.0128 18.5239 13.0198C18.5154 13.0548 18.5169 13.0507 18.5116 13.0865C18.4309 13.6318 18.3892 14.3458 18.389 14.8994C18.3889 15.13 18.3666 15.7889 18.4073 15.973C18.4245 16.0507 18.4338 16.0496 18.4394 16.1807C18.4441 16.2927 18.4583 16.3235 18.4642 16.4332C18.4789 16.704 18.6768 18.0455 18.7515 18.3114L19.1014 19.5917C19.1174 19.6738 19.1362 19.7243 19.1611 19.7852C19.2096 19.9039 19.1827 19.896 19.2125 20.0203C19.2287 20.0878 19.2601 20.1077 19.2948 20.2127C19.3172 20.2807 19.3343 20.3483 19.366 20.4145C19.3826 20.4492 19.3975 20.4684 19.4106 20.4936C19.5282 20.7193 19.5945 20.9495 19.67 21.1992C19.6965 21.2869 19.729 21.291 19.7718 21.3627C19.8446 21.4846 19.9081 21.7393 19.9789 21.8327C19.9819 21.8368 19.9873 21.8419 19.9905 21.8461L20.2365 22.2523C20.3368 22.3717 20.3704 22.5344 20.4595 22.6583C20.4624 22.6625 20.4676 22.6678 20.4705 22.6721C20.4735 22.6765 20.4779 22.6824 20.4809 22.6869C20.6309 22.9221 20.8378 23.2245 20.9594 23.4673C20.9858 23.52 20.9553 23.4716 20.9841 23.5154C21.0357 23.5939 20.9927 23.5228 21.0558 23.5883C21.1124 23.6471 21.1188 23.6968 21.1628 23.7596L21.5249 24.2215C21.6307 24.3187 21.6746 24.411 21.7709 24.5303C21.8514 24.63 21.9474 24.707 22.0077 24.8252C22.0578 24.9233 22.1368 24.9957 22.2077 25.0726L23.065 25.9209C23.1626 26.0421 23.3174 26.1314 23.4224 26.2372C23.5836 26.3994 23.7686 26.5216 23.9343 26.676C23.9368 26.6783 23.9432 26.6836 23.9474 26.6876C23.912 26.7755 23.8311 26.8428 23.7576 26.899C23.6878 26.9526 23.6784 26.9345 23.6291 26.9695L23.312 27.1842C23.2123 27.2364 23.3245 27.1877 23.201 27.2716C23.0958 27.3431 22.9857 27.3979 22.8948 27.4854C22.8228 27.5547 22.783 27.5419 22.71 27.6037C22.7059 27.6071 22.7009 27.6126 22.6967 27.616C22.5808 27.7105 22.4592 27.747 22.3742 27.7974C22.3068 27.8375 22.3604 27.8322 22.2719 27.8886C22.178 27.9486 22.0852 27.9809 21.9994 28.0461L22 28.0459Z" fill="#FF5F01"/>
<path fill-rule="evenodd" clip-rule="evenodd" d="M0 13.716V16.3304C0.0400909 16.3466 0.0610604 16.3508 0.0874322 16.4708C0.114444 16.5939 0.144014 17.1309 0.184603 17.3294C0.240972 17.605 0.315254 18.0451 0.396217 18.3132C0.453439 18.5028 0.579327 19.0877 0.643444 19.2494C0.662779 19.2982 0.689293 19.3767 0.702799 19.4369C0.786321 19.8086 0.677422 19.4679 0.814044 19.8119C0.847879 19.8971 0.835653 19.9038 0.8584 19.9944C0.879298 20.0777 0.911285 20.0953 0.936733 20.1663C0.965309 20.246 0.952869 20.2716 0.986065 20.345L1.34297 21.1918C1.37475 21.2493 1.40346 21.2653 1.42778 21.3286L1.57094 21.6687C1.61536 21.7566 1.61828 21.6868 1.66811 21.813L1.82783 22.1174C1.83238 22.123 1.83999 22.1297 1.8439 22.1341C1.84788 22.1387 1.8547 22.1457 1.86088 22.1506C1.84752 21.8894 1.78817 21.9811 1.72469 21.7862C1.68296 21.6582 1.69889 21.7296 1.64515 21.6451L1.49346 21.3262C1.47938 21.2743 1.48493 21.2663 1.46197 21.2227C1.41242 21.1285 1.4437 21.2053 1.40453 21.1534C1.35413 21.0866 1.38235 21.0835 1.35214 20.9939L0.924223 19.9871C0.900552 19.937 0.901192 19.8574 0.887899 19.7754C0.858684 19.5955 0.790657 19.6423 0.766063 19.398C0.747652 19.2152 0.672944 19.2339 0.647994 19.0442C0.639108 18.9768 0.644439 18.8943 0.621906 18.843C0.58935 18.7689 0.565821 18.8089 0.537957 18.6774C0.50142 18.5046 0.550539 18.4467 0.461969 18.2802C0.393232 18.1509 0.404747 18.0312 0.392663 17.8635C0.378446 17.6666 0.305657 17.699 0.291796 17.4898C0.281987 17.3412 0.274523 16.9524 0.229883 16.8509C0.211899 16.81 0.18773 16.8139 0.173372 16.6596C0.142451 16.3261 0.156454 14.6598 0.158515 14.2712C0.160079 13.9807 0.146644 13.6025 0.175007 13.3214C0.194554 13.1275 0.253553 13.1124 0.263292 12.94C0.272319 12.7803 0.281347 12.6484 0.291441 12.4859C0.303454 12.2923 0.363164 12.2277 0.387616 12.1022C0.417684 11.9481 0.390886 11.8167 0.454221 11.6861C0.54734 11.494 0.49879 11.5214 0.537815 11.2804C0.560988 11.1374 0.621693 11.1163 0.648349 10.9252C0.683819 10.6708 0.749927 10.8255 0.764285 10.5771C0.781417 10.2813 0.86565 10.4267 0.887828 10.2245C0.913062 9.99489 0.958129 10.0148 0.999215 9.84166C1.05004 9.62719 1.11238 9.66736 1.12503 9.45996C0.942207 9.59546 1.01379 9.69423 0.886264 9.93436C0.829824 10.0407 0.858186 10.1092 0.812835 10.2219L0.428915 11.4864C0.351364 11.6576 0.366149 11.8617 0.320727 12.0695C0.316888 12.087 0.290517 12.1523 0.276513 12.185C0.229456 12.2948 0.255757 12.3843 0.188015 12.572C0.137617 12.7117 0.112738 13.2634 0.0978104 13.4924C0.0841624 13.7008 0.0638326 13.6984 0.000213249 13.7161L0 13.716Z" fill="#F94759"/>
<path fill-rule="evenodd" clip-rule="evenodd" d="M26.3752 1.7244C26.5822 1.64014 26.9386 1.44475 27.0945 1.39429C27.2481 1.34462 27.1491 1.36585 27.2134 1.31818C27.2805 1.26851 27.2756 1.30203 27.3569 1.26115C27.4974 1.19068 27.3468 1.21956 27.4882 1.17789C27.5406 1.16245 27.6166 1.16281 27.6713 1.14716C27.7877 1.11386 27.7128 1.11493 27.7953 1.07434C27.8409 1.0519 27.9078 1.04611 27.9545 1.02974C27.9967 1.01488 28.0637 0.97464 28.1031 0.95713C28.2971 0.87087 28.8643 0.700208 29.0999 0.680697C29.2541 0.667905 29.2547 0.613019 29.4016 0.56828L30.3751 0.325151C30.5219 0.311644 30.6216 0.293706 30.7347 0.261689C30.9668 0.196154 31.2316 0.205158 31.4755 0.155203C31.9572 0.0565793 34.2538 0.0169153 34.8335 0.162779C34.8947 0.178144 34.9567 0.175714 35.022 0.18136C35.1258 0.190293 35.5073 0.196011 35.5872 0.236246C35.7676 0.32708 35.9078 0.289775 36.132 0.344375C36.2317 0.368674 36.3424 0.410768 36.4354 0.433423C36.5944 0.472229 36.627 0.470871 36.7696 0.525972C36.8947 0.574284 37.0643 0.536621 37.2115 0.613948C37.2237 0.62038 37.2683 0.647323 37.2719 0.648895C37.3469 0.681698 37.4117 0.678911 37.4998 0.681626C37.4596 0.627598 37.4028 0.573212 37.3299 0.548484C37.254 0.522685 37.1397 0.51854 37.0544 0.501245C36.8804 0.46594 37.0965 0.446859 36.5864 0.378822C36.4393 0.359169 36.4743 0.348735 36.3819 0.314931C36.2499 0.266691 35.9617 0.268978 35.8678 0.223883C35.7886 0.185862 35.8087 0.149843 35.6695 0.141339C35.5835 0.13605 35.2236 0.174785 35.0303 0.0916694C34.8982 0.0348534 34.9519 0.0255628 34.6752 0.0131276C34.2808 -0.00466763 31.8943 -0.0100991 31.4766 0.0342102C31.3779 0.0447158 31.348 0.071087 31.2537 0.10439C30.9863 0.199012 30.9168 0.0650838 30.5321 0.208303L29.6596 0.386541C29.2506 0.481949 29.5087 0.457221 29.3999 0.4976C29.3155 0.500244 29.2282 0.511536 29.1494 0.524185L28.7598 0.63503C28.6581 0.667047 28.6455 0.691489 28.5668 0.717932L28.2062 0.845428C28.0238 0.912464 28.1718 0.81091 27.9114 0.94005C27.8217 0.984502 27.7397 0.979213 27.6291 1.05375C27.5366 1.11614 27.5553 1.09578 27.447 1.12601C27.28 1.17267 27.4216 1.16467 27.2887 1.21484C27.1552 1.26522 27.1903 1.19025 27.0762 1.27659C27.018 1.32061 26.9839 1.34498 26.9254 1.36842C26.8925 1.38157 26.8688 1.38529 26.8337 1.40751C26.8282 1.41101 26.8224 1.41559 26.8173 1.41931C26.8124 1.42281 26.8073 1.42824 26.8028 1.43188C26.7985 1.43524 26.7939 1.4411 26.7898 1.44432C26.686 1.52786 26.679 1.45568 26.5673 1.54494C26.4877 1.60848 26.5052 1.61977 26.375 1.62856V1.72447L26.3752 1.7244Z" fill="#FAE9B7"/>
<path fill-rule="evenodd" clip-rule="evenodd" d="M11.2744 29.4757C11.3451 29.5611 11.4574 29.5825 11.5703 29.6002C11.6697 29.6157 11.7797 29.6289 11.8618 29.6511C12.0761 29.7093 12.1976 29.7276 12.4341 29.7667C12.561 29.7876 12.5852 29.838 12.7239 29.85C13.0882 29.8816 13.3269 29.8761 13.6695 29.9529C13.8982 30.0042 14.7686 29.9955 15.0492 29.9934C15.2732 29.9917 16.0201 30.0306 16.2083 29.9361C16.4515 29.8138 16.7562 29.9257 17.0302 29.8527C17.1114 29.831 17.1934 29.7816 17.2826 29.7665C17.3895 29.7483 17.5035 29.7487 17.6096 29.7352C17.8045 29.7104 17.7602 29.6844 17.892 29.6524C17.99 29.6286 18.1146 29.6328 18.2168 29.6145C18.3317 29.594 18.3614 29.5454 18.4765 29.526C18.5909 29.5067 18.7197 29.5416 18.8009 29.4775C18.9234 29.3807 18.8022 29.4245 19.0628 29.3849L20.3396 28.917C20.4035 28.8992 20.4251 28.9059 20.4798 28.8796C20.5325 28.8543 20.5242 28.8402 20.5828 28.8135C20.7265 28.7484 20.7729 28.8168 20.8072 28.6796C20.6904 28.6674 20.6829 28.7175 20.5286 28.7546C20.3315 28.802 20.4703 28.8163 20.3068 28.8709L20.0616 28.9744C19.897 29.02 19.9273 28.9831 19.7856 29.0596L18.4689 29.4654C18.3517 29.4879 18.2824 29.4903 18.1758 29.5245C17.8667 29.6236 16.7602 29.8194 16.4255 29.8346C15.9087 29.8579 13.5052 29.9197 13.0725 29.782C12.7242 29.6712 12.4685 29.7663 12.1652 29.6376L11.2744 29.4758V29.4757Z" fill="#FBA5AB"/>
<path fill-rule="evenodd" clip-rule="evenodd" d="M46.4997 8.39221C46.4885 8.32739 46.4784 8.29359 46.4599 8.24028L46.1539 7.60622C46.1242 7.56184 46.1232 7.54476 46.1043 7.50481C46.0424 7.37367 46.0884 7.51968 45.9817 7.29956L45.7413 6.91114C45.6975 6.8178 45.6685 6.81201 45.6228 6.73848L45.5195 6.58289C45.5162 6.57646 45.5094 6.55645 45.507 6.55045C45.4636 6.44096 45.4542 6.49828 45.3864 6.39258L44.7453 5.52826C44.6119 5.38104 44.471 5.14756 44.2227 4.91779C44.0448 4.75306 44.133 4.8236 44.0766 4.7412C44.0313 4.67488 44.1888 4.80902 43.9956 4.67309C43.914 4.61563 43.8948 4.56732 43.8399 4.50464L43.2078 3.8846C43.0584 3.73166 42.5754 3.30715 42.363 3.17529L42.1569 3.00442C42.1244 2.97304 42.1562 2.99012 42.1201 2.96554C42.0555 2.92159 42.0867 2.93309 41.9922 2.94153C42.0228 3.07252 41.9768 2.96225 42.0535 3.03329C42.0896 3.06666 42.1016 3.06924 42.1374 3.09954C42.1962 3.14928 42.2485 3.19588 42.2949 3.24326C42.3329 3.28214 42.3337 3.29185 42.3692 3.31415C42.5514 3.42864 42.751 3.55221 42.8998 3.71329L43.2195 4.01981C43.2464 4.04761 43.2811 4.07306 43.3143 4.10293L44.4043 5.24075C44.4077 5.24504 44.412 5.25111 44.4154 5.25533L45.0646 6.06069C45.2302 6.27795 45.1796 6.30975 45.3096 6.44325C45.3501 6.48484 45.4155 6.56746 45.4418 6.61484C45.4624 6.65186 45.4682 6.68116 45.4896 6.71832L46.041 7.56849C46.104 7.67769 46.0507 7.67605 46.135 7.77453C46.3028 7.97063 46.3714 8.31803 46.4996 8.392L46.4997 8.39221Z" fill="#FAE9B7"/>
<path fill-rule="evenodd" clip-rule="evenodd" d="M46.9153 20.6429C47.0261 20.5905 46.9231 20.6509 46.9954 20.5728C47.1134 20.4453 47.0429 20.4213 47.1433 20.2256C47.1971 20.1207 47.2144 20.0197 47.2247 19.9013C47.1736 19.8674 47.2188 20.0161 47.2864 19.867C47.3134 19.8074 47.3067 19.7287 47.3314 19.6579C47.3614 19.5717 47.4049 19.5431 47.4222 19.5025C47.4459 19.4469 47.4374 19.3492 47.4499 19.2764C47.4788 19.108 47.512 19.2117 47.5367 19.0274C47.5393 19.0084 47.55 18.9491 47.555 18.9277L47.6092 18.7549C47.6764 18.6188 47.6505 18.7274 47.6692 18.547C47.6825 18.4193 47.6787 18.3269 47.7271 18.2251C47.8146 18.0409 47.7835 17.9353 47.8289 17.6968C47.8436 17.6195 47.8783 17.5687 47.8899 17.5067L47.9295 17.0351C47.9393 16.817 47.9701 16.8635 47.9998 16.8433V16.2021C47.9189 16.2386 47.9667 16.1721 47.9327 16.3182C47.857 16.6432 47.8988 17.1523 47.8062 17.4257L47.7869 17.4845C47.7865 17.486 47.7734 17.5417 47.7727 17.5444C47.7589 17.6045 47.755 17.6205 47.7471 17.6898C47.733 17.8132 47.7262 17.8797 47.6944 17.9875L47.5063 18.835C47.4824 18.95 47.4577 18.9866 47.4194 19.0931C47.3862 19.1856 47.3833 19.2922 47.3498 19.3752C47.3285 19.428 47.3133 19.4344 47.2916 19.49C47.2534 19.588 47.171 19.9435 47.082 20.1095C47.0206 20.2239 47.0445 20.2927 46.9974 20.3783C46.9247 20.5103 46.9263 20.419 46.915 20.643L46.9153 20.6429Z" fill="#FAE9B7"/>
<path fill-rule="evenodd" clip-rule="evenodd" d="M46.4244 23.8385L46.363 23.6489C46.483 23.6416 46.6626 23.63 46.7455 23.671C46.7331 23.7357 46.7287 23.7267 46.7059 23.8052C46.7945 23.8288 46.7452 23.8245 46.8271 23.8417L46.8351 24.1591C46.9027 24.2959 46.9439 24.2993 47.0246 24.2987C47.0586 24.2455 47.0584 24.2035 47.0745 24.1234H47.1526C47.1454 24.0727 47.1184 23.946 47.0511 24.0198C47.0075 24.0676 47.0546 24.1281 46.9746 24.2084C46.8823 24.144 46.9013 24.0835 46.9139 23.9603C46.9232 23.8691 46.9172 23.7558 46.9608 23.6893C47.0441 23.673 47.0668 23.7115 47.1264 23.7465L47.1631 23.9367L47.2997 23.94C47.3743 23.8049 47.3307 23.6804 47.5297 23.6911C47.5746 23.7985 47.5812 24.0847 47.5388 24.1865C47.3563 24.1514 47.4962 24.1501 47.4167 24.0077C47.3012 23.9986 47.354 24.0106 47.3298 24.0476C47.2925 24.1044 47.3343 24.0965 47.2496 24.1664C47.1836 24.1506 47.1986 24.1584 47.1497 24.1291C47.1497 24.266 47.1398 24.1486 47.1996 24.1988L47.39 24.1736C47.449 24.3946 47.6172 24.2607 47.6841 24.224C47.6879 24.104 47.6899 23.7583 47.6343 23.66C47.6341 23.6597 47.6666 23.5583 47.4246 23.5668C47.3449 23.7338 47.3745 23.6374 47.2666 23.7631L47.2391 23.797C47.2354 23.8015 47.2298 23.8097 47.2245 23.8155C47.2199 23.809 47.2138 23.7911 47.2115 23.7954L47.1115 23.6351C47.0459 23.5767 46.9825 23.5932 46.8738 23.5807C46.6972 23.5605 46.8819 23.5365 46.626 23.5392C46.5239 23.5403 46.4264 23.5347 46.3245 23.5415C46.2652 23.6509 46.187 23.6564 46.2745 23.8286L46.4244 23.8385V23.8385Z" fill="#FAE9B7"/>
<path fill-rule="evenodd" clip-rule="evenodd" d="M28.6168 29.2344C28.5463 29.0521 28.4345 29.1573 28.2534 29.0861C28.1684 29.0527 28.2035 29.0385 28.0966 28.9977C28.031 28.9727 27.9795 28.9777 27.9253 28.9461C27.8761 28.9173 27.9266 28.9028 27.7528 28.8645C27.5839 28.8274 27.6666 28.8322 27.551 28.7709C27.5442 28.7673 27.5238 28.7583 27.5166 28.7554C27.4717 28.7375 27.4658 28.7413 27.4223 28.7272C27.3235 28.6953 27.3583 28.6965 27.2635 28.6556L26.2985 28.1951C26.2372 28.1579 26.2055 28.1561 26.1497 28.1178C26.092 28.0782 26.1088 28.0645 26.0248 28.041C25.8564 28.0153 25.8108 27.9044 25.6173 27.8513L25.5961 27.7683C25.517 27.7734 25.5468 27.7642 25.5034 27.7427C25.4125 27.6976 25.4934 27.7167 25.375 27.6855C25.4171 27.8013 25.62 27.9312 25.6861 27.9563L26.4294 28.3668C26.6857 28.5732 26.6335 28.3498 26.7498 28.6017C26.8522 28.5737 26.9797 28.6285 27.1046 28.6738C27.2901 28.7409 27.1607 28.7336 27.3097 28.7877C27.4017 28.8212 27.4189 28.7985 27.4927 28.8577C27.4956 28.86 27.5398 28.9056 27.5449 28.911L27.5826 28.9579C27.8232 28.9499 27.7175 28.976 28.0023 29.0436C28.1216 29.0719 28.0438 29.047 28.1185 29.1067C28.206 29.1768 28.2443 29.1495 28.3668 29.185C28.5174 29.2287 28.4314 29.2639 28.6169 29.2344H28.6168Z" fill="#FAE9B7"/>
<path fill-rule="evenodd" clip-rule="evenodd" d="M44.5177 24.6486C44.6233 24.637 44.6651 24.5165 44.7671 24.392L45.2567 23.8041C45.3468 23.6999 45.1992 23.9585 45.3043 23.7083C45.3861 23.5134 45.5816 23.324 45.7012 23.1233L46.009 22.5975C46.0508 22.5125 46.0737 22.5657 46.2289 22.2148C46.3151 22.0198 46.2825 22.1913 46.3584 21.9791C46.3918 21.8858 46.5566 21.7428 46.5586 21.4951C46.4365 21.5597 46.471 21.599 46.4124 21.702C46.3306 21.8459 46.361 21.6781 46.2998 21.9091C46.2681 22.029 46.2404 21.997 46.1925 22.1377C46.1364 22.3025 46.141 22.1633 46.0675 22.3329L45.8505 22.694C45.8496 22.6955 45.8296 22.7396 45.8265 22.7459L45.3707 23.4727C45.3678 23.4775 45.3645 23.4841 45.3615 23.4888L44.627 24.4565C44.5445 24.5786 44.5184 24.5168 44.5176 24.6485L44.5177 24.6486Z" fill="#FAE9B7"/>
<path fill-rule="evenodd" clip-rule="evenodd" d="M36.9336 29.4842C37.1358 29.5013 37.0615 29.4763 37.1832 29.4348C37.269 29.4055 37.3351 29.4133 37.414 29.3885C37.6363 29.3183 37.4235 29.3597 37.8091 29.2609C37.9565 29.2231 37.8694 29.2181 38.0057 29.1806C38.3568 29.0842 38.2367 29.0597 38.3992 29.0299C38.7678 28.9624 38.4385 28.9713 38.6979 28.9223C38.7631 28.91 38.7371 28.9263 38.804 28.9027C38.8941 28.8709 38.8838 28.8392 38.989 28.8057C39.1655 28.7494 39.0514 28.8199 39.1664 28.7223L39.5893 28.5444C39.5935 28.5432 39.601 28.5419 39.605 28.5407C39.6089 28.5397 39.6163 28.5386 39.62 28.5375L39.6982 28.4961C39.8711 28.3594 39.9501 28.4393 40.0175 28.2617C39.8403 28.2732 39.9128 28.2787 39.7997 28.345C39.7255 28.3886 39.6592 28.3842 39.5876 28.4149C39.5214 28.4433 39.519 28.4793 39.4171 28.5144C39.3177 28.5487 39.3295 28.5389 39.2392 28.5882L38.303 28.9801C38.1937 29.0094 38.191 29.0464 38.1308 29.075C38.0609 29.1083 37.99 29.1017 37.9025 29.125C37.8202 29.147 37.8248 29.1707 37.7273 29.1993C37.6569 29.2199 37.5787 29.2263 37.5011 29.2507C37.4249 29.2746 37.4099 29.3036 37.3322 29.3271C37.1636 29.378 37.0721 29.3337 36.9612 29.4481L36.9336 29.4842Z" fill="#FAE9B7"/>
<path fill-rule="evenodd" clip-rule="evenodd" d="M1.79211 7.87895C1.84642 7.83507 1.79837 7.88596 1.8563 7.81578L3.2582 5.76283C3.31528 5.67678 3.26993 5.68035 3.36547 5.61618L3.37677 5.52441C3.37009 5.52949 3.36177 5.53528 3.35651 5.53942C3.24953 5.62454 3.29019 5.59867 3.24413 5.67421C3.20091 5.74503 3.18947 5.71866 3.11426 5.79492C2.9824 5.92849 2.89767 6.09686 2.80277 6.20792L2.40037 6.78065C2.34557 6.90522 2.36391 6.85269 2.30363 6.93938L2.12812 7.23361C2.04809 7.39484 1.7855 7.72694 1.79211 7.87888V7.87895Z" fill="#FBA5AB"/>
<path fill-rule="evenodd" clip-rule="evenodd" d="M5.67488 3.23726C5.87398 3.18401 5.83723 3.16129 5.95779 3.06938L7.72719 1.8904V1.83301C7.51245 1.89461 7.72477 1.85073 7.43724 1.99095C7.38521 2.01632 7.34874 2.03833 7.28782 2.06971L7.01479 2.22422C6.94627 2.26788 6.98679 2.26074 6.91151 2.31491C6.83296 2.37137 6.71802 2.42575 6.64779 2.48078C6.41236 2.66524 5.85393 3.01342 5.74724 3.13048L5.6748 3.23718L5.67488 3.23726Z" fill="#FBA5AB"/>
<path fill-rule="evenodd" clip-rule="evenodd" d="M24.3926 2.94647C24.486 2.92839 24.5246 2.89223 24.647 2.80626L25.2059 2.4134C25.2102 2.41026 25.2159 2.40561 25.2203 2.40254L26.2693 1.72754C26.1087 1.73097 25.7724 1.95094 25.6176 2.05114C25.5779 2.0768 25.5942 2.06622 25.5463 2.0848L25.3955 2.17921C25.1732 2.34573 25.1357 2.33079 25.0576 2.39146C25.0082 2.42984 24.9949 2.43892 24.9429 2.47558L24.6338 2.71607C24.5519 2.76974 24.5082 2.80647 24.3931 2.83055L24.3926 2.94647V2.94647Z" fill="#FAE9B7"/>
<path fill-rule="evenodd" clip-rule="evenodd" d="M5.19721 26.3106C5.17481 26.2397 5.16579 26.2521 5.10977 26.2003L4.81933 25.9389C4.69387 25.8101 4.57402 25.7014 4.45026 25.581L4.04999 25.1547C3.92084 25.0318 3.80163 24.8752 3.71207 24.8428C3.69792 24.9919 3.75628 24.9044 3.85061 25.0763C3.90726 25.1795 3.84215 25.0937 3.93249 25.1716C4.0613 25.2827 4.07445 25.344 4.13075 25.397L4.17183 25.4297C4.17603 25.4333 4.18193 25.4378 4.18612 25.4415C4.2867 25.5302 4.2845 25.5691 4.3951 25.6591L4.47649 25.7294C4.52177 25.7699 4.533 25.7845 4.56656 25.8178L4.75429 26.0025C4.85359 26.0831 5.04253 26.2895 5.17567 26.3099C5.18057 26.3107 5.1901 26.3115 5.19728 26.3108L5.19721 26.3106Z" fill="#FBA5AB"/>
<path fill-rule="evenodd" clip-rule="evenodd" d="M47.4747 23.9241C47.3673 23.8872 47.3576 23.791 47.4747 23.7395C47.5325 23.825 47.5098 23.8628 47.4747 23.9241ZM46.9657 23.7357C47.0063 23.7387 47.1482 23.717 47.0747 23.9031L46.9996 23.9005C46.9477 23.8166 46.9631 23.8393 46.9656 23.7357L46.9657 23.7357ZM47.1526 24.1235L47.1498 24.1292C47.1986 24.1585 47.1837 24.1506 47.2497 24.1665C47.3344 24.0966 47.2926 24.1045 47.3299 24.0477C47.3541 24.0107 47.3012 23.9987 47.4168 24.0078C47.4963 24.1502 47.3564 24.1515 47.5389 24.1866C47.5813 24.0849 47.5747 23.7986 47.5298 23.6912C47.3307 23.6805 47.3744 23.805 47.2998 23.9401L47.1632 23.9368L47.1265 23.7466C47.067 23.7116 47.0442 23.6731 46.9609 23.6894C46.9173 23.7559 46.9233 23.8692 46.914 23.9604C46.9014 24.0836 46.8823 24.1441 46.9747 24.2085C47.0547 24.1282 47.0076 24.0677 47.0512 24.0199C47.1185 23.9461 47.1455 24.0728 47.1526 24.1235H47.1526Z" fill="#F9B852"/>
<path fill-rule="evenodd" clip-rule="evenodd" d="M7.72663 1.83251V1.8899C7.96547 1.86396 7.84932 1.84738 7.97507 1.78084C8.0239 1.75497 8.05625 1.76169 8.10686 1.73539C8.17524 1.69994 8.12349 1.70623 8.20758 1.66257C8.24668 1.64227 8.27689 1.64048 8.31662 1.61969C8.46362 1.54257 8.28712 1.58374 8.57167 1.51735C8.70879 1.48533 8.56023 1.5325 8.67915 1.45446C8.79139 1.38077 8.83702 1.44445 8.92644 1.37613C8.98381 1.33232 8.93256 1.34404 9.02689 1.29937L9.54394 1.07075C9.60358 1.02165 9.56179 1.07211 9.60579 1C9.48694 1.01465 9.20992 1.12885 9.10899 1.17917C8.98679 1.2402 8.97357 1.21905 8.85586 1.26107C8.72208 1.30881 8.9376 1.27722 8.63173 1.38127C8.55141 1.40857 8.56876 1.42651 8.40633 1.48426L7.84037 1.77048C7.73516 1.84152 7.84911 1.81451 7.72656 1.83251H7.72663Z" fill="#FA7986"/>
<path fill-rule="evenodd" clip-rule="evenodd" d="M46.4247 23.8385C46.4814 23.8951 46.4511 24.0631 46.4636 24.2368L46.6433 24.244C46.6658 24.0573 46.6633 23.8785 46.7062 23.8052C46.7289 23.7268 46.7333 23.7357 46.7457 23.671C46.6629 23.63 46.4833 23.6416 46.3633 23.6489L46.4247 23.8385V23.8385Z" fill="#F9B852"/>
<path fill-rule="evenodd" clip-rule="evenodd" d="M6.6512 27.4152C6.65184 27.3186 6.65952 27.3526 6.58403 27.3011L5.9435 26.8462C5.78704 26.7081 5.51849 26.5216 5.36275 26.3734C5.27844 26.2932 5.29643 26.2962 5.19727 26.3109C5.24383 26.42 5.19343 26.3099 5.26899 26.3932L5.37874 26.5068C5.60265 26.6963 5.71056 26.7326 5.88315 26.9065L6.53661 27.3574C6.63329 27.4178 6.54706 27.398 6.6512 27.4153V27.4152Z" fill="#F94759"/>
<path fill-rule="evenodd" clip-rule="evenodd" d="M23.3703 2.74189C23.3262 2.66813 23.3752 2.72945 23.3116 2.66999C23.2067 2.57194 22.5411 2.15172 22.3891 2.06753C22.2628 1.99756 21.8834 1.75715 21.7441 1.72949C21.7542 1.8254 21.8392 1.8567 21.9236 1.88558C22.0574 1.93131 22.0204 1.9514 22.1347 1.99885L22.5378 2.24412C22.5735 2.26335 22.5948 2.27114 22.6332 2.29865L23.1362 2.6239C23.2569 2.70101 23.188 2.72231 23.3703 2.74189V2.74189Z" fill="#FA7986"/>
<path fill-rule="evenodd" clip-rule="evenodd" d="M40.0333 28.2735L40.143 28.2843C40.2072 28.1682 40.4289 28.1135 40.551 28.023C40.6791 27.9281 40.5117 28.0423 40.5931 27.9897C40.6903 27.9268 40.6979 27.9681 40.7892 27.8789L41.5697 27.341C41.614 27.2836 41.5931 27.3509 41.6037 27.2773C41.4944 27.2881 41.4653 27.3372 41.3928 27.3863L41.2171 27.5333C41.2131 27.5364 41.207 27.5406 41.2029 27.5435L40.9097 27.7032C40.7477 27.8066 40.7655 27.7657 40.7013 27.8213L40.3032 28.0734C40.1154 28.2131 40.1189 28.1 40.0332 28.2736L40.0333 28.2735Z" fill="#FAE9B7"/>
<path fill-rule="evenodd" clip-rule="evenodd" d="M21.9998 28.046C21.933 28.073 21.7618 28.1788 21.7001 28.2199C21.6206 28.2729 21.6056 28.2548 21.5174 28.2922C21.4216 28.3328 21.5029 28.2981 21.4427 28.3391C21.3381 28.4104 21.3452 28.377 21.2199 28.467C21.1609 28.5095 20.8846 28.568 20.8076 28.6797C20.9626 28.7113 21.051 28.5941 21.2075 28.5497C21.3895 28.498 21.2768 28.5216 21.3807 28.4546C21.4525 28.4083 21.5128 28.4295 21.5873 28.3807L21.8267 28.2464C21.8312 28.2434 21.8367 28.2385 21.8413 28.2354C21.846 28.2323 21.8517 28.2277 21.8565 28.2247C21.8615 28.2216 21.8674 28.2175 21.8726 28.2146C21.874 28.2138 21.9206 28.1928 21.9261 28.1903C22.0367 28.1401 21.9956 28.131 22.0881 28.0861C22.218 28.0229 22.2148 28.0813 22.2507 27.9443C22.1582 27.9829 22.1804 28.0038 21.9998 28.046L21.9998 28.046Z" fill="#FBA5AB"/>
<path fill-rule="evenodd" clip-rule="evenodd" d="M9.50877 28.9223C9.44366 28.8191 9.30576 28.7685 9.17575 28.7422L8.83867 28.6019C8.75984 28.5642 8.80171 28.5391 8.69438 28.5078C8.57332 28.4724 8.62891 28.5141 8.52875 28.4426C8.3885 28.3424 8.34564 28.4268 8.22331 28.2768L8.125 28.2744C8.15294 28.3329 8.1454 28.3198 8.19132 28.3594C8.21869 28.3829 8.24421 28.3946 8.26717 28.406L8.42085 28.5003C8.50124 28.5613 8.52022 28.5205 8.61163 28.5629C8.69565 28.6018 8.64071 28.6235 8.75942 28.6558C9.06614 28.7392 8.80271 28.691 9.12798 28.7944C9.28728 28.8451 9.12898 28.8628 9.50892 28.9223H9.50877Z" fill="#FA7986"/>
<path fill-rule="evenodd" clip-rule="evenodd" d="M3.41139 24.4895C3.38005 24.37 3.02143 23.953 2.91566 23.7807C2.86604 23.6999 2.61533 23.4098 2.53785 23.2624C2.4898 23.1709 2.47281 23.1586 2.39355 23.1025L2.3969 23.1987C2.45959 23.2438 2.6046 23.472 2.63005 23.519L3.17163 24.2517C3.33114 24.4165 3.25203 24.4648 3.41139 24.4896V24.4895Z" fill="#FBA5AB"/>
<path fill-rule="evenodd" clip-rule="evenodd" d="M43.6094 25.6176C43.7223 25.6342 43.6643 25.6187 43.8755 25.4321C43.9127 25.3993 43.9399 25.3572 43.9828 25.3133C44.0109 25.2846 44.0196 25.2755 44.0458 25.2495C44.2522 25.0448 44.2668 24.9883 44.4362 24.8133C44.4945 24.7531 44.5219 24.7446 44.5184 24.6484C44.4211 24.6577 44.4669 24.6581 44.3754 24.7516C44.3248 24.8032 44.3096 24.8265 44.2702 24.8737L43.6431 25.5496C43.612 25.5962 43.6291 25.5646 43.6094 25.6175V25.6176Z" fill="#FAE9B7"/>
<path fill-rule="evenodd" clip-rule="evenodd" d="M41.9918 2.94064C41.9861 2.81457 41.9932 2.87439 41.8918 2.814C41.7111 2.70651 41.7247 2.66084 41.6468 2.61239C41.5245 2.53628 41.6012 2.63469 41.4247 2.47975C41.405 2.46245 41.3902 2.45352 41.3687 2.43923C41.2771 2.37862 41.039 2.2106 40.9355 2.22118L40.9685 2.25627C40.9726 2.26056 40.9919 2.28057 40.9972 2.28586C41.0988 2.38827 41.0843 2.34074 41.2024 2.42965L41.833 2.87524C41.9004 2.91891 41.8869 2.94478 41.9919 2.94064H41.9918Z" fill="#FAE9B7"/>
<path fill-rule="evenodd" clip-rule="evenodd" d="M42.71 26.4475C42.7922 26.4588 42.8752 26.3885 42.9269 26.3391C42.9307 26.3355 42.9356 26.3299 42.9391 26.3262L43.2516 26.061C43.2567 26.0558 43.2704 26.0397 43.2754 26.0345C43.4291 25.877 43.4065 25.9943 43.4895 25.8316L43.5195 25.7811C43.5793 25.7104 43.6143 25.761 43.6094 25.6182C43.4918 25.6355 43.5936 25.6225 43.4854 25.7164L43.3389 25.8529C43.3351 25.8576 43.3307 25.8637 43.3271 25.8685C43.3236 25.8734 43.3199 25.8799 43.3166 25.8848C43.2706 25.9522 43.3206 25.9161 43.2262 25.9785C42.9434 26.1657 43.0315 26.1456 42.8145 26.3243C42.7937 26.3414 42.7741 26.3518 42.7577 26.3698C42.7191 26.4122 42.7387 26.3809 42.71 26.4476L42.71 26.4475Z" fill="#FAE9B7"/>
<path fill-rule="evenodd" clip-rule="evenodd" d="M7.66466 28.0594C7.57822 27.8579 7.38729 27.8802 7.20553 27.736C7.07794 27.6347 6.8789 27.5632 6.77498 27.4273L6.65137 27.415C6.6744 27.477 6.63779 27.4282 6.68968 27.4806C6.69252 27.4835 6.73631 27.5142 6.7469 27.5215C6.90307 27.6279 7.51325 28.0302 7.66473 28.0594H7.66466Z" fill="#FA7986"/>
<path fill-rule="evenodd" clip-rule="evenodd" d="M41.6036 27.2762C41.6895 27.2409 41.6442 27.2446 41.7128 27.2064C41.82 27.1465 41.7967 27.2037 41.8766 27.1177C41.9602 27.0276 42.3047 26.8214 42.3521 26.7665L42.3741 26.7369C42.4066 26.6866 42.3852 26.738 42.4129 26.6582C42.2362 26.6789 42.3147 26.718 42.1553 26.8164C42.0102 26.906 41.7172 27.149 41.606 27.1946L41.6035 27.2762H41.6036Z" fill="#F9B852"/>
<path fill-rule="evenodd" clip-rule="evenodd" d="M3.69238 5.17013C3.77775 5.12504 3.7479 5.1394 3.8069 5.07716C3.8482 5.03363 3.85666 5.01963 3.88793 4.98111L4.36376 4.48063C4.41359 4.4008 4.3654 4.48999 4.40144 4.39258C4.31457 4.41731 4.18613 4.57132 4.09706 4.66651C3.98624 4.78493 3.69558 5.03063 3.69238 5.17006V5.17013Z" fill="#FA7986"/>
<path fill-rule="evenodd" clip-rule="evenodd" d="M23.9476 3.19121C23.9078 3.10145 23.932 3.11881 23.831 3.05071C23.6546 2.93186 23.8523 2.97195 23.5967 2.91113L23.6056 2.97674C23.7031 3.01262 23.6631 3.01983 23.7387 3.07115C23.8283 3.13204 23.8249 3.0828 23.874 3.18692L23.9477 3.19128L23.9476 3.19121Z" fill="#FA7986"/>
<path fill-rule="evenodd" clip-rule="evenodd" d="M26.0244 28.0413C25.8997 27.9067 25.7802 27.9029 25.6885 27.7832L25.5957 27.7686L25.617 27.8516C25.8104 27.9046 25.856 28.0155 26.0244 28.0413V28.0413Z" fill="#F9B852"/>
<path fill-rule="evenodd" clip-rule="evenodd" d="M46.9999 23.9011L47.075 23.9037C47.1486 23.7175 47.0066 23.7393 46.966 23.7363C46.9634 23.84 46.9481 23.8172 47 23.9011L46.9999 23.9011Z" fill="#FE9F00"/>
<path fill-rule="evenodd" clip-rule="evenodd" d="M5.22559 3.60076C5.30264 3.5964 5.32468 3.57682 5.3718 3.53544C5.38787 3.52129 5.39796 3.51278 5.4087 3.49827C5.4635 3.42409 5.41744 3.49799 5.45298 3.41309C5.31998 3.44031 5.27485 3.49499 5.22559 3.60069V3.60076Z" fill="#FBA5AB"/>
<path fill-rule="evenodd" clip-rule="evenodd" d="M47.4748 23.9239C47.5099 23.8626 47.5327 23.8248 47.4748 23.7393C47.3577 23.7908 47.3675 23.887 47.4748 23.9239Z" fill="#FE9F00"/>
</svg>
