<svg width="75" height="21" viewBox="0 0 75 21" fill="none" xmlns="http://www.w3.org/2000/svg">
<path fill-rule="evenodd" clip-rule="evenodd" d="M2.02593e-05 0.0155152V21H6.71144C6.74776 20.8568 6.71144 9.92476 6.71144 8.76673C6.71144 8.66051 6.73627 8.64743 6.74501 8.55103H7.14768L9.13159 14.741C9.15153 14.7977 9.16242 14.8687 9.18578 14.9377C9.20888 15.006 9.22428 15.0432 9.2482 15.1269L9.61654 16.2986C9.66009 16.4532 9.68629 16.5595 9.72762 16.6896C9.76862 16.8186 9.81485 16.938 9.85069 17.0696L10.2734 18.4379C10.3744 18.7014 10.4899 19.2156 10.5818 19.4181C10.6375 19.5407 10.6098 19.4638 10.6425 19.6088L11.0738 20.9999H15.8054L16.6133 18.4139C16.6371 18.3159 16.6551 18.2927 16.6869 18.2042L17.5692 15.3782C17.6168 15.2107 17.6441 15.1281 17.6913 14.9665C17.7283 14.8401 17.7774 14.7049 17.8185 14.5595L18.2553 13.1734C18.2868 13.0902 18.2813 13.0347 18.3131 12.9492L18.4976 12.379C18.5243 12.299 18.542 12.283 18.5708 12.1689L19.5822 8.9377C19.6217 8.792 19.6445 8.6194 19.7725 8.58965C19.7951 8.58438 20.11 8.60025 20.1678 8.61261V20.9999H26.9463V0.0154594L26.7015 0.00814827C26.6366 0.0113108 26.5799 0.0156268 26.5117 0.0160919L19.8313 0.0146408C19.5814 0.0128549 19.6107 0.0319233 19.4522 0.0670465L19.1394 0.149664C19.077 0.166091 19.0374 0.166779 18.9756 0.184155C18.9082 0.20313 18.8777 0.222477 18.8109 0.248541C18.134 0.512448 17.5849 0.876925 17.1469 1.40135C16.6732 1.96833 16.5124 2.62914 16.2999 3.30448L15.7755 5.13395C15.743 5.23762 15.7307 5.31994 15.6921 5.42716C15.5385 5.85453 15.4632 6.36984 15.3014 6.79394L15.0763 7.57335C15.0584 7.65515 15.0691 7.65165 15.0429 7.72755L14.9029 8.18449C14.8071 8.46292 14.6527 9.16488 14.5594 9.40974C14.5385 9.46466 14.5225 9.48687 14.5055 9.54512L14.2012 10.6215C14.1017 10.9578 13.8189 12.1539 13.6577 12.4335C13.4628 12.4335 13.4098 12.4312 13.255 12.4644C13.1729 12.3517 13.1773 12.3696 13.1338 12.2059C13.0597 11.9273 12.7905 10.9263 12.6848 10.6769L11.9852 8.23797C11.8758 7.65943 11.6279 6.97159 11.4695 6.40041L11.2078 5.50062C11.1372 5.3173 11.1108 5.06642 11.0409 4.88345L10.5074 3.06237C10.289 2.07199 9.69895 1.07942 8.8076 0.586526L7.65122 0.107658C7.32791 0.00561821 7.04496 0.0154036 6.67787 0.0154036C6.13232 0.0154036 0.360656 -0.0192545 0 0.0154036L2.02593e-05 0.0155152Z" fill="#00B456"/>
<path fill-rule="evenodd" clip-rule="evenodd" d="M29.8325 0.0156438H29.6982V21.0001H36.4097L36.8989 20.833C36.9916 20.7971 37.0379 20.7795 37.1336 20.7405L37.9411 20.2494C38.0134 20.1922 38.0474 20.1592 38.1127 20.0988C38.5886 19.6591 38.9309 19.1596 39.1809 18.5838C39.2538 18.4158 39.3026 18.3049 39.3722 18.1432C39.4362 17.9945 39.499 17.8489 39.5694 17.708C39.6024 17.6419 39.6398 17.5574 39.6692 17.4915L40.0605 16.6181C40.0823 16.5714 40.086 16.5543 40.1079 16.5076L40.2537 16.1793C40.6252 15.3338 41.0389 14.5004 41.3922 13.6503C41.4205 13.5822 41.4242 13.5894 41.4465 13.5461L41.8892 12.566C41.9127 12.5086 41.9133 12.5145 41.9393 12.4579L43.6178 8.72996C43.7067 8.51834 43.7998 8.57741 44.0524 8.57233C44.1522 8.57034 44.1949 8.58552 44.1949 8.73609V21.0001H50.9399V0.015681H44.8996C44.6302 0.015681 44.3267 0.00327253 44.1153 0.0658542C44.1069 0.0683471 44.098 0.0705609 44.0895 0.0729421L43.5046 0.306228C43.1284 0.498345 42.9513 0.63854 42.6504 0.877686C42.5999 0.917795 42.5803 0.924734 42.5261 0.97926L42.14 1.42591C41.7467 1.85682 41.1295 3.3819 40.8587 3.97777L38.0945 9.9751C38.0707 10.0263 38.0633 10.0553 38.0364 10.1066L37.9339 10.3206C37.9259 10.3403 37.9136 10.3674 37.9056 10.3871L37.6654 10.9061C37.4575 11.3304 37.2403 11.767 37.069 12.2072C36.9462 12.5225 36.7886 12.4338 36.4768 12.4338V0.015681L29.9282 0.00490963C29.8351 0.00425851 29.9718 0.015681 29.8325 0.015681V0.0156438Z" fill="#00B456"/>
<path fill-rule="evenodd" clip-rule="evenodd" d="M63.5233 8.64362L71.1672 8.655C72.1586 8.67232 73.1932 8.63871 74.1552 8.66103C74.8693 8.67761 74.8776 8.73689 74.9345 8.30628C74.9544 8.15586 74.9998 8.18023 74.9998 8.05813V6.33256C74.9998 6.19235 74.9554 6.16373 74.9336 6.0236C74.867 5.59525 74.7661 5.22043 74.6229 4.79899C74.3015 3.85277 73.8117 3.1309 73.1688 2.3749C72.8276 1.97365 72.5753 1.75751 72.1245 1.42336C71.8116 1.19147 71.5137 0.992766 71.1511 0.807272C70.6478 0.549746 69.6694 0.17366 69.0508 0.0858899C68.9766 0.0753604 68.9467 0.0781137 68.8758 0.0617613C68.778 0.0392513 68.8067 0.015625 68.6911 0.015625H52.8857C52.8911 0.236149 53.1714 1.13532 53.2545 1.40263C53.5797 2.44945 54.2129 3.61906 54.9135 4.50128L56.077 5.77476C56.1916 5.87544 56.2854 5.95672 56.4008 6.06289L56.8769 6.45772C56.9407 6.51011 56.9909 6.53822 57.0662 6.59206C57.7629 7.09072 58.2284 7.35866 59.0179 7.72718L59.5779 7.95254C59.9832 8.11249 60.4172 8.25466 60.8522 8.35389C61.042 8.39718 61.1722 8.43275 61.3667 8.46692C61.7045 8.52634 62.1171 8.58667 62.4142 8.61395C62.8305 8.65219 63.1425 8.64354 63.5233 8.64354L63.5233 8.64362Z" fill="#009BD8"/>
<path fill-rule="evenodd" clip-rule="evenodd" d="M53.8587 9.50651C53.8412 9.57561 53.8252 9.57734 53.8252 9.66057V21.0002H60.5702V14.4676C60.5702 14.2886 60.7771 14.3751 60.8722 14.3751L67.8341 14.3644C68.1258 14.3447 68.8161 14.3127 69.0319 14.2568L70.0579 13.9972C70.1392 13.9753 70.1265 13.9729 70.1967 13.9397L71.2162 13.4893C71.6897 13.2712 72.6019 12.5775 72.9092 12.2398C73.4039 11.6965 73.7872 11.2747 74.1417 10.5983C74.1691 10.5463 74.1777 10.5347 74.1989 10.4968C74.8869 9.26752 74.5272 9.50743 74.1277 9.50679L53.8587 9.50648L53.8587 9.50651Z" fill="#00B456"/>
</svg>
