<svg width="20" height="19" viewBox="0 0 20 19" fill="none" xmlns="http://www.w3.org/2000/svg">
<path d="M19.7488 17.6099L16.5993 14.6189C16.5675 14.5887 16.5267 14.5754 16.4915 14.5509C19.5582 11.0709 19.3754 5.86618 15.9335 2.59712C14.1701 0.922412 11.8254 0 9.33183 0C6.83803 0 4.49348 0.922412 2.73022 2.59712C-0.910074 6.05461 -0.910074 11.6804 2.73022 15.1374C4.49348 16.8127 6.83803 17.7351 9.33183 17.7351C11.5459 17.7351 13.64 17.0047 15.3163 15.6693C15.3418 15.7024 15.3556 15.7406 15.387 15.7704L18.5365 18.7614C18.7039 18.9204 18.9233 19 19.1427 19C19.3621 19 19.5818 18.9205 19.7489 18.7614C20.0837 18.4433 20.0837 17.928 19.7488 17.6099ZM9.33183 16.1065C7.29589 16.1065 5.382 15.3532 3.94251 13.986C0.970866 11.1636 0.970866 6.5716 3.94251 3.74864C5.382 2.38132 7.29601 1.62859 9.33183 1.62859C11.3674 1.62859 13.2816 2.38132 14.7211 3.74853C17.6928 6.57149 17.6928 11.1635 14.7211 13.9859C13.2814 15.3531 11.3675 16.1065 9.33183 16.1065Z" fill="white"/>
</svg>
