<svg width="99" height="32" viewBox="0 0 99 32" fill="none" xmlns="http://www.w3.org/2000/svg">
<path fill-rule="evenodd" clip-rule="evenodd" d="M86.8647 9.02574L87.0346 9.7215C87.0914 10.008 87.133 10.145 87.1902 10.4315C87.6072 12.5243 88.2058 15.6332 88.6726 17.6051C88.8946 18.543 89.0566 19.5678 89.2794 20.5226H82.6546C82.8572 20.101 82.9927 19.6014 83.1761 19.1271C83.9803 17.0466 84.7659 14.6829 85.5645 12.6725L86.8648 9.02567L86.8647 9.02574ZM70.21 31.525H78.6922L80.3019 26.8892H90.6415C90.6415 27.2736 90.99 28.7163 91.0908 29.2222C91.2385 29.963 91.3973 30.7838 91.5702 31.525H98.9999C98.9916 31.1574 96.7439 20.6207 96.6003 19.9512L92.9579 2.50988C92.8889 2.16136 92.8292 1.8315 92.7589 1.53425C92.6917 1.25046 92.5842 0.838239 92.5608 0.557572C90.3519 0.557572 88.1427 0.552922 85.9339 0.55543C84.8952 0.556593 83.9879 0.906585 83.3961 1.35962C82.4741 2.06535 82.0007 3.34846 81.5402 4.51353L79.0725 10.3944C78.7434 11.1902 78.4362 11.9519 78.0904 12.7518C77.7516 13.5358 77.4518 14.2608 77.1178 15.0567L73.1645 24.4612C72.8187 25.2611 72.5115 26.0228 72.1824 26.8186L70.21 31.5251V31.525Z" fill="#00579F"/>
<path fill-rule="evenodd" clip-rule="evenodd" d="M62.4087 22.3758C62.4087 24.5091 60.02 25.3839 58.4446 25.4647C58.019 25.4865 57.7938 25.5328 57.3299 25.5304C54.4172 25.5156 51.5664 24.7018 49.0354 23.3647L47.9209 30.3494C48.872 30.8518 50.9234 31.356 52.0514 31.5414C52.3966 31.5982 52.7727 31.6637 53.1726 31.7201C58.0663 32.4116 63.4728 31.9571 67.3711 28.8134C68.0521 28.2642 68.0973 28.1035 68.523 27.6763C68.6604 27.5384 68.7384 27.4239 68.8625 27.2735C71.0523 24.6196 71.7215 19.7335 69.2959 16.7979L67.9041 15.3442C65.1021 12.7222 57.4704 11.0722 60.0967 7.89062C60.3819 7.54503 60.7631 7.26442 61.1896 7.06556C63.8028 5.84738 68.3406 6.68828 70.8909 8.03551C71.0877 7.19228 71.5375 4.09717 71.7223 2.99341C71.8174 2.4259 71.8844 1.81653 72.0054 1.29803C71.2542 1.12328 70.6935 0.753463 68.9358 0.406713C67.7732 0.177382 66.5877 0.03916 65.401 0H64.0119C62.3466 0.055497 60.6956 0.313219 59.1195 0.795682C57.8086 1.19695 56.2909 1.92061 55.2267 2.71966C54.978 2.90634 54.66 3.12882 54.4365 3.35234C53.8279 3.96079 53.5856 4.12826 53.0326 4.85596C52.4051 5.68156 51.8354 6.78698 51.5732 7.78758C50.8112 10.6947 51.3826 13.3563 53.3836 15.3768C53.6563 15.6521 53.8858 15.8223 54.1581 16.0871C54.287 16.2125 54.3931 16.2809 54.5314 16.3943L55.8338 17.3193C57.2858 18.2283 58.3793 18.631 59.6199 19.3497C60.5961 19.9152 62.4088 20.9172 62.4088 22.3757L62.4087 22.3758Z" fill="#00579F"/>
<path fill-rule="evenodd" clip-rule="evenodd" d="M19.4406 17.2439C19.2651 17.0041 19.1384 16.5486 19.0133 16.2507C18.6592 15.407 17.9472 14.0594 17.4942 13.3178C16.8497 12.2626 16.358 11.6376 15.6494 10.7087C15.4248 10.4142 15.181 10.184 14.9658 9.90835C14.7528 9.6357 14.4856 9.38556 14.2543 9.13506L11.9282 7.00616C11.1359 6.40133 9.29844 4.96923 8.41992 4.60572L11.0822 14.6506C11.2186 15.2055 11.3836 15.7421 11.5288 16.3063C11.673 16.8664 11.8062 17.4304 11.9751 18.0241C12.2966 19.1538 12.5828 20.2741 12.8781 21.3875C13.1787 22.5209 13.4825 23.6102 13.7693 24.7628L15.54 31.525H24.0841L36.2811 1.54659C36.3665 1.33372 36.6355 0.762534 36.6526 0.557617H28.1704C28.0933 0.718051 27.993 1.02179 27.9321 1.18509C26.0695 6.18062 24.2133 11.3459 22.315 16.284C21.9711 17.1783 21.6896 18.0107 21.3419 18.8976L20.3693 21.5735C20.2356 21.3631 19.7551 18.7241 19.6831 18.3645C19.6343 18.1205 19.5247 17.4235 19.4406 17.244V17.2439Z" fill="#00579F"/>
<path fill-rule="evenodd" clip-rule="evenodd" d="M34.8574 31.5251H42.9062C43.041 30.9474 43.1387 30.2478 43.2261 29.6192L46.9833 6.4206C47.0952 5.75262 47.2149 5.12538 47.3053 4.45508L47.9211 0.557617H39.8724L39.2566 4.39322C39.1681 5.04914 39.0336 5.66732 38.947 6.30936C38.8565 6.97967 38.7368 7.60696 38.625 8.27489C38.1928 10.8558 37.8072 13.4311 37.3693 16.0458C36.933 18.6514 36.5597 21.1573 36.1222 23.7633L34.8574 31.525V31.5251Z" fill="#00579F"/>
<path fill-rule="evenodd" clip-rule="evenodd" d="M8.42024 4.60597C9.29869 4.96948 11.1362 6.40163 11.9285 7.00641L14.2546 9.13531C14.4858 9.38581 14.7531 9.63594 14.9661 9.9086C15.1814 10.1842 15.4251 10.4145 15.6498 10.7089C16.3584 11.6379 16.85 12.2628 17.4945 13.318C17.9475 14.0596 18.6595 15.4073 19.0137 16.2509C19.1387 16.5488 19.2654 17.0043 19.4409 17.2441L19.0956 15.3663C18.4114 11.6966 17.514 7.74238 16.8666 4.11677C16.7393 3.40357 16.6538 2.87907 16.3876 2.30801C15.8577 1.17109 14.8463 0.770736 13.6493 0.591334C12.9508 0.486642 0.670562 0.557803 0.123865 0.557803C0.069379 0.791295 0 0.944447 0 1.23772C0.275065 1.24384 0.853938 1.43854 1.14126 1.51998C2.91251 2.02214 4.81921 2.74703 6.45967 3.5659C6.81453 3.74304 7.0967 3.87985 7.4512 4.0595C7.65535 4.16291 7.74097 4.23395 7.92453 4.32854C8.11048 4.42436 8.22748 4.50794 8.42024 4.60591V4.60597Z" fill="#F9A51A"/>
</svg>
