<?xml version="1.0" encoding="UTF-8"?>
<!DOCTYPE svg PUBLIC "-//W3C//DTD SVG 1.1//EN" "http://www.w3.org/Graphics/SVG/1.1/DTD/svg11.dtd">
<!-- Creator: CorelDRAW -->
<svg xmlns="http://www.w3.org/2000/svg" xml:space="preserve" width="134.25mm" height="133.264mm" version="1.1" style="shape-rendering:geometricPrecision; text-rendering:geometricPrecision; image-rendering:optimizeQuality; fill-rule:evenodd; clip-rule:evenodd"
viewBox="0 0 13410.76 13312.28"
 xmlns:xlink="http://www.w3.org/1999/xlink"
 xmlns:xodm="http://www.corel.com/coreldraw/odm/2003">
 <defs>
  <style type="text/css">
   <![CDATA[
    .fil0 {fill:#2B2B2A}
   ]]>
  </style>
 </defs>
 <g id="Слой_x0020_1">
  <metadata id="CorelCorpID_0Corel-Layer"/>
  <path class="fil0" d="M12136.15 1995.33c-28.02,24.1 -164.07,67.6 -152.17,-33.69 41.4,-6.75 107.69,16.6 152.17,33.69zm-3656 6137.62l4930.6 34.69c-1892.5,34.74 -4320.46,34.83 -6224.77,42.72 -160.21,0.65 -320.38,0.96 -480.61,0.99 -160.23,-0.03 -320.4,-0.34 -480.61,-0.99 -1904.31,-7.89 -4332.27,-7.98 -6224.77,-42.72l4930.6 -34.69c17.06,-0.14 757.84,-0.2 1774.77,0.94 1016.94,-1.14 1757.71,-1.08 1774.77,-0.94zm-4402.62 2761.76l1992.06 34.69c-849.42,34.75 -1718.21,34.83 -2572.94,42.72 -71.88,0.66 -143.8,0.97 -215.71,1 -71.9,-0.03 -143.82,-0.34 -215.7,-1 -854.72,-7.89 -2215.83,-7.97 -3065.24,-42.72l2484.37 -34.69c7.66,-0.14 340.13,-0.2 796.57,0.94 456.45,-1.14 788.92,-1.08 796.58,-0.94zm6848.86 0l2484.37 34.69c-849.42,34.75 -2210.52,34.83 -3065.24,42.72 -71.88,0.66 -143.8,0.97 -215.7,1 -71.91,-0.03 -143.83,-0.34 -215.71,-1 -854.72,-7.89 -1723.52,-7.97 -2572.94,-42.72l1992.06 -34.69c7.66,-0.14 340.14,-0.2 796.58,0.94 456.45,-1.14 788.91,-1.08 796.57,-0.94zm-3461.1 1548.76l0 418.1c0,112.25 2.07,185.32 6.24,218.68 2.93,26.69 10.45,48.44 21.72,64.7 20.45,30.04 87.62,50.08 201.97,60.08 17.12,1.65 25.46,12.12 25.46,31.74 0,22.12 -8.34,32.94 -25.46,32.94 -131.44,-6.64 -240.37,-9.57 -327.58,-9.57 -92.21,0 -201.15,2.93 -326.74,9.57 -12.95,0 -19.19,-10.82 -19.19,-32.94 0,-18.79 6.24,-29.21 19.19,-31.74 69.28,-5.02 117.26,-12.95 143.15,-23.37 20.44,-7.52 35.45,-19.62 45.47,-36.71 20.02,-35.06 30.47,-144.82 30.47,-328.86l0 -918.03c0,-153.99 -9.6,-246.22 -28.39,-276.26 -18.34,-31.29 -88.47,-51.36 -209.89,-60.08 -15.01,-1.7 -22.12,-11.27 -22.12,-29.21 0,-27.14 7.1,-40.49 22.12,-40.49 136.05,6.67 247.87,9.6 335.9,9.6 25.47,0 82.64,-1.68 172.36,-4.63 149.38,-4.97 229.53,-7.47 240.77,-7.47 430.66,0 645.57,154.39 645.57,463.58 0,331.79 -250.79,497.86 -752.8,497.86 -74.3,0 -140.22,-2.5 -198.22,-7.49zm0 -90.13c58,10.02 123.1,15.01 195.71,15.01 179.85,0 315.89,-41.31 406.86,-123.52 77.62,-69.7 116.43,-163.59 116.43,-282.08 0,-132.3 -45.06,-231.6 -134.8,-298.8 -79.69,-59.68 -190.27,-89.32 -330.91,-89.32 -118.49,0 -191.12,17.55 -217.83,52.58 -23.79,30.49 -35.46,132.72 -35.46,307.54l0 418.58zm-1223.96 -861.32c136.05,6.67 231.6,9.6 286.29,9.6 65.92,0 159.83,-2.93 282.07,-9.6 15.02,0 22.12,13.35 22.12,40.49 0,17.94 -7.09,27.51 -22.12,29.21 -95.95,11.25 -154.38,32.54 -174.84,63.42 -27.54,41.74 -42.55,146.06 -45.05,312.97l-5 304.65c-2.92,210.29 -4.6,362.2 -4.6,455.69 0,195.71 -63.02,346.77 -188.62,453.58 -126.03,106.86 -278.75,160.26 -458.2,160.26 -227.43,0 -411.02,-65.95 -550.43,-198.22 -96.81,-91.81 -145.21,-217.86 -145.21,-377.67l5.02 -480.29 0 -368.07c0,-148.16 -8.35,-237.03 -24.64,-266.64 -17.94,-30.09 -85.11,-50.08 -201.54,-59.68 -15.02,-1.7 -22.12,-11.27 -22.12,-29.21 0,-27.14 7.09,-40.49 22.12,-40.49 132.69,6.67 241.59,9.6 326.3,9.6 89.74,0 197.4,-2.93 323.85,-9.6 14.59,0 22.12,13.35 22.12,40.49 0,17.94 -7.52,27.51 -22.12,29.21 -70.13,6.67 -117.28,14.19 -141.89,23.37 -19.62,7.92 -34.21,20.42 -43.81,36.71 -20.47,35.06 -30.46,140.64 -30.46,316.31l0 322.99 -2.53 347.18c0,128.11 10.88,224.53 32.98,288.8 17.09,49.63 45.91,93.88 86.79,131.84 105.16,97.24 232.85,145.64 383.91,145.64 176.95,0 310.47,-47.55 401.03,-143.11 81.36,-83.89 122.27,-213.26 122.27,-387.69 0,-103.48 0,-202.78 0,-298.34l-2.5 -407.31c-2.53,-169.43 -15.86,-274.98 -40.48,-316.31 -19.62,-32.14 -83.04,-51.73 -190.73,-60.08 -12.92,-1.7 -19.62,-11.27 -19.62,-29.21 0,-27.14 6.7,-40.49 19.62,-40.49zm4532.08 -2803.6c56.35,1.65 126.05,2.5 210.34,2.5 70.1,0 156.05,-3.36 257.9,-10.02 16.26,0 24.18,12.52 24.18,37.98 0,19.62 -7.92,30.04 -24.18,31.72 -106.84,6.67 -170.26,26.28 -190.73,60.07 -20.44,33.38 -30.46,97.67 -30.46,192.8 0,13.38 0,23.4 0,30.89l10.84 970.64c0.86,130.62 4.18,215.33 9.63,254.14 4.99,29.61 14.16,54.25 27.11,74.7 13.77,18.76 34.21,32.14 60.93,40.48 26.29,7.07 71.37,13.78 135.62,19.59 16.69,2.53 24.61,12.95 24.61,31.74 0,22.12 -7.92,32.96 -24.61,32.96 -135.2,-6.67 -246.2,-9.6 -333.41,-9.6 -86.39,0 -191.98,2.93 -316.74,9.6 -11.27,0 -17.09,-10.85 -17.09,-32.96 0,-18.79 5.82,-29.21 17.09,-31.74 106.01,-8.34 168.6,-28.36 188.19,-60.07 20.48,-32.57 30.47,-108.93 30.47,-228.69l-7.07 -1158.83 -28.39 0 -380.17 869.24c-83.86,189.01 -170.67,396 -260.38,620.93 -6.24,14.59 -19.19,22.12 -37.99,22.12 -11.24,0 -20.01,-7.52 -26.68,-22.12 -90.56,-228.28 -169.86,-419.39 -238.28,-573.38l-398.53 -916.79 -27.11 0 -7.1 1058.68c0,18.77 0,32.57 0,41.74 0,151.48 11.67,247.04 35.03,287.11 12.52,18.76 32.14,32.14 58.86,40.48 25.46,7.07 68.02,13.78 128.51,19.59 17.12,1.68 25.46,12.13 25.46,31.74 0,22.12 -8.34,32.96 -25.46,32.96 -121.42,-6.67 -212.38,-9.6 -272.91,-9.6 -78.04,0 -171.93,2.93 -280.82,9.6 -15.02,0 -22.12,-10.85 -22.12,-32.96 0,-19.61 7.09,-30.06 22.12,-31.74 90.95,-8.34 147.28,-29.18 168.57,-62.57 17.94,-32.56 30.04,-70.55 36.74,-113.53 6.24,-44.22 10.84,-115.15 13.34,-212.8l22.12 -999 0 -22.97c0,-85.54 -10.42,-143.14 -30.89,-172.36 -22.51,-29.61 -87.61,-49.65 -195.29,-60.07 -14.58,-1.68 -22.12,-11.28 -22.12,-29.22 0,-27.14 7.53,-40.48 22.12,-40.48 129.37,6.66 219.09,10.02 268.73,10.02 81.79,0 153.99,-0.85 217.84,-2.5 27.54,98.49 60.93,193.18 100.15,283.75l343.44 812.91c20.47,46.3 46.75,107.66 78.47,183.17 33.38,80.97 55.9,135.65 68.42,165.26 70.13,-168.15 120.2,-284.19 150.24,-348.43l322.99 -778.69c42.16,-96.39 81.78,-202.4 118.49,-317.96zm-2003.84 1770.17c-234.1,-8.77 -440.66,-13.38 -620.11,-13.38 -200.3,0 -415.2,4.61 -644.31,13.38 -12.95,0 -19.62,-10.85 -19.62,-32.96 0,-18.79 6.67,-29.21 19.62,-31.74 66.35,-6.67 111.43,-14.16 136.05,-23.37 19.19,-8.34 35.06,-20.44 46.3,-36.7 20.47,-30.07 30.46,-139.79 30.46,-328.84l0 -878.01c0,-130.19 -2.07,-213.65 -5.81,-250.36 -3.35,-27.96 -10.85,-50.51 -22.12,-68.45 -20.47,-30.46 -86.39,-49.23 -198.22,-57.57 -14.61,-1.68 -22.12,-11.28 -22.12,-29.22 0,-27.14 7.5,-40.48 22.12,-40.48 167.76,7.92 375.97,12.09 624.69,12.09 229.93,0 432.31,-4.17 607.59,-12.09 21.26,210.31 35.45,342.61 42.98,396.43l0 7.09c0,14.59 -13.38,22.12 -40.49,22.12 -8.77,0 -15.44,-4.99 -19.62,-14.59 -36.71,-109.75 -90.13,-192.4 -160.23,-247.9 -60.93,-48.8 -186.94,-73.01 -377.67,-73.01 -118.92,0 -191.94,20.04 -218.66,59.68 -17.94,27.11 -27.13,96.81 -27.13,209.06l0 442.34c28.81,1.67 82.21,2.5 160.25,2.5 179.43,0 289.18,-16.69 330.09,-50.08 43.38,-34.64 68.42,-88.04 75.94,-160.66 1.68,-14.59 10.42,-22.12 26.72,-22.12 25.43,0 37.95,7.52 37.95,22.12 -3.32,113.93 -4.99,195.71 -4.99,245.8 0,69.7 1.68,163.58 4.99,280.82 0,14.62 -12.52,22.15 -37.95,22.15 -16.3,0 -25.04,-8.34 -26.72,-24.64 -7.52,-91.81 -34.2,-153.99 -80.96,-185.69 -43.8,-31.72 -152.31,-47.55 -325.06,-47.55 -52.17,0 -105.58,1.64 -160.25,4.99l0 435.67c0,163.58 12.12,263.31 35.48,298.34 17.94,25.89 45.05,43.83 80.93,53.85 35.92,8.74 91.81,13.35 168.61,13.35 122.27,0 217.41,-8.77 286.25,-25.86 57.61,-13.78 109.33,-36.74 155.24,-69.28 66.78,-49.25 128.95,-132.72 186.95,-250.79 5.02,-11.27 10.87,-17.11 18.36,-17.11 31.72,0 47.59,9.17 47.59,27.96l-2.5 12.52c-30.07,131.02 -73.87,267.89 -130.62,410.2zm-1715.5 -1195.14l-75.54 -477.4c-3.33,-30.04 -5,-48.4 -5,-54.65 0,-60.53 37.56,-90.55 112.68,-90.55 73.02,0 109.72,30.89 109.72,92.63 0,6.67 -1.64,25.04 -4.99,55.07l-69.7 474.91c-2.07,15.44 -13.35,23.37 -32.95,23.37 -20.87,0 -32.54,-7.92 -34.21,-23.37zm-384.76 -582.55c7.92,101.83 22.54,235.77 42.55,401.42l0 9.62c0,14.59 -14.16,22.12 -42.55,22.12 -10.02,0 -16.69,-5.02 -20.87,-14.61 -40.88,-119.35 -93.88,-205.31 -160.23,-258.72 -57.6,-46.33 -156.91,-69.7 -297.12,-69.7 -60.11,0 -101.8,4.18 -124.35,12.1 -18.79,6.66 -34.23,19.19 -46.73,37.98 -14.61,23.79 -23.78,54.25 -27.96,91.81 -4.18,39.21 -6.27,110.58 -6.27,214.05l0 916c0,113.07 2.1,186.09 6.27,218.65 4.18,27.97 12.52,50.91 25.43,69.7 14.19,18.77 35.49,32.12 65.1,40.46 27.54,7.52 75.12,13.78 142.71,19.62 15.87,1.68 23.4,12.13 23.4,31.72 0,23.78 -7.52,35.48 -23.4,35.48 -134.37,-6.67 -247.44,-9.6 -339.68,-9.6 -94.7,0 -202.39,2.93 -323.81,9.6 -15.02,0 -22.12,-11.7 -22.12,-35.48 0,-19.59 7.09,-30.04 22.12,-31.72 106.01,-9.17 168.57,-29.21 188.19,-60.08 22.12,-34.23 32.96,-136.04 32.96,-305.47l0 -957.69c0,-137.71 -10.42,-221.58 -30.47,-252.04 -19.59,-30.07 -76.34,-45.08 -170.25,-45.08 -131.87,0 -227.83,23.37 -288.35,69.7 -65.92,53.4 -120.99,139.36 -165.25,258.72 -3.75,9.59 -9.59,14.61 -16.69,14.61 -28.79,0 -42.98,-7.52 -42.98,-22.12l0 -7.09c21.3,-160.66 36.31,-295.45 45.08,-403.95 223.68,7.92 481.58,12.09 774.1,12.09 297.52,0 557.92,-4.17 781.17,-12.09zm-2453.31 1712.99c102.66,-8.34 163.19,-28.36 181.96,-60.07 14.61,-23.79 23.78,-55.93 27.13,-96.42 3.76,-42.55 5.82,-119.74 5.82,-232.42l0 -878.01c0,-130.19 -2.07,-212.8 -5.82,-247.87 -3.35,-27.11 -11.69,-50.08 -24.63,-68.45 -19.59,-30.46 -85.54,-50.48 -198.22,-60.07 -12.92,-1.68 -19.59,-11.28 -19.59,-29.22 0,-27.14 6.67,-40.48 19.59,-40.48 164.85,8.34 273.76,12.52 326.76,12.52 58.43,0 165.25,-4.18 320.06,-12.52 17.12,0 25.86,13.34 25.86,40.48 0,17.94 -8.74,27.54 -25.86,29.22 -102.65,10.42 -163.58,30.46 -181.95,60.07 -22.12,34.24 -33.38,139.82 -33.38,316.31l0 973.57c0,126.03 10.45,204.06 30.89,233.28 12.1,17.94 31.72,30.89 58.43,39.2 27.96,7.95 74.27,15.05 139.36,20.87 16.27,1.68 24.61,12.13 24.61,31.74 0,22.12 -8.34,32.96 -24.61,32.96 -131.87,-6.67 -243.27,-9.6 -333.41,-9.6 -90.56,0 -195.29,2.93 -314.25,9.6 -13.34,0 -19.59,-10.85 -19.59,-32.96 0,-18.79 6.67,-29.21 20.84,-31.74zm-1640.8 -811.63l0 489.07c0,106.4 2.1,175.27 6.27,206.13 3.33,22.12 10.02,42.58 20.87,61.35 17.09,28.39 83.86,47.58 200.29,57.6 17.12,1.65 25.89,11.27 25.89,29.21 0,22.12 -8.77,32.96 -25.89,32.96 -131.02,-6.67 -241.19,-9.6 -330.09,-9.6 -89.7,0 -196.53,2.93 -321.31,9.6 -13.35,0 -19.62,-10.85 -19.62,-32.96 0,-17.94 6.27,-27.96 19.62,-29.21 70.13,-6.7 117.28,-14.62 141.89,-23.4 20.02,-7.49 35.46,-18.76 46.3,-34.2 20.48,-27.97 30.47,-138.97 30.47,-333.84l0 -878.01c0,-177.34 -9.17,-283.75 -27.94,-318.81 -15.44,-28.79 -82.64,-47.98 -200.74,-57.57 -12.92,-1.68 -19.59,-11.28 -19.59,-29.22 0,-27.14 6.67,-40.48 19.59,-40.48 169.03,8.34 279.18,12.52 331.33,12.52 56.36,0 162.34,-4.18 317.99,-12.52 17.12,0 25.47,13.34 25.47,40.48 0,17.12 -8.35,26.72 -25.47,29.22 -71.76,8.34 -119.34,16.26 -143.14,24.61 -17.94,6.27 -31.71,17.51 -41.31,32.95 -20.44,35.06 -30.89,121.02 -30.89,257.9l0 406.02c113.53,5.02 274.59,7.53 483.25,7.53 205.31,0 362.23,-2.51 470.3,-7.53l0 -344.67c0,-182.77 -9.2,-289.17 -27.96,-319.24 -17.12,-28.79 -82.64,-47.98 -196.97,-57.57 -15.44,-1.68 -22.97,-11.28 -22.97,-29.22 0,-27.14 7.09,-40.48 22.12,-40.48 164.44,8.34 275.01,12.52 330.94,12.52 53.82,0 161.08,-4.18 321.74,-12.52 16.26,0 24.61,13.34 24.61,40.48 0,17.94 -8.35,27.54 -24.61,29.22 -106.01,8.34 -168.61,27.11 -188.23,57.57 -20.44,31.72 -30.86,138.14 -30.86,318.81l0 935.59c0,108.92 2.5,181.12 7.5,216.18 3.35,22.94 10.02,42.98 19.61,60.08 12.1,17.11 31.32,29.21 57.61,36.73 29.21,7.92 78.87,15.02 148.95,20.87 12.95,1.25 19.62,11.27 19.62,29.21 0,22.12 -6.67,32.96 -19.62,32.96 -141.03,-6.67 -252.86,-9.6 -336.32,-9.6 -93.49,0 -199.47,2.93 -317.57,9.6 -14.61,0 -22.11,-10.85 -22.11,-32.96 0,-17.94 7.49,-27.56 22.11,-29.21 105.16,-10.02 166.08,-29.21 183.21,-57.6 19.61,-35.06 29.21,-146.46 29.21,-333.84l0 -422.72c-108.08,-8.34 -264.99,-12.52 -470.3,-12.52 -208.66,0 -369.72,4.18 -483.25,12.52zm-1300.58 -7586.93c28.02,24.1 164.07,67.6 152.17,-33.69 -41.4,-6.75 -107.69,16.6 -152.17,33.69zm-94.8 14.93l-183.98 -15.41c16.66,65.32 43.03,119.8 76.37,157.5 61.18,-21.04 84.91,-88.49 107.62,-142.09zm-972.62 -1097.7c61.63,-86.99 57.43,-190.64 196.34,-203.92 70.52,-175.64 134.28,-241.59 354.61,-166.73 230.71,78.39 169.31,-160.4 -38.27,-218.4 -137.72,-38.5 -374.26,-31.38 -455.6,97.38 -54.02,85.45 -90.3,385.75 -57.09,491.68zm4348.84 2745.8l467.49 -10.93c-130.08,166.16 -377.3,352.77 -405.4,580.7l108.56 -80.51c-0.26,338.15 -90.76,640.02 -241.31,876.22 23.14,-159.66 123.44,-410.2 143.14,-682.65 -51.95,26.51 -107.83,102.06 -169.49,130.99 75.01,-392.2 170.4,-438.08 338.07,-731.63 -120.03,1.57 -397.66,19.93 -490.09,-7.52 -16.58,-103.73 100.52,-85.88 323.24,-267.26 268.26,-218.52 731.29,-647.02 760.73,-1030.99 69.84,106.58 57.32,319.13 16.15,446 -145.22,447.5 -534.43,530.92 -851.1,777.59zm-407.16 -1471.29l260.93 89.65c-199.41,199.92 -856.66,167.47 -843.6,-11.76 86.17,-29.01 291.68,123.7 618.75,38.61 -56.84,-40.51 -121.79,-26.23 -165.53,-79.09 7.83,-77.57 150.97,-159.84 210.31,-193.42l-168.07 -16.18 356.49 -54.39c-57.94,115.21 -150.98,153.76 -269.27,226.58zm-1776.22 -263.71c46.25,20.41 262.35,221.46 321.32,267.94 35.06,27.63 77.84,56.53 117.48,85.09 131.16,94.48 326.73,227.17 522.03,268.47 -43.57,-83.92 -126.31,-156.93 -170.82,-238.22 199.01,67.4 287.55,132.27 540.14,162.11 -17.12,-35.03 -11.58,-18.77 -29.5,-43.21 -30.4,-41.48 -8.8,3.7 -29.32,-45.1 108.33,31.94 219,131.18 291.84,189.3 -141.38,18.62 -391.89,-36.85 -522.14,-73.59 24.95,33.98 84.94,109.87 90.67,139.65 -394.05,12.24 -839.62,-327.98 -1080.28,-632.58 -26.65,-33.69 -33.15,-56.86 -51.42,-79.86zm495.99 -542.55c100.9,162.51 37.62,140.98 21.47,150.24 -20.47,-36.25 -19.19,-101.21 -21.47,-150.24zm-1305.8 -530.8c242.5,1.5 734.92,49.14 585.85,406.2 -203.06,-384.85 -400.23,-337.16 -829.03,-300.73 212.15,-322.94 -396.15,-37.28 -582.84,-16.38 138.06,-66.83 1045.82,-426.58 826.02,-89.09zm-1562.84 1930.46c138.37,104.59 267.83,324.35 624.89,339.85 284.69,12.35 535.56,-134.03 798.42,-177.89 293.86,-49 577.9,43.75 733.39,191.01 145.75,138.05 309.78,481.71 99.78,680.07l-33.27 -73.33c-34.37,35.57 -23.95,40.15 -61.1,65.27 -39.86,-26.43 -26.06,-32.28 -53.9,-66.97 -45.26,18.91 -32.71,22.77 -68.65,47.41l-35.94 -89.23c-51.39,29.35 -45.96,57.77 -84.21,97.29 -297.63,-104.07 -273.02,-185.69 -323.55,-273.9 -35.38,30.75 -40.18,49.71 -80.88,68.33 -58.15,-39.06 -22.09,-52.85 -80.88,-90.3 -53.48,48.07 -27.82,87.02 -67.43,128.03 -55.9,-14.61 -48.29,-13.71 -65.58,-82.27 -34.86,-138.22 -52.14,-248.1 -51.86,-393.22 -90.9,76.4 -89.99,319.3 -94.31,422.1 -244.38,126.16 -431.29,172.44 -439.35,490.46l52.29 -69.48c4.73,170.37 -11.96,342.7 73.01,477.17l9.85 -164.1c52.26,76.17 52.78,404.53 63.4,514.65l38.52 169.99c32.54,-112.42 55.61,-255.42 94.48,-364.51 36.71,113.81 18.08,271.68 120.14,507.2 58.09,134.09 193.33,281.17 314.28,328.18l-59.85 -500.73c87.47,126.93 167.44,286.68 293.46,348.25 -190.49,-759.81 507.67,-709.12 886.67,-316.08 172.38,178.76 109.07,433.11 351.29,718.91 -122.5,-370.35 132.9,-206.54 160.89,-179.88 148.93,141.83 674.84,479.67 720.29,537.39 -207.13,176.41 -1728.52,1604.43 -1733.98,1621.27 824.89,-7.13 1524.32,-1.71 2060.54,-0.43 629.17,-1006.35 1069.35,-1586.8 1476.65,-3026.13 180.28,1281.11 -637.34,2678.19 -829.45,3025.42l3794.65 0c-192.11,-347.23 -1009.73,-1744.31 -829.45,-3025.42 407.3,1439.32 847.48,2019.77 1476.65,3026.13 536.22,-1.28 1235.65,-6.7 2060.54,0.43 -5.45,-16.84 -1526.85,-1444.86 -1733.98,-1621.27 45.45,-57.72 571.36,-395.56 720.29,-537.39 27.99,-26.66 283.39,-190.47 160.89,179.88 242.21,-285.8 178.91,-540.15 351.29,-718.91 379,-393.03 1077.16,-443.73 886.67,316.08 126.02,-61.57 205.99,-221.32 293.46,-348.25l-59.85 500.73c120.94,-47.01 256.19,-194.09 314.28,-328.18 102.06,-235.52 83.43,-393.39 120.14,-507.2 38.87,109.09 61.94,252.09 94.48,364.51l38.52 -169.99c10.62,-110.12 11.14,-438.48 63.4,-514.65l9.85 164.1c84.97,-134.48 68.28,-306.8 73.01,-477.17l52.29 69.48c-8.06,-318.02 -194.97,-364.3 -439.35,-490.46 -4.32,-102.8 -3.41,-345.7 -94.31,-422.1 0.28,145.13 -17,255 -51.86,393.22 -17.29,68.57 -9.68,67.66 -65.58,82.27 -39.61,-41.02 -13.95,-79.97 -67.43,-128.03 -58.8,37.45 -22.74,51.25 -80.88,90.3 -40.71,-18.62 -45.5,-37.58 -80.88,-68.33 -50.53,88.21 -25.91,169.83 -323.55,273.9 -38.25,-39.52 -32.83,-67.94 -84.21,-97.29l-35.94 89.23c-35.94,-24.64 -23.39,-28.5 -68.65,-47.41 -27.84,34.69 -14.05,40.54 -53.9,66.97 -37.14,-25.12 -26.72,-29.7 -61.1,-65.27l-33.27 73.33c-210,-198.36 -45.96,-542.01 99.78,-680.07 155.49,-147.25 439.53,-240.01 733.39,-191.01 262.86,43.86 513.73,190.24 798.42,177.89 357.06,-15.5 486.51,-235.26 624.89,-339.85 -117.22,32.82 -278.01,191.15 -516.97,210.85 -454.95,37.5 -1303.68,-495.05 -1791.47,-129.91 60.36,-117.56 219.71,-130.16 293.44,-154.01 3.55,-1.14 8.37,-3.3 11.27,-4.3l22 -10.05c-178.11,-9.85 -341.15,27.09 -475.49,98.75 -398.65,212.63 -481.17,869.46 -380.7,1198.44 52.71,-61.05 62.14,-170.6 136.54,-242.87 37.25,38.86 64.84,93.17 107.63,118.89l48.66 -71.54c23,25.8 16.44,19.19 33.47,47.64l-46.78 35.34c-23.12,17.51 -16.47,17.06 -48.61,30.41 -45.76,-20.79 -74.66,-54.93 -107.86,-80.68 -161.62,193.3 -41.62,617.13 415.03,263.74 -139.05,204.29 -529.49,370.31 -620.65,-151.8 -60.93,-349.17 33.52,-684.24 159.78,-965.36 89.32,-198.84 327.55,-545.24 498.4,-674.24 110.86,-83.67 195.63,-158.33 346.18,-233.56 161.57,-80.71 262.21,-94.06 452.25,-127.84 -165.4,-96.58 -423.63,-126.05 -517.94,22.92 146.68,-248.33 332.33,-145.44 594.28,-53 321.94,113.56 420.76,49.88 677.2,-59.39 -45.22,34.51 -112.62,68.62 -159.09,106.01 34.74,247.13 75.83,358.58 75.46,636.57 107,-46.67 215.19,-326.48 248.04,-422.44 129.6,-378.74 4.55,-388.76 129.06,-517.71 149.44,-154.84 224.98,-530.88 152.7,-758.59 -52.88,-166.7 -90.1,-85.11 -171.04,-123.66 -127.5,-127.1 1.45,-255.91 -343.88,-153.94 -91.04,26.86 -151.74,12.58 -175.84,-69.92 -25.86,-88.64 24.44,-147.03 53.57,-214.09 -197.62,10.74 -352.49,46.28 -507.21,153.05 -43.49,29.93 -81.67,65.73 -121.68,90.82 39.47,28.93 48.24,36.34 93.63,54.08 -314.25,-0.57 -463.69,-100.01 -768.81,81.22 4.29,77.67 10.25,103.65 -6.64,174.22 -27.4,-40.23 -3.5,-304.43 -268.88,-339.71 13.92,25.57 23,30.66 37.54,51.7 -317.99,-49.68 -638.85,75.94 -953.04,119.94l73.3 -42.33c-22.44,-155.21 -4.1,-169.43 42.63,-295.37 -262.91,37.85 -369.29,178.71 -446.14,348.31 -64.98,143.26 -273,1.25 -307.43,322.48 140.73,-60.93 173.95,-39.6 334.85,-55.58l-104.5 -47.19c363.35,-52.54 861.14,115.81 1190.83,258.89 172.75,74.95 209.74,60.59 337.89,-27.17 -10.59,51.31 -35.34,81.05 -75.15,102.69 -131.21,71.25 -123.97,199.32 -317.56,244.52 93.35,-321.03 -335.64,-395.36 -344.36,-47.39 -57.01,-23.61 -145.56,-105.49 -176.95,-154.87 -87.53,-137.45 -22.66,-136.04 -26.6,-244.88 -72.3,-68.96 -263.57,-91.24 -376.39,-92.55 42.64,26.26 113.99,53.51 159.84,73.18 -129.83,3.81 -516.04,-69.16 -595.65,26.77 -27.73,24.56 -33.15,86.4 -45.99,130.42 -154.92,531.43 -570.51,474.99 -605.92,269.33 189.11,269.47 536.82,-192.54 588.57,-435.64 76.94,-361.6 -82.07,-559.84 9.91,-1050.07 -699.95,0 -957.18,877.61 -1195.14,1113.47 -123.95,-35.54 -417.02,-68.59 -521.58,12.98 84.52,2.81 178.46,8.4 248.21,46.47 -96.52,63.03 -422.38,-1.16 -601.31,510.79 101.71,-99.27 198.21,-222.12 405,-242.96 -263.4,342.78 -672.47,662.39 -784.52,1127.26l228.4 -109.04c-116.8,175.36 -269.76,587.53 -311.18,838.18 42.02,-32.09 37.45,-41.8 79.81,-59.96 -82.13,334.99 -136.52,675.63 -171.79,1019.92 -35.26,-344.28 -89.65,-684.92 -171.79,-1019.92 42.36,18.16 37.79,27.87 79.81,59.96 -41.42,-250.65 -194.38,-662.82 -311.18,-838.18l228.4 109.04c-112.05,-464.88 -521.12,-784.49 -784.52,-1127.26 206.79,20.84 303.29,143.69 405,242.96 -178.93,-511.95 -504.79,-447.75 -601.31,-510.79 69.75,-38.07 163.69,-43.66 248.21,-46.47 -104.56,-81.56 -397.63,-48.52 -521.58,-12.98 -237.96,-235.86 -495.19,-1113.47 -1195.14,-1113.47 91.98,490.24 -67.03,688.48 9.91,1050.07 51.76,243.1 399.47,705.11 588.57,435.64 -35.4,205.65 -451,262.09 -605.92,-269.33 -12.84,-44.02 -18.26,-105.86 -45.99,-130.42 -79.61,-95.93 -465.82,-22.97 -595.65,-26.77 45.85,-19.67 117.2,-46.92 159.84,-73.18 -112.82,1.31 -304.09,23.59 -376.39,92.55 -3.95,108.84 60.93,107.43 -26.6,244.88 -31.4,49.38 -119.94,131.25 -176.95,154.87 -8.72,-347.97 -437.72,-273.64 -344.36,47.39 -193.59,-45.2 -186.35,-173.27 -317.56,-244.52 -39.81,-21.64 -64.56,-51.39 -75.15,-102.69 128.15,87.76 165.14,102.12 337.89,27.17 329.69,-143.08 827.47,-311.43 1190.83,-258.89l-104.5 47.19c160.91,15.98 194.12,-5.34 334.85,55.58 -34.43,-321.23 -242.45,-179.22 -307.43,-322.48 -76.85,-169.6 -183.23,-310.46 -446.14,-348.31 46.73,125.94 65.07,140.16 42.63,295.37l73.3 42.33c-314.19,-44 -635.05,-169.62 -953.04,-119.94 14.54,-21.04 23.62,-26.12 37.54,-51.7 -265.39,35.28 -241.48,299.48 -268.88,339.71 -16.89,-70.58 -10.93,-96.56 -6.64,-174.22 -305.13,-181.24 -454.57,-81.79 -768.81,-81.22 45.39,-17.74 54.16,-25.15 93.63,-54.08 -40.01,-25.09 -78.19,-60.9 -121.68,-90.82 -154.73,-106.77 -309.59,-142.31 -507.21,-153.05 29.13,67.06 79.44,125.46 53.57,214.09 -24.1,82.49 -84.8,96.78 -175.84,69.92 -345.33,-101.97 -216.38,26.83 -343.88,153.94 -80.93,38.55 -118.15,-43.04 -171.04,123.66 -72.28,227.72 3.26,603.76 152.7,758.59 124.52,128.95 -0.54,138.97 129.06,517.71 32.85,95.96 141.04,375.77 248.04,422.44 -0.37,-277.99 40.72,-389.45 75.46,-636.57 -46.47,-37.39 -113.87,-71.49 -159.09,-106.01 256.44,109.26 355.26,172.95 677.2,59.39 261.95,-92.43 447.59,-195.32 594.28,53 -94.31,-148.96 -352.54,-119.49 -517.94,-22.92 190.04,33.78 290.68,47.13 452.25,127.84 150.55,75.23 235.32,149.89 346.18,233.56 170.85,129 409.09,475.41 498.4,674.24 126.26,281.12 220.71,616.2 159.78,965.36 -91.16,522.11 -481.6,356.09 -620.65,151.8 456.64,353.39 576.65,-70.44 415.03,-263.74 -33.19,25.75 -62.09,59.9 -107.86,80.68 -32.14,-13.35 -25.49,-12.9 -48.61,-30.41l-46.78 -35.34c17.03,-28.45 10.48,-21.84 33.47,-47.64l48.66 71.54c42.78,-25.72 70.38,-80.03 107.63,-118.89 74.4,72.27 83.83,181.83 136.54,242.87 100.47,-328.98 17.95,-985.8 -380.7,-1198.44 -134.35,-71.65 -297.38,-108.59 -475.49,-98.75l22 10.05c2.9,1 7.72,3.16 11.27,4.3 73.73,23.84 233.08,36.45 293.44,154.01 -487.79,-365.14 -1336.52,167.41 -1791.47,129.91 -238.96,-19.7 -399.76,-178.03 -516.97,-210.85zm12230.95 -770.21l183.98 -15.41c-16.66,65.32 -43.03,119.8 -76.37,157.5 -61.18,-21.04 -84.91,-88.49 -107.62,-142.09zm972.62 -1097.7c-61.63,-86.99 -57.43,-190.64 -196.34,-203.92 -70.52,-175.64 -134.28,-241.59 -354.61,-166.73 -230.71,78.39 -169.31,-160.4 38.27,-218.4 137.72,-38.5 374.26,-31.38 455.6,97.38 54.02,85.45 90.3,385.75 57.09,491.68zm-4348.84 2745.8l-467.49 -10.93c130.08,166.16 377.3,352.77 405.4,580.7l-108.56 -80.51c0.26,338.15 90.76,640.02 241.31,876.22 -23.14,-159.66 -123.44,-410.2 -143.14,-682.65 51.95,26.51 107.83,102.06 169.49,130.99 -75.01,-392.2 -170.4,-438.08 -338.07,-731.63 120.03,1.57 397.66,19.93 490.09,-7.52 16.58,-103.73 -100.52,-85.88 -323.24,-267.26 -268.26,-218.52 -731.29,-647.02 -760.73,-1030.99 -69.84,106.58 -57.32,319.13 -16.15,446 145.22,447.5 534.43,530.92 851.1,777.59zm407.16 -1471.29l-260.93 89.65c199.41,199.92 856.66,167.47 843.6,-11.76 -86.17,-29.01 -291.68,123.7 -618.75,38.61 56.84,-40.51 121.79,-26.23 165.53,-79.09 -7.83,-77.57 -150.97,-159.84 -210.31,-193.42l168.07 -16.18 -356.49 -54.39c57.94,115.21 150.98,153.76 269.27,226.58zm1776.22 -263.71c-46.25,20.41 -262.35,221.46 -321.32,267.94 -35.06,27.63 -77.84,56.53 -117.48,85.09 -131.16,94.48 -326.73,227.17 -522.03,268.47 43.57,-83.92 126.31,-156.93 170.82,-238.22 -199.01,67.4 -287.55,132.27 -540.14,162.11 17.12,-35.03 11.58,-18.77 29.5,-43.21 30.4,-41.48 8.8,3.7 29.32,-45.1 -108.33,31.94 -219,131.18 -291.84,189.3 141.38,18.62 391.89,-36.85 522.14,-73.59 -24.95,33.98 -84.94,109.87 -90.67,139.65 394.05,12.24 839.62,-327.98 1080.28,-632.58 26.65,-33.69 33.15,-56.86 51.42,-79.86zm-495.99 -542.55c-100.9,162.51 -37.62,140.98 -21.47,150.24 20.47,-36.25 19.19,-101.21 21.47,-150.24zm1305.8 -530.8c-242.5,1.5 -734.92,49.14 -585.85,406.2 203.06,-384.85 400.23,-337.16 829.03,-300.73 -212.15,-322.94 396.15,-37.28 582.84,-16.38 -138.06,-66.83 -1045.82,-426.58 -826.02,-89.09z"/>
  <circle class="fil0" cx="6705.38" cy="10929.4" r="200.19"/>
  <path class="fil0" d="M12136.15 1995.33c-28.02,24.1 -164.07,67.6 -152.17,-33.69 41.4,-6.75 107.69,16.6 152.17,33.69zm-3656 6137.62l4930.6 34.69c-1892.5,34.74 -4320.46,34.83 -6224.77,42.72 -160.21,0.65 -320.38,0.96 -480.61,0.99 -160.23,-0.03 -320.4,-0.34 -480.61,-0.99 -1904.31,-7.89 -4332.27,-7.98 -6224.77,-42.72l4930.6 -34.69c17.06,-0.14 757.84,-0.2 1774.77,0.94 1016.94,-1.14 1757.71,-1.08 1774.77,-0.94zm-4402.62 2761.76l1992.06 34.69c-849.42,34.75 -1718.21,34.83 -2572.94,42.72 -71.88,0.66 -143.8,0.97 -215.71,1 -71.9,-0.03 -143.82,-0.34 -215.7,-1 -854.72,-7.89 -2215.83,-7.97 -3065.24,-42.72l2484.37 -34.69c7.66,-0.14 340.13,-0.2 796.57,0.94 456.45,-1.14 788.92,-1.08 796.58,-0.94zm6848.86 0l2484.37 34.69c-849.42,34.75 -2210.52,34.83 -3065.24,42.72 -71.88,0.66 -143.8,0.97 -215.7,1 -71.91,-0.03 -143.83,-0.34 -215.71,-1 -854.72,-7.89 -1723.52,-7.97 -2572.94,-42.72l1992.06 -34.69c7.66,-0.14 340.14,-0.2 796.58,0.94 456.45,-1.14 788.91,-1.08 796.57,-0.94zm-3461.1 1548.76l0 418.1c0,112.25 2.07,185.32 6.24,218.68 2.93,26.69 10.45,48.44 21.72,64.7 20.45,30.04 87.62,50.08 201.97,60.08 17.12,1.65 25.46,12.12 25.46,31.74 0,22.12 -8.34,32.94 -25.46,32.94 -131.44,-6.64 -240.37,-9.57 -327.58,-9.57 -92.21,0 -201.15,2.93 -326.74,9.57 -12.95,0 -19.19,-10.82 -19.19,-32.94 0,-18.79 6.24,-29.21 19.19,-31.74 69.28,-5.02 117.26,-12.95 143.15,-23.37 20.44,-7.52 35.45,-19.62 45.47,-36.71 20.02,-35.06 30.47,-144.82 30.47,-328.86l0 -918.03c0,-153.99 -9.6,-246.22 -28.39,-276.26 -18.34,-31.29 -88.47,-51.36 -209.89,-60.08 -15.01,-1.7 -22.12,-11.27 -22.12,-29.21 0,-27.14 7.1,-40.49 22.12,-40.49 136.05,6.67 247.87,9.6 335.9,9.6 25.47,0 82.64,-1.68 172.36,-4.63 149.38,-4.97 229.53,-7.47 240.77,-7.47 430.66,0 645.57,154.39 645.57,463.58 0,331.79 -250.79,497.86 -752.8,497.86 -74.3,0 -140.22,-2.5 -198.22,-7.49zm0 -90.13c58,10.02 123.1,15.01 195.71,15.01 179.85,0 315.89,-41.31 406.86,-123.52 77.62,-69.7 116.43,-163.59 116.43,-282.08 0,-132.3 -45.06,-231.6 -134.8,-298.8 -79.69,-59.68 -190.27,-89.32 -330.91,-89.32 -118.49,0 -191.12,17.55 -217.83,52.58 -23.79,30.49 -35.46,132.72 -35.46,307.54l0 418.58zm-1223.96 -861.32c136.05,6.67 231.6,9.6 286.29,9.6 65.92,0 159.83,-2.93 282.07,-9.6 15.02,0 22.12,13.35 22.12,40.49 0,17.94 -7.09,27.51 -22.12,29.21 -95.95,11.25 -154.38,32.54 -174.84,63.42 -27.54,41.74 -42.55,146.06 -45.05,312.97l-5 304.65c-2.92,210.29 -4.6,362.2 -4.6,455.69 0,195.71 -63.02,346.77 -188.62,453.58 -126.03,106.86 -278.75,160.26 -458.2,160.26 -227.43,0 -411.02,-65.95 -550.43,-198.22 -96.81,-91.81 -145.21,-217.86 -145.21,-377.67l5.02 -480.29 0 -368.07c0,-148.16 -8.35,-237.03 -24.64,-266.64 -17.94,-30.09 -85.11,-50.08 -201.54,-59.68 -15.02,-1.7 -22.12,-11.27 -22.12,-29.21 0,-27.14 7.09,-40.49 22.12,-40.49 132.69,6.67 241.59,9.6 326.3,9.6 89.74,0 197.4,-2.93 323.85,-9.6 14.59,0 22.12,13.35 22.12,40.49 0,17.94 -7.52,27.51 -22.12,29.21 -70.13,6.67 -117.28,14.19 -141.89,23.37 -19.62,7.92 -34.21,20.42 -43.81,36.71 -20.47,35.06 -30.46,140.64 -30.46,316.31l0 322.99 -2.53 347.18c0,128.11 10.88,224.53 32.98,288.8 17.09,49.63 45.91,93.88 86.79,131.84 105.16,97.24 232.85,145.64 383.91,145.64 176.95,0 310.47,-47.55 401.03,-143.11 81.36,-83.89 122.27,-213.26 122.27,-387.69 0,-103.48 0,-202.78 0,-298.34l-2.5 -407.31c-2.53,-169.43 -15.86,-274.98 -40.48,-316.31 -19.62,-32.14 -83.04,-51.73 -190.73,-60.08 -12.92,-1.7 -19.62,-11.27 -19.62,-29.21 0,-27.14 6.7,-40.49 19.62,-40.49zm4532.08 -2803.6c56.35,1.65 126.05,2.5 210.34,2.5 70.1,0 156.05,-3.36 257.9,-10.02 16.26,0 24.18,12.52 24.18,37.98 0,19.62 -7.92,30.04 -24.18,31.72 -106.84,6.67 -170.26,26.28 -190.73,60.07 -20.44,33.38 -30.46,97.67 -30.46,192.8 0,13.38 0,23.4 0,30.89l10.84 970.64c0.86,130.62 4.18,215.33 9.63,254.14 4.99,29.61 14.16,54.25 27.11,74.7 13.77,18.76 34.21,32.14 60.93,40.48 26.29,7.07 71.37,13.78 135.62,19.59 16.69,2.53 24.61,12.95 24.61,31.74 0,22.12 -7.92,32.96 -24.61,32.96 -135.2,-6.67 -246.2,-9.6 -333.41,-9.6 -86.39,0 -191.98,2.93 -316.74,9.6 -11.27,0 -17.09,-10.85 -17.09,-32.96 0,-18.79 5.82,-29.21 17.09,-31.74 106.01,-8.34 168.6,-28.36 188.19,-60.07 20.48,-32.57 30.47,-108.93 30.47,-228.69l-7.07 -1158.83 -28.39 0 -380.17 869.24c-83.86,189.01 -170.67,396 -260.38,620.93 -6.24,14.59 -19.19,22.12 -37.99,22.12 -11.24,0 -20.01,-7.52 -26.68,-22.12 -90.56,-228.28 -169.86,-419.39 -238.28,-573.38l-398.53 -916.79 -27.11 0 -7.1 1058.68c0,18.77 0,32.57 0,41.74 0,151.48 11.67,247.04 35.03,287.11 12.52,18.76 32.14,32.14 58.86,40.48 25.46,7.07 68.02,13.78 128.51,19.59 17.12,1.68 25.46,12.13 25.46,31.74 0,22.12 -8.34,32.96 -25.46,32.96 -121.42,-6.67 -212.38,-9.6 -272.91,-9.6 -78.04,0 -171.93,2.93 -280.82,9.6 -15.02,0 -22.12,-10.85 -22.12,-32.96 0,-19.61 7.09,-30.06 22.12,-31.74 90.95,-8.34 147.28,-29.18 168.57,-62.57 17.94,-32.56 30.04,-70.55 36.74,-113.53 6.24,-44.22 10.84,-115.15 13.34,-212.8l22.12 -999 0 -22.97c0,-85.54 -10.42,-143.14 -30.89,-172.36 -22.51,-29.61 -87.61,-49.65 -195.29,-60.07 -14.58,-1.68 -22.12,-11.28 -22.12,-29.22 0,-27.14 7.53,-40.48 22.12,-40.48 129.37,6.66 219.09,10.02 268.73,10.02 81.79,0 153.99,-0.85 217.84,-2.5 27.54,98.49 60.93,193.18 100.15,283.75l343.44 812.91c20.47,46.3 46.75,107.66 78.47,183.17 33.38,80.97 55.9,135.65 68.42,165.26 70.13,-168.15 120.2,-284.19 150.24,-348.43l322.99 -778.69c42.16,-96.39 81.78,-202.4 118.49,-317.96zm-2003.84 1770.17c-234.1,-8.77 -440.66,-13.38 -620.11,-13.38 -200.3,0 -415.2,4.61 -644.31,13.38 -12.95,0 -19.62,-10.85 -19.62,-32.96 0,-18.79 6.67,-29.21 19.62,-31.74 66.35,-6.67 111.43,-14.16 136.05,-23.37 19.19,-8.34 35.06,-20.44 46.3,-36.7 20.47,-30.07 30.46,-139.79 30.46,-328.84l0 -878.01c0,-130.19 -2.07,-213.65 -5.81,-250.36 -3.35,-27.96 -10.85,-50.51 -22.12,-68.45 -20.47,-30.46 -86.39,-49.23 -198.22,-57.57 -14.61,-1.68 -22.12,-11.28 -22.12,-29.22 0,-27.14 7.5,-40.48 22.12,-40.48 167.76,7.92 375.97,12.09 624.69,12.09 229.93,0 432.31,-4.17 607.59,-12.09 21.26,210.31 35.45,342.61 42.98,396.43l0 7.09c0,14.59 -13.38,22.12 -40.49,22.12 -8.77,0 -15.44,-4.99 -19.62,-14.59 -36.71,-109.75 -90.13,-192.4 -160.23,-247.9 -60.93,-48.8 -186.94,-73.01 -377.67,-73.01 -118.92,0 -191.94,20.04 -218.66,59.68 -17.94,27.11 -27.13,96.81 -27.13,209.06l0 442.34c28.81,1.67 82.21,2.5 160.25,2.5 179.43,0 289.18,-16.69 330.09,-50.08 43.38,-34.64 68.42,-88.04 75.94,-160.66 1.68,-14.59 10.42,-22.12 26.72,-22.12 25.43,0 37.95,7.52 37.95,22.12 -3.32,113.93 -4.99,195.71 -4.99,245.8 0,69.7 1.68,163.58 4.99,280.82 0,14.62 -12.52,22.15 -37.95,22.15 -16.3,0 -25.04,-8.34 -26.72,-24.64 -7.52,-91.81 -34.2,-153.99 -80.96,-185.69 -43.8,-31.72 -152.31,-47.55 -325.06,-47.55 -52.17,0 -105.58,1.64 -160.25,4.99l0 435.67c0,163.58 12.12,263.31 35.48,298.34 17.94,25.89 45.05,43.83 80.93,53.85 35.92,8.74 91.81,13.35 168.61,13.35 122.27,0 217.41,-8.77 286.25,-25.86 57.61,-13.78 109.33,-36.74 155.24,-69.28 66.78,-49.25 128.95,-132.72 186.95,-250.79 5.02,-11.27 10.87,-17.11 18.36,-17.11 31.72,0 47.59,9.17 47.59,27.96l-2.5 12.52c-30.07,131.02 -73.87,267.89 -130.62,410.2zm-1715.5 -1195.14l-75.54 -477.4c-3.33,-30.04 -5,-48.4 -5,-54.65 0,-60.53 37.56,-90.55 112.68,-90.55 73.02,0 109.72,30.89 109.72,92.63 0,6.67 -1.64,25.04 -4.99,55.07l-69.7 474.91c-2.07,15.44 -13.35,23.37 -32.95,23.37 -20.87,0 -32.54,-7.92 -34.21,-23.37zm-384.76 -582.55c7.92,101.83 22.54,235.77 42.55,401.42l0 9.62c0,14.59 -14.16,22.12 -42.55,22.12 -10.02,0 -16.69,-5.02 -20.87,-14.61 -40.88,-119.35 -93.88,-205.31 -160.23,-258.72 -57.6,-46.33 -156.91,-69.7 -297.12,-69.7 -60.11,0 -101.8,4.18 -124.35,12.1 -18.79,6.66 -34.23,19.19 -46.73,37.98 -14.61,23.79 -23.78,54.25 -27.96,91.81 -4.18,39.21 -6.27,110.58 -6.27,214.05l0 916c0,113.07 2.1,186.09 6.27,218.65 4.18,27.97 12.52,50.91 25.43,69.7 14.19,18.77 35.49,32.12 65.1,40.46 27.54,7.52 75.12,13.78 142.71,19.62 15.87,1.68 23.4,12.13 23.4,31.72 0,23.78 -7.52,35.48 -23.4,35.48 -134.37,-6.67 -247.44,-9.6 -339.68,-9.6 -94.7,0 -202.39,2.93 -323.81,9.6 -15.02,0 -22.12,-11.7 -22.12,-35.48 0,-19.59 7.09,-30.04 22.12,-31.72 106.01,-9.17 168.57,-29.21 188.19,-60.08 22.12,-34.23 32.96,-136.04 32.96,-305.47l0 -957.69c0,-137.71 -10.42,-221.58 -30.47,-252.04 -19.59,-30.07 -76.34,-45.08 -170.25,-45.08 -131.87,0 -227.83,23.37 -288.35,69.7 -65.92,53.4 -120.99,139.36 -165.25,258.72 -3.75,9.59 -9.59,14.61 -16.69,14.61 -28.79,0 -42.98,-7.52 -42.98,-22.12l0 -7.09c21.3,-160.66 36.31,-295.45 45.08,-403.95 223.68,7.92 481.58,12.09 774.1,12.09 297.52,0 557.92,-4.17 781.17,-12.09zm-2453.31 1712.99c102.66,-8.34 163.19,-28.36 181.96,-60.07 14.61,-23.79 23.78,-55.93 27.13,-96.42 3.76,-42.55 5.82,-119.74 5.82,-232.42l0 -878.01c0,-130.19 -2.07,-212.8 -5.82,-247.87 -3.35,-27.11 -11.69,-50.08 -24.63,-68.45 -19.59,-30.46 -85.54,-50.48 -198.22,-60.07 -12.92,-1.68 -19.59,-11.28 -19.59,-29.22 0,-27.14 6.67,-40.48 19.59,-40.48 164.85,8.34 273.76,12.52 326.76,12.52 58.43,0 165.25,-4.18 320.06,-12.52 17.12,0 25.86,13.34 25.86,40.48 0,17.94 -8.74,27.54 -25.86,29.22 -102.65,10.42 -163.58,30.46 -181.95,60.07 -22.12,34.24 -33.38,139.82 -33.38,316.31l0 973.57c0,126.03 10.45,204.06 30.89,233.28 12.1,17.94 31.72,30.89 58.43,39.2 27.96,7.95 74.27,15.05 139.36,20.87 16.27,1.68 24.61,12.13 24.61,31.74 0,22.12 -8.34,32.96 -24.61,32.96 -131.87,-6.67 -243.27,-9.6 -333.41,-9.6 -90.56,0 -195.29,2.93 -314.25,9.6 -13.34,0 -19.59,-10.85 -19.59,-32.96 0,-18.79 6.67,-29.21 20.84,-31.74zm-1640.8 -811.63l0 489.07c0,106.4 2.1,175.27 6.27,206.13 3.33,22.12 10.02,42.58 20.87,61.35 17.09,28.39 83.86,47.58 200.29,57.6 17.12,1.65 25.89,11.27 25.89,29.21 0,22.12 -8.77,32.96 -25.89,32.96 -131.02,-6.67 -241.19,-9.6 -330.09,-9.6 -89.7,0 -196.53,2.93 -321.31,9.6 -13.35,0 -19.62,-10.85 -19.62,-32.96 0,-17.94 6.27,-27.96 19.62,-29.21 70.13,-6.7 117.28,-14.62 141.89,-23.4 20.02,-7.49 35.46,-18.76 46.3,-34.2 20.48,-27.97 30.47,-138.97 30.47,-333.84l0 -878.01c0,-177.34 -9.17,-283.75 -27.94,-318.81 -15.44,-28.79 -82.64,-47.98 -200.74,-57.57 -12.92,-1.68 -19.59,-11.28 -19.59,-29.22 0,-27.14 6.67,-40.48 19.59,-40.48 169.03,8.34 279.18,12.52 331.33,12.52 56.36,0 162.34,-4.18 317.99,-12.52 17.12,0 25.47,13.34 25.47,40.48 0,17.12 -8.35,26.72 -25.47,29.22 -71.76,8.34 -119.34,16.26 -143.14,24.61 -17.94,6.27 -31.71,17.51 -41.31,32.95 -20.44,35.06 -30.89,121.02 -30.89,257.9l0 406.02c113.53,5.02 274.59,7.53 483.25,7.53 205.31,0 362.23,-2.51 470.3,-7.53l0 -344.67c0,-182.77 -9.2,-289.17 -27.96,-319.24 -17.12,-28.79 -82.64,-47.98 -196.97,-57.57 -15.44,-1.68 -22.97,-11.28 -22.97,-29.22 0,-27.14 7.09,-40.48 22.12,-40.48 164.44,8.34 275.01,12.52 330.94,12.52 53.82,0 161.08,-4.18 321.74,-12.52 16.26,0 24.61,13.34 24.61,40.48 0,17.94 -8.35,27.54 -24.61,29.22 -106.01,8.34 -168.61,27.11 -188.23,57.57 -20.44,31.72 -30.86,138.14 -30.86,318.81l0 935.59c0,108.92 2.5,181.12 7.5,216.18 3.35,22.94 10.02,42.98 19.61,60.08 12.1,17.11 31.32,29.21 57.61,36.73 29.21,7.92 78.87,15.02 148.95,20.87 12.95,1.25 19.62,11.27 19.62,29.21 0,22.12 -6.67,32.96 -19.62,32.96 -141.03,-6.67 -252.86,-9.6 -336.32,-9.6 -93.49,0 -199.47,2.93 -317.57,9.6 -14.61,0 -22.11,-10.85 -22.11,-32.96 0,-17.94 7.49,-27.56 22.11,-29.21 105.16,-10.02 166.08,-29.21 183.21,-57.6 19.61,-35.06 29.21,-146.46 29.21,-333.84l0 -422.72c-108.08,-8.34 -264.99,-12.52 -470.3,-12.52 -208.66,0 -369.72,4.18 -483.25,12.52zm-1300.58 -7586.93c28.02,24.1 164.07,67.6 152.17,-33.69 -41.4,-6.75 -107.69,16.6 -152.17,33.69zm-94.8 14.93l-183.98 -15.41c16.66,65.32 43.03,119.8 76.37,157.5 61.18,-21.04 84.91,-88.49 107.62,-142.09zm-972.62 -1097.7c61.63,-86.99 57.43,-190.64 196.34,-203.92 70.52,-175.64 134.28,-241.59 354.61,-166.73 230.71,78.39 169.31,-160.4 -38.27,-218.4 -137.72,-38.5 -374.26,-31.38 -455.6,97.38 -54.02,85.45 -90.3,385.75 -57.09,491.68zm4348.84 2745.8l467.49 -10.93c-130.08,166.16 -377.3,352.77 -405.4,580.7l108.56 -80.51c-0.26,338.15 -90.76,640.02 -241.31,876.22 23.14,-159.66 123.44,-410.2 143.14,-682.65 -51.95,26.51 -107.83,102.06 -169.49,130.99 75.01,-392.2 170.4,-438.08 338.07,-731.63 -120.03,1.57 -397.66,19.93 -490.09,-7.52 -16.58,-103.73 100.52,-85.88 323.24,-267.26 268.26,-218.52 731.29,-647.02 760.73,-1030.99 69.84,106.58 57.32,319.13 16.15,446 -145.22,447.5 -534.43,530.92 -851.1,777.59zm-407.16 -1471.29l260.93 89.65c-199.41,199.92 -856.66,167.47 -843.6,-11.76 86.17,-29.01 291.68,123.7 618.75,38.61 -56.84,-40.51 -121.79,-26.23 -165.53,-79.09 7.83,-77.57 150.97,-159.84 210.31,-193.42l-168.07 -16.18 356.49 -54.39c-57.94,115.21 -150.98,153.76 -269.27,226.58zm-1776.22 -263.71c46.25,20.41 262.35,221.46 321.32,267.94 35.06,27.63 77.84,56.53 117.48,85.09 131.16,94.48 326.73,227.17 522.03,268.47 -43.57,-83.92 -126.31,-156.93 -170.82,-238.22 199.01,67.4 287.55,132.27 540.14,162.11 -17.12,-35.03 -11.58,-18.77 -29.5,-43.21 -30.4,-41.48 -8.8,3.7 -29.32,-45.1 108.33,31.94 219,131.18 291.84,189.3 -141.38,18.62 -391.89,-36.85 -522.14,-73.59 24.95,33.98 84.94,109.87 90.67,139.65 -394.05,12.24 -839.62,-327.98 -1080.28,-632.58 -26.65,-33.69 -33.15,-56.86 -51.42,-79.86zm495.99 -542.55c100.9,162.51 37.62,140.98 21.47,150.24 -20.47,-36.25 -19.19,-101.21 -21.47,-150.24zm-1305.8 -530.8c242.5,1.5 734.92,49.14 585.85,406.2 -203.06,-384.85 -400.23,-337.16 -829.03,-300.73 212.15,-322.94 -396.15,-37.28 -582.84,-16.38 138.06,-66.83 1045.82,-426.58 826.02,-89.09zm-1562.84 1930.46c138.37,104.59 267.83,324.35 624.89,339.85 284.69,12.35 535.56,-134.03 798.42,-177.89 293.86,-49 577.9,43.75 733.39,191.01 145.75,138.05 309.78,481.71 99.78,680.07l-33.27 -73.33c-34.37,35.57 -23.95,40.15 -61.1,65.27 -39.86,-26.43 -26.06,-32.28 -53.9,-66.97 -45.26,18.91 -32.71,22.77 -68.65,47.41l-35.94 -89.23c-51.39,29.35 -45.96,57.77 -84.21,97.29 -297.63,-104.07 -273.02,-185.69 -323.55,-273.9 -35.38,30.75 -40.18,49.71 -80.88,68.33 -58.15,-39.06 -22.09,-52.85 -80.88,-90.3 -53.48,48.07 -27.82,87.02 -67.43,128.03 -55.9,-14.61 -48.29,-13.71 -65.58,-82.27 -34.86,-138.22 -52.14,-248.1 -51.86,-393.22 -90.9,76.4 -89.99,319.3 -94.31,422.1 -244.38,126.16 -431.29,172.44 -439.35,490.46l52.29 -69.48c4.73,170.37 -11.96,342.7 73.01,477.17l9.85 -164.1c52.26,76.17 52.78,404.53 63.4,514.65l38.52 169.99c32.54,-112.42 55.61,-255.42 94.48,-364.51 36.71,113.81 18.08,271.68 120.14,507.2 58.09,134.09 193.33,281.17 314.28,328.18l-59.85 -500.73c87.47,126.93 167.44,286.68 293.46,348.25 -190.49,-759.81 507.67,-709.12 886.67,-316.08 172.38,178.76 109.07,433.11 351.29,718.91 -122.5,-370.35 132.9,-206.54 160.89,-179.88 148.93,141.83 674.84,479.67 720.29,537.39 -207.13,176.41 -1728.52,1604.43 -1733.98,1621.27 824.89,-7.13 1524.32,-1.71 2060.54,-0.43 629.17,-1006.35 1069.35,-1586.8 1476.65,-3026.13 180.28,1281.11 -637.34,2678.19 -829.45,3025.42l3794.65 0c-192.11,-347.23 -1009.73,-1744.31 -829.45,-3025.42 407.3,1439.32 847.48,2019.77 1476.65,3026.13 536.22,-1.28 1235.65,-6.7 2060.54,0.43 -5.45,-16.84 -1526.85,-1444.86 -1733.98,-1621.27 45.45,-57.72 571.36,-395.56 720.29,-537.39 27.99,-26.66 283.39,-190.47 160.89,179.88 242.21,-285.8 178.91,-540.15 351.29,-718.91 379,-393.03 1077.16,-443.73 886.67,316.08 126.02,-61.57 205.99,-221.32 293.46,-348.25l-59.85 500.73c120.94,-47.01 256.19,-194.09 314.28,-328.18 102.06,-235.52 83.43,-393.39 120.14,-507.2 38.87,109.09 61.94,252.09 94.48,364.51l38.52 -169.99c10.62,-110.12 11.14,-438.48 63.4,-514.65l9.85 164.1c84.97,-134.48 68.28,-306.8 73.01,-477.17l52.29 69.48c-8.06,-318.02 -194.97,-364.3 -439.35,-490.46 -4.32,-102.8 -3.41,-345.7 -94.31,-422.1 0.28,145.13 -17,255 -51.86,393.22 -17.29,68.57 -9.68,67.66 -65.58,82.27 -39.61,-41.02 -13.95,-79.97 -67.43,-128.03 -58.8,37.45 -22.74,51.25 -80.88,90.3 -40.71,-18.62 -45.5,-37.58 -80.88,-68.33 -50.53,88.21 -25.91,169.83 -323.55,273.9 -38.25,-39.52 -32.83,-67.94 -84.21,-97.29l-35.94 89.23c-35.94,-24.64 -23.39,-28.5 -68.65,-47.41 -27.84,34.69 -14.05,40.54 -53.9,66.97 -37.14,-25.12 -26.72,-29.7 -61.1,-65.27l-33.27 73.33c-210,-198.36 -45.96,-542.01 99.78,-680.07 155.49,-147.25 439.53,-240.01 733.39,-191.01 262.86,43.86 513.73,190.24 798.42,177.89 357.06,-15.5 486.51,-235.26 624.89,-339.85 -117.22,32.82 -278.01,191.15 -516.97,210.85 -454.95,37.5 -1303.68,-495.05 -1791.47,-129.91 60.36,-117.56 219.71,-130.16 293.44,-154.01 3.55,-1.14 8.37,-3.3 11.27,-4.3l22 -10.05c-178.11,-9.85 -341.15,27.09 -475.49,98.75 -398.65,212.63 -481.17,869.46 -380.7,1198.44 52.71,-61.05 62.14,-170.6 136.54,-242.87 37.25,38.86 64.84,93.17 107.63,118.89l48.66 -71.54c23,25.8 16.44,19.19 33.47,47.64l-46.78 35.34c-23.12,17.51 -16.47,17.06 -48.61,30.41 -45.76,-20.79 -74.66,-54.93 -107.86,-80.68 -161.62,193.3 -41.62,617.13 415.03,263.74 -139.05,204.29 -529.49,370.31 -620.65,-151.8 -60.93,-349.17 33.52,-684.24 159.78,-965.36 89.32,-198.84 327.55,-545.24 498.4,-674.24 110.86,-83.67 195.63,-158.33 346.18,-233.56 161.57,-80.71 262.21,-94.06 452.25,-127.84 -165.4,-96.58 -423.63,-126.05 -517.94,22.92 146.68,-248.33 332.33,-145.44 594.28,-53 321.94,113.56 420.76,49.88 677.2,-59.39 -45.22,34.51 -112.62,68.62 -159.09,106.01 34.74,247.13 75.83,358.58 75.46,636.57 107,-46.67 215.19,-326.48 248.04,-422.44 129.6,-378.74 4.55,-388.76 129.06,-517.71 149.44,-154.84 224.98,-530.88 152.7,-758.59 -52.88,-166.7 -90.1,-85.11 -171.04,-123.66 -127.5,-127.1 1.45,-255.91 -343.88,-153.94 -91.04,26.86 -151.74,12.58 -175.84,-69.92 -25.86,-88.64 24.44,-147.03 53.57,-214.09 -197.62,10.74 -352.49,46.28 -507.21,153.05 -43.49,29.93 -81.67,65.73 -121.68,90.82 39.47,28.93 48.24,36.34 93.63,54.08 -314.25,-0.57 -463.69,-100.01 -768.81,81.22 4.29,77.67 10.25,103.65 -6.64,174.22 -27.4,-40.23 -3.5,-304.43 -268.88,-339.71 13.92,25.57 23,30.66 37.54,51.7 -317.99,-49.68 -638.85,75.94 -953.04,119.94l73.3 -42.33c-22.44,-155.21 -4.1,-169.43 42.63,-295.37 -262.91,37.85 -369.29,178.71 -446.14,348.31 -64.98,143.26 -273,1.25 -307.43,322.48 140.73,-60.93 173.95,-39.6 334.85,-55.58l-104.5 -47.19c363.35,-52.54 861.14,115.81 1190.83,258.89 172.75,74.95 209.74,60.59 337.89,-27.17 -10.59,51.31 -35.34,81.05 -75.15,102.69 -131.21,71.25 -123.97,199.32 -317.56,244.52 93.35,-321.03 -335.64,-395.36 -344.36,-47.39 -57.01,-23.61 -145.56,-105.49 -176.95,-154.87 -87.53,-137.45 -22.66,-136.04 -26.6,-244.88 -72.3,-68.96 -263.57,-91.24 -376.39,-92.55 42.64,26.26 113.99,53.51 159.84,73.18 -129.83,3.81 -516.04,-69.16 -595.65,26.77 -27.73,24.56 -33.15,86.4 -45.99,130.42 -154.92,531.43 -570.51,474.99 -605.92,269.33 189.11,269.47 536.82,-192.54 588.57,-435.64 76.94,-361.6 -82.07,-559.84 9.91,-1050.07 -699.95,0 -957.18,877.61 -1195.14,1113.47 -123.95,-35.54 -417.02,-68.59 -521.58,12.98 84.52,2.81 178.46,8.4 248.21,46.47 -96.52,63.03 -422.38,-1.16 -601.31,510.79 101.71,-99.27 198.21,-222.12 405,-242.96 -263.4,342.78 -672.47,662.39 -784.52,1127.26l228.4 -109.04c-116.8,175.36 -269.76,587.53 -311.18,838.18 42.02,-32.09 37.45,-41.8 79.81,-59.96 -82.13,334.99 -136.52,675.63 -171.79,1019.92 -35.26,-344.28 -89.65,-684.92 -171.79,-1019.92 42.36,18.16 37.79,27.87 79.81,59.96 -41.42,-250.65 -194.38,-662.82 -311.18,-838.18l228.4 109.04c-112.05,-464.88 -521.12,-784.49 -784.52,-1127.26 206.79,20.84 303.29,143.69 405,242.96 -178.93,-511.95 -504.79,-447.75 -601.31,-510.79 69.75,-38.07 163.69,-43.66 248.21,-46.47 -104.56,-81.56 -397.63,-48.52 -521.58,-12.98 -237.96,-235.86 -495.19,-1113.47 -1195.14,-1113.47 91.98,490.24 -67.03,688.48 9.91,1050.07 51.76,243.1 399.47,705.11 588.57,435.64 -35.4,205.65 -451,262.09 -605.92,-269.33 -12.84,-44.02 -18.26,-105.86 -45.99,-130.42 -79.61,-95.93 -465.82,-22.97 -595.65,-26.77 45.85,-19.67 117.2,-46.92 159.84,-73.18 -112.82,1.31 -304.09,23.59 -376.39,92.55 -3.95,108.84 60.93,107.43 -26.6,244.88 -31.4,49.38 -119.94,131.25 -176.95,154.87 -8.72,-347.97 -437.72,-273.64 -344.36,47.39 -193.59,-45.2 -186.35,-173.27 -317.56,-244.52 -39.81,-21.64 -64.56,-51.39 -75.15,-102.69 128.15,87.76 165.14,102.12 337.89,27.17 329.69,-143.08 827.47,-311.43 1190.83,-258.89l-104.5 47.19c160.91,15.98 194.12,-5.34 334.85,55.58 -34.43,-321.23 -242.45,-179.22 -307.43,-322.48 -76.85,-169.6 -183.23,-310.46 -446.14,-348.31 46.73,125.94 65.07,140.16 42.63,295.37l73.3 42.33c-314.19,-44 -635.05,-169.62 -953.04,-119.94 14.54,-21.04 23.62,-26.12 37.54,-51.7 -265.39,35.28 -241.48,299.48 -268.88,339.71 -16.89,-70.58 -10.93,-96.56 -6.64,-174.22 -305.13,-181.24 -454.57,-81.79 -768.81,-81.22 45.39,-17.74 54.16,-25.15 93.63,-54.08 -40.01,-25.09 -78.19,-60.9 -121.68,-90.82 -154.73,-106.77 -309.59,-142.31 -507.21,-153.05 29.13,67.06 79.44,125.46 53.57,214.09 -24.1,82.49 -84.8,96.78 -175.84,69.92 -345.33,-101.97 -216.38,26.83 -343.88,153.94 -80.93,38.55 -118.15,-43.04 -171.04,123.66 -72.28,227.72 3.26,603.76 152.7,758.59 124.52,128.95 -0.54,138.97 129.06,517.71 32.85,95.96 141.04,375.77 248.04,422.44 -0.37,-277.99 40.72,-389.45 75.46,-636.57 -46.47,-37.39 -113.87,-71.49 -159.09,-106.01 256.44,109.26 355.26,172.95 677.2,59.39 261.95,-92.43 447.59,-195.32 594.28,53 -94.31,-148.96 -352.54,-119.49 -517.94,-22.92 190.04,33.78 290.68,47.13 452.25,127.84 150.55,75.23 235.32,149.89 346.18,233.56 170.85,129 409.09,475.41 498.4,674.24 126.26,281.12 220.71,616.2 159.78,965.36 -91.16,522.11 -481.6,356.09 -620.65,151.8 456.64,353.39 576.65,-70.44 415.03,-263.74 -33.19,25.75 -62.09,59.9 -107.86,80.68 -32.14,-13.35 -25.49,-12.9 -48.61,-30.41l-46.78 -35.34c17.03,-28.45 10.48,-21.84 33.47,-47.64l48.66 71.54c42.78,-25.72 70.38,-80.03 107.63,-118.89 74.4,72.27 83.83,181.83 136.54,242.87 100.47,-328.98 17.95,-985.8 -380.7,-1198.44 -134.35,-71.65 -297.38,-108.59 -475.49,-98.75l22 10.05c2.9,1 7.72,3.16 11.27,4.3 73.73,23.84 233.08,36.45 293.44,154.01 -487.79,-365.14 -1336.52,167.41 -1791.47,129.91 -238.96,-19.7 -399.76,-178.03 -516.97,-210.85zm12230.95 -770.21l183.98 -15.41c-16.66,65.32 -43.03,119.8 -76.37,157.5 -61.18,-21.04 -84.91,-88.49 -107.62,-142.09zm972.62 -1097.7c-61.63,-86.99 -57.43,-190.64 -196.34,-203.92 -70.52,-175.64 -134.28,-241.59 -354.61,-166.73 -230.71,78.39 -169.31,-160.4 38.27,-218.4 137.72,-38.5 374.26,-31.38 455.6,97.38 54.02,85.45 90.3,385.75 57.09,491.68zm-4348.84 2745.8l-467.49 -10.93c130.08,166.16 377.3,352.77 405.4,580.7l-108.56 -80.51c0.26,338.15 90.76,640.02 241.31,876.22 -23.14,-159.66 -123.44,-410.2 -143.14,-682.65 51.95,26.51 107.83,102.06 169.49,130.99 -75.01,-392.2 -170.4,-438.08 -338.07,-731.63 120.03,1.57 397.66,19.93 490.09,-7.52 16.58,-103.73 -100.52,-85.88 -323.24,-267.26 -268.26,-218.52 -731.29,-647.02 -760.73,-1030.99 -69.84,106.58 -57.32,319.13 -16.15,446 145.22,447.5 534.43,530.92 851.1,777.59zm407.16 -1471.29l-260.93 89.65c199.41,199.92 856.66,167.47 843.6,-11.76 -86.17,-29.01 -291.68,123.7 -618.75,38.61 56.84,-40.51 121.79,-26.23 165.53,-79.09 -7.83,-77.57 -150.97,-159.84 -210.31,-193.42l168.07 -16.18 -356.49 -54.39c57.94,115.21 150.98,153.76 269.27,226.58zm1776.22 -263.71c-46.25,20.41 -262.35,221.46 -321.32,267.94 -35.06,27.63 -77.84,56.53 -117.48,85.09 -131.16,94.48 -326.73,227.17 -522.03,268.47 43.57,-83.92 126.31,-156.93 170.82,-238.22 -199.01,67.4 -287.55,132.27 -540.14,162.11 17.12,-35.03 11.58,-18.77 29.5,-43.21 30.4,-41.48 8.8,3.7 29.32,-45.1 -108.33,31.94 -219,131.18 -291.84,189.3 141.38,18.62 391.89,-36.85 522.14,-73.59 -24.95,33.98 -84.94,109.87 -90.67,139.65 394.05,12.24 839.62,-327.98 1080.28,-632.58 26.65,-33.69 33.15,-56.86 51.42,-79.86zm-495.99 -542.55c-100.9,162.51 -37.62,140.98 -21.47,150.24 20.47,-36.25 19.19,-101.21 21.47,-150.24zm1305.8 -530.8c-242.5,1.5 -734.92,49.14 -585.85,406.2 203.06,-384.85 400.23,-337.16 829.03,-300.73 -212.15,-322.94 396.15,-37.28 582.84,-16.38 -138.06,-66.83 -1045.82,-426.58 -826.02,-89.09z"/>
  <path class="fil0" d="M12136.15 1995.33c-28.02,24.1 -164.07,67.6 -152.17,-33.69 41.4,-6.75 107.69,16.6 152.17,33.69zm-3656 6137.62l4930.6 34.69c-1892.5,34.74 -4320.46,34.83 -6224.77,42.72 -160.21,0.65 -320.38,0.96 -480.61,0.99 -160.23,-0.03 -320.4,-0.34 -480.61,-0.99 -1904.31,-7.89 -4332.27,-7.98 -6224.77,-42.72l4930.6 -34.69c17.06,-0.14 757.84,-0.2 1774.77,0.94 1016.94,-1.14 1757.71,-1.08 1774.77,-0.94zm-4402.62 2761.76l1992.06 34.69c-849.42,34.75 -1718.21,34.83 -2572.94,42.72 -71.88,0.66 -143.8,0.97 -215.71,1 -71.9,-0.03 -143.82,-0.34 -215.7,-1 -854.72,-7.89 -2215.83,-7.97 -3065.24,-42.72l2484.37 -34.69c7.66,-0.14 340.13,-0.2 796.57,0.94 456.45,-1.14 788.92,-1.08 796.58,-0.94zm6848.86 0l2484.37 34.69c-849.42,34.75 -2210.52,34.83 -3065.24,42.72 -71.88,0.66 -143.8,0.97 -215.7,1 -71.91,-0.03 -143.83,-0.34 -215.71,-1 -854.72,-7.89 -1723.52,-7.97 -2572.94,-42.72l1992.06 -34.69c7.66,-0.14 340.14,-0.2 796.58,0.94 456.45,-1.14 788.91,-1.08 796.57,-0.94zm-3461.1 1548.76l0 418.1c0,112.25 2.07,185.32 6.24,218.68 2.93,26.69 10.45,48.44 21.72,64.7 20.45,30.04 87.62,50.08 201.97,60.08 17.12,1.65 25.46,12.12 25.46,31.74 0,22.12 -8.34,32.94 -25.46,32.94 -131.44,-6.64 -240.37,-9.57 -327.58,-9.57 -92.21,0 -201.15,2.93 -326.74,9.57 -12.95,0 -19.19,-10.82 -19.19,-32.94 0,-18.79 6.24,-29.21 19.19,-31.74 69.28,-5.02 117.26,-12.95 143.15,-23.37 20.44,-7.52 35.45,-19.62 45.47,-36.71 20.02,-35.06 30.47,-144.82 30.47,-328.86l0 -918.03c0,-153.99 -9.6,-246.22 -28.39,-276.26 -18.34,-31.29 -88.47,-51.36 -209.89,-60.08 -15.01,-1.7 -22.12,-11.27 -22.12,-29.21 0,-27.14 7.1,-40.49 22.12,-40.49 136.05,6.67 247.87,9.6 335.9,9.6 25.47,0 82.64,-1.68 172.36,-4.63 149.38,-4.97 229.53,-7.47 240.77,-7.47 430.66,0 645.57,154.39 645.57,463.58 0,331.79 -250.79,497.86 -752.8,497.86 -74.3,0 -140.22,-2.5 -198.22,-7.49zm0 -90.13c58,10.02 123.1,15.01 195.71,15.01 179.85,0 315.89,-41.31 406.86,-123.52 77.62,-69.7 116.43,-163.59 116.43,-282.08 0,-132.3 -45.06,-231.6 -134.8,-298.8 -79.69,-59.68 -190.27,-89.32 -330.91,-89.32 -118.49,0 -191.12,17.55 -217.83,52.58 -23.79,30.49 -35.46,132.72 -35.46,307.54l0 418.58zm-1223.96 -861.32c136.05,6.67 231.6,9.6 286.29,9.6 65.92,0 159.83,-2.93 282.07,-9.6 15.02,0 22.12,13.35 22.12,40.49 0,17.94 -7.09,27.51 -22.12,29.21 -95.95,11.25 -154.38,32.54 -174.84,63.42 -27.54,41.74 -42.55,146.06 -45.05,312.97l-5 304.65c-2.92,210.29 -4.6,362.2 -4.6,455.69 0,195.71 -63.02,346.77 -188.62,453.58 -126.03,106.86 -278.75,160.26 -458.2,160.26 -227.43,0 -411.02,-65.95 -550.43,-198.22 -96.81,-91.81 -145.21,-217.86 -145.21,-377.67l5.02 -480.29 0 -368.07c0,-148.16 -8.35,-237.03 -24.64,-266.64 -17.94,-30.09 -85.11,-50.08 -201.54,-59.68 -15.02,-1.7 -22.12,-11.27 -22.12,-29.21 0,-27.14 7.09,-40.49 22.12,-40.49 132.69,6.67 241.59,9.6 326.3,9.6 89.74,0 197.4,-2.93 323.85,-9.6 14.59,0 22.12,13.35 22.12,40.49 0,17.94 -7.52,27.51 -22.12,29.21 -70.13,6.67 -117.28,14.19 -141.89,23.37 -19.62,7.92 -34.21,20.42 -43.81,36.71 -20.47,35.06 -30.46,140.64 -30.46,316.31l0 322.99 -2.53 347.18c0,128.11 10.88,224.53 32.98,288.8 17.09,49.63 45.91,93.88 86.79,131.84 105.16,97.24 232.85,145.64 383.91,145.64 176.95,0 310.47,-47.55 401.03,-143.11 81.36,-83.89 122.27,-213.26 122.27,-387.69 0,-103.48 0,-202.78 0,-298.34l-2.5 -407.31c-2.53,-169.43 -15.86,-274.98 -40.48,-316.31 -19.62,-32.14 -83.04,-51.73 -190.73,-60.08 -12.92,-1.7 -19.62,-11.27 -19.62,-29.21 0,-27.14 6.7,-40.49 19.62,-40.49zm4532.08 -2803.6c56.35,1.65 126.05,2.5 210.34,2.5 70.1,0 156.05,-3.36 257.9,-10.02 16.26,0 24.18,12.52 24.18,37.98 0,19.62 -7.92,30.04 -24.18,31.72 -106.84,6.67 -170.26,26.28 -190.73,60.07 -20.44,33.38 -30.46,97.67 -30.46,192.8 0,13.38 0,23.4 0,30.89l10.84 970.64c0.86,130.62 4.18,215.33 9.63,254.14 4.99,29.61 14.16,54.25 27.11,74.7 13.77,18.76 34.21,32.14 60.93,40.48 26.29,7.07 71.37,13.78 135.62,19.59 16.69,2.53 24.61,12.95 24.61,31.74 0,22.12 -7.92,32.96 -24.61,32.96 -135.2,-6.67 -246.2,-9.6 -333.41,-9.6 -86.39,0 -191.98,2.93 -316.74,9.6 -11.27,0 -17.09,-10.85 -17.09,-32.96 0,-18.79 5.82,-29.21 17.09,-31.74 106.01,-8.34 168.6,-28.36 188.19,-60.07 20.48,-32.57 30.47,-108.93 30.47,-228.69l-7.07 -1158.83 -28.39 0 -380.17 869.24c-83.86,189.01 -170.67,396 -260.38,620.93 -6.24,14.59 -19.19,22.12 -37.99,22.12 -11.24,0 -20.01,-7.52 -26.68,-22.12 -90.56,-228.28 -169.86,-419.39 -238.28,-573.38l-398.53 -916.79 -27.11 0 -7.1 1058.68c0,18.77 0,32.57 0,41.74 0,151.48 11.67,247.04 35.03,287.11 12.52,18.76 32.14,32.14 58.86,40.48 25.46,7.07 68.02,13.78 128.51,19.59 17.12,1.68 25.46,12.13 25.46,31.74 0,22.12 -8.34,32.96 -25.46,32.96 -121.42,-6.67 -212.38,-9.6 -272.91,-9.6 -78.04,0 -171.93,2.93 -280.82,9.6 -15.02,0 -22.12,-10.85 -22.12,-32.96 0,-19.61 7.09,-30.06 22.12,-31.74 90.95,-8.34 147.28,-29.18 168.57,-62.57 17.94,-32.56 30.04,-70.55 36.74,-113.53 6.24,-44.22 10.84,-115.15 13.34,-212.8l22.12 -999 0 -22.97c0,-85.54 -10.42,-143.14 -30.89,-172.36 -22.51,-29.61 -87.61,-49.65 -195.29,-60.07 -14.58,-1.68 -22.12,-11.28 -22.12,-29.22 0,-27.14 7.53,-40.48 22.12,-40.48 129.37,6.66 219.09,10.02 268.73,10.02 81.79,0 153.99,-0.85 217.84,-2.5 27.54,98.49 60.93,193.18 100.15,283.75l343.44 812.91c20.47,46.3 46.75,107.66 78.47,183.17 33.38,80.97 55.9,135.65 68.42,165.26 70.13,-168.15 120.2,-284.19 150.24,-348.43l322.99 -778.69c42.16,-96.39 81.78,-202.4 118.49,-317.96zm-2003.84 1770.17c-234.1,-8.77 -440.66,-13.38 -620.11,-13.38 -200.3,0 -415.2,4.61 -644.31,13.38 -12.95,0 -19.62,-10.85 -19.62,-32.96 0,-18.79 6.67,-29.21 19.62,-31.74 66.35,-6.67 111.43,-14.16 136.05,-23.37 19.19,-8.34 35.06,-20.44 46.3,-36.7 20.47,-30.07 30.46,-139.79 30.46,-328.84l0 -878.01c0,-130.19 -2.07,-213.65 -5.81,-250.36 -3.35,-27.96 -10.85,-50.51 -22.12,-68.45 -20.47,-30.46 -86.39,-49.23 -198.22,-57.57 -14.61,-1.68 -22.12,-11.28 -22.12,-29.22 0,-27.14 7.5,-40.48 22.12,-40.48 167.76,7.92 375.97,12.09 624.69,12.09 229.93,0 432.31,-4.17 607.59,-12.09 21.26,210.31 35.45,342.61 42.98,396.43l0 7.09c0,14.59 -13.38,22.12 -40.49,22.12 -8.77,0 -15.44,-4.99 -19.62,-14.59 -36.71,-109.75 -90.13,-192.4 -160.23,-247.9 -60.93,-48.8 -186.94,-73.01 -377.67,-73.01 -118.92,0 -191.94,20.04 -218.66,59.68 -17.94,27.11 -27.13,96.81 -27.13,209.06l0 442.34c28.81,1.67 82.21,2.5 160.25,2.5 179.43,0 289.18,-16.69 330.09,-50.08 43.38,-34.64 68.42,-88.04 75.94,-160.66 1.68,-14.59 10.42,-22.12 26.72,-22.12 25.43,0 37.95,7.52 37.95,22.12 -3.32,113.93 -4.99,195.71 -4.99,245.8 0,69.7 1.68,163.58 4.99,280.82 0,14.62 -12.52,22.15 -37.95,22.15 -16.3,0 -25.04,-8.34 -26.72,-24.64 -7.52,-91.81 -34.2,-153.99 -80.96,-185.69 -43.8,-31.72 -152.31,-47.55 -325.06,-47.55 -52.17,0 -105.58,1.64 -160.25,4.99l0 435.67c0,163.58 12.12,263.31 35.48,298.34 17.94,25.89 45.05,43.83 80.93,53.85 35.92,8.74 91.81,13.35 168.61,13.35 122.27,0 217.41,-8.77 286.25,-25.86 57.61,-13.78 109.33,-36.74 155.24,-69.28 66.78,-49.25 128.95,-132.72 186.95,-250.79 5.02,-11.27 10.87,-17.11 18.36,-17.11 31.72,0 47.59,9.17 47.59,27.96l-2.5 12.52c-30.07,131.02 -73.87,267.89 -130.62,410.2zm-1715.5 -1195.14l-75.54 -477.4c-3.33,-30.04 -5,-48.4 -5,-54.65 0,-60.53 37.56,-90.55 112.68,-90.55 73.02,0 109.72,30.89 109.72,92.63 0,6.67 -1.64,25.04 -4.99,55.07l-69.7 474.91c-2.07,15.44 -13.35,23.37 -32.95,23.37 -20.87,0 -32.54,-7.92 -34.21,-23.37zm-384.76 -582.55c7.92,101.83 22.54,235.77 42.55,401.42l0 9.62c0,14.59 -14.16,22.12 -42.55,22.12 -10.02,0 -16.69,-5.02 -20.87,-14.61 -40.88,-119.35 -93.88,-205.31 -160.23,-258.72 -57.6,-46.33 -156.91,-69.7 -297.12,-69.7 -60.11,0 -101.8,4.18 -124.35,12.1 -18.79,6.66 -34.23,19.19 -46.73,37.98 -14.61,23.79 -23.78,54.25 -27.96,91.81 -4.18,39.21 -6.27,110.58 -6.27,214.05l0 916c0,113.07 2.1,186.09 6.27,218.65 4.18,27.97 12.52,50.91 25.43,69.7 14.19,18.77 35.49,32.12 65.1,40.46 27.54,7.52 75.12,13.78 142.71,19.62 15.87,1.68 23.4,12.13 23.4,31.72 0,23.78 -7.52,35.48 -23.4,35.48 -134.37,-6.67 -247.44,-9.6 -339.68,-9.6 -94.7,0 -202.39,2.93 -323.81,9.6 -15.02,0 -22.12,-11.7 -22.12,-35.48 0,-19.59 7.09,-30.04 22.12,-31.72 106.01,-9.17 168.57,-29.21 188.19,-60.08 22.12,-34.23 32.96,-136.04 32.96,-305.47l0 -957.69c0,-137.71 -10.42,-221.58 -30.47,-252.04 -19.59,-30.07 -76.34,-45.08 -170.25,-45.08 -131.87,0 -227.83,23.37 -288.35,69.7 -65.92,53.4 -120.99,139.36 -165.25,258.72 -3.75,9.59 -9.59,14.61 -16.69,14.61 -28.79,0 -42.98,-7.52 -42.98,-22.12l0 -7.09c21.3,-160.66 36.31,-295.45 45.08,-403.95 223.68,7.92 481.58,12.09 774.1,12.09 297.52,0 557.92,-4.17 781.17,-12.09zm-2453.31 1712.99c102.66,-8.34 163.19,-28.36 181.96,-60.07 14.61,-23.79 23.78,-55.93 27.13,-96.42 3.76,-42.55 5.82,-119.74 5.82,-232.42l0 -878.01c0,-130.19 -2.07,-212.8 -5.82,-247.87 -3.35,-27.11 -11.69,-50.08 -24.63,-68.45 -19.59,-30.46 -85.54,-50.48 -198.22,-60.07 -12.92,-1.68 -19.59,-11.28 -19.59,-29.22 0,-27.14 6.67,-40.48 19.59,-40.48 164.85,8.34 273.76,12.52 326.76,12.52 58.43,0 165.25,-4.18 320.06,-12.52 17.12,0 25.86,13.34 25.86,40.48 0,17.94 -8.74,27.54 -25.86,29.22 -102.65,10.42 -163.58,30.46 -181.95,60.07 -22.12,34.24 -33.38,139.82 -33.38,316.31l0 973.57c0,126.03 10.45,204.06 30.89,233.28 12.1,17.94 31.72,30.89 58.43,39.2 27.96,7.95 74.27,15.05 139.36,20.87 16.27,1.68 24.61,12.13 24.61,31.74 0,22.12 -8.34,32.96 -24.61,32.96 -131.87,-6.67 -243.27,-9.6 -333.41,-9.6 -90.56,0 -195.29,2.93 -314.25,9.6 -13.34,0 -19.59,-10.85 -19.59,-32.96 0,-18.79 6.67,-29.21 20.84,-31.74zm-1640.8 -811.63l0 489.07c0,106.4 2.1,175.27 6.27,206.13 3.33,22.12 10.02,42.58 20.87,61.35 17.09,28.39 83.86,47.58 200.29,57.6 17.12,1.65 25.89,11.27 25.89,29.21 0,22.12 -8.77,32.96 -25.89,32.96 -131.02,-6.67 -241.19,-9.6 -330.09,-9.6 -89.7,0 -196.53,2.93 -321.31,9.6 -13.35,0 -19.62,-10.85 -19.62,-32.96 0,-17.94 6.27,-27.96 19.62,-29.21 70.13,-6.7 117.28,-14.62 141.89,-23.4 20.02,-7.49 35.46,-18.76 46.3,-34.2 20.48,-27.97 30.47,-138.97 30.47,-333.84l0 -878.01c0,-177.34 -9.17,-283.75 -27.94,-318.81 -15.44,-28.79 -82.64,-47.98 -200.74,-57.57 -12.92,-1.68 -19.59,-11.28 -19.59,-29.22 0,-27.14 6.67,-40.48 19.59,-40.48 169.03,8.34 279.18,12.52 331.33,12.52 56.36,0 162.34,-4.18 317.99,-12.52 17.12,0 25.47,13.34 25.47,40.48 0,17.12 -8.35,26.72 -25.47,29.22 -71.76,8.34 -119.34,16.26 -143.14,24.61 -17.94,6.27 -31.71,17.51 -41.31,32.95 -20.44,35.06 -30.89,121.02 -30.89,257.9l0 406.02c113.53,5.02 274.59,7.53 483.25,7.53 205.31,0 362.23,-2.51 470.3,-7.53l0 -344.67c0,-182.77 -9.2,-289.17 -27.96,-319.24 -17.12,-28.79 -82.64,-47.98 -196.97,-57.57 -15.44,-1.68 -22.97,-11.28 -22.97,-29.22 0,-27.14 7.09,-40.48 22.12,-40.48 164.44,8.34 275.01,12.52 330.94,12.52 53.82,0 161.08,-4.18 321.74,-12.52 16.26,0 24.61,13.34 24.61,40.48 0,17.94 -8.35,27.54 -24.61,29.22 -106.01,8.34 -168.61,27.11 -188.23,57.57 -20.44,31.72 -30.86,138.14 -30.86,318.81l0 935.59c0,108.92 2.5,181.12 7.5,216.18 3.35,22.94 10.02,42.98 19.61,60.08 12.1,17.11 31.32,29.21 57.61,36.73 29.21,7.92 78.87,15.02 148.95,20.87 12.95,1.25 19.62,11.27 19.62,29.21 0,22.12 -6.67,32.96 -19.62,32.96 -141.03,-6.67 -252.86,-9.6 -336.32,-9.6 -93.49,0 -199.47,2.93 -317.57,9.6 -14.61,0 -22.11,-10.85 -22.11,-32.96 0,-17.94 7.49,-27.56 22.11,-29.21 105.16,-10.02 166.08,-29.21 183.21,-57.6 19.61,-35.06 29.21,-146.46 29.21,-333.84l0 -422.72c-108.08,-8.34 -264.99,-12.52 -470.3,-12.52 -208.66,0 -369.72,4.18 -483.25,12.52zm-1300.58 -7586.93c28.02,24.1 164.07,67.6 152.17,-33.69 -41.4,-6.75 -107.69,16.6 -152.17,33.69zm-94.8 14.93l-183.98 -15.41c16.66,65.32 43.03,119.8 76.37,157.5 61.18,-21.04 84.91,-88.49 107.62,-142.09zm-972.62 -1097.7c61.63,-86.99 57.43,-190.64 196.34,-203.92 70.52,-175.64 134.28,-241.59 354.61,-166.73 230.71,78.39 169.31,-160.4 -38.27,-218.4 -137.72,-38.5 -374.26,-31.38 -455.6,97.38 -54.02,85.45 -90.3,385.75 -57.09,491.68zm4348.84 2745.8l467.49 -10.93c-130.08,166.16 -377.3,352.77 -405.4,580.7l108.56 -80.51c-0.26,338.15 -90.76,640.02 -241.31,876.22 23.14,-159.66 123.44,-410.2 143.14,-682.65 -51.95,26.51 -107.83,102.06 -169.49,130.99 75.01,-392.2 170.4,-438.08 338.07,-731.63 -120.03,1.57 -397.66,19.93 -490.09,-7.52 -16.58,-103.73 100.52,-85.88 323.24,-267.26 268.26,-218.52 731.29,-647.02 760.73,-1030.99 69.84,106.58 57.32,319.13 16.15,446 -145.22,447.5 -534.43,530.92 -851.1,777.59zm-407.16 -1471.29l260.93 89.65c-199.41,199.92 -856.66,167.47 -843.6,-11.76 86.17,-29.01 291.68,123.7 618.75,38.61 -56.84,-40.51 -121.79,-26.23 -165.53,-79.09 7.83,-77.57 150.97,-159.84 210.31,-193.42l-168.07 -16.18 356.49 -54.39c-57.94,115.21 -150.98,153.76 -269.27,226.58zm-1776.22 -263.71c46.25,20.41 262.35,221.46 321.32,267.94 35.06,27.63 77.84,56.53 117.48,85.09 131.16,94.48 326.73,227.17 522.03,268.47 -43.57,-83.92 -126.31,-156.93 -170.82,-238.22 199.01,67.4 287.55,132.27 540.14,162.11 -17.12,-35.03 -11.58,-18.77 -29.5,-43.21 -30.4,-41.48 -8.8,3.7 -29.32,-45.1 108.33,31.94 219,131.18 291.84,189.3 -141.38,18.62 -391.89,-36.85 -522.14,-73.59 24.95,33.98 84.94,109.87 90.67,139.65 -394.05,12.24 -839.62,-327.98 -1080.28,-632.58 -26.65,-33.69 -33.15,-56.86 -51.42,-79.86zm495.99 -542.55c100.9,162.51 37.62,140.98 21.47,150.24 -20.47,-36.25 -19.19,-101.21 -21.47,-150.24zm-1305.8 -530.8c242.5,1.5 734.92,49.14 585.85,406.2 -203.06,-384.85 -400.23,-337.16 -829.03,-300.73 212.15,-322.94 -396.15,-37.28 -582.84,-16.38 138.06,-66.83 1045.82,-426.58 826.02,-89.09zm-1562.84 1930.46c138.37,104.59 267.83,324.35 624.89,339.85 284.69,12.35 535.56,-134.03 798.42,-177.89 293.86,-49 577.9,43.75 733.39,191.01 145.75,138.05 309.78,481.71 99.78,680.07l-33.27 -73.33c-34.37,35.57 -23.95,40.15 -61.1,65.27 -39.86,-26.43 -26.06,-32.28 -53.9,-66.97 -45.26,18.91 -32.71,22.77 -68.65,47.41l-35.94 -89.23c-51.39,29.35 -45.96,57.77 -84.21,97.29 -297.63,-104.07 -273.02,-185.69 -323.55,-273.9 -35.38,30.75 -40.18,49.71 -80.88,68.33 -58.15,-39.06 -22.09,-52.85 -80.88,-90.3 -53.48,48.07 -27.82,87.02 -67.43,128.03 -55.9,-14.61 -48.29,-13.71 -65.58,-82.27 -34.86,-138.22 -52.14,-248.1 -51.86,-393.22 -90.9,76.4 -89.99,319.3 -94.31,422.1 -244.38,126.16 -431.29,172.44 -439.35,490.46l52.29 -69.48c4.73,170.37 -11.96,342.7 73.01,477.17l9.85 -164.1c52.26,76.17 52.78,404.53 63.4,514.65l38.52 169.99c32.54,-112.42 55.61,-255.42 94.48,-364.51 36.71,113.81 18.08,271.68 120.14,507.2 58.09,134.09 193.33,281.17 314.28,328.18l-59.85 -500.73c87.47,126.93 167.44,286.68 293.46,348.25 -190.49,-759.81 507.67,-709.12 886.67,-316.08 172.38,178.76 109.07,433.11 351.29,718.91 -122.5,-370.35 132.9,-206.54 160.89,-179.88 148.93,141.83 674.84,479.67 720.29,537.39 -207.13,176.41 -1728.52,1604.43 -1733.98,1621.27 824.89,-7.13 1524.32,-1.71 2060.54,-0.43 629.17,-1006.35 1069.35,-1586.8 1476.65,-3026.13 180.28,1281.11 -637.34,2678.19 -829.45,3025.42l3794.65 0c-192.11,-347.23 -1009.73,-1744.31 -829.45,-3025.42 407.3,1439.32 847.48,2019.77 1476.65,3026.13 536.22,-1.28 1235.65,-6.7 2060.54,0.43 -5.45,-16.84 -1526.85,-1444.86 -1733.98,-1621.27 45.45,-57.72 571.36,-395.56 720.29,-537.39 27.99,-26.66 283.39,-190.47 160.89,179.88 242.21,-285.8 178.91,-540.15 351.29,-718.91 379,-393.03 1077.16,-443.73 886.67,316.08 126.02,-61.57 205.99,-221.32 293.46,-348.25l-59.85 500.73c120.94,-47.01 256.19,-194.09 314.28,-328.18 102.06,-235.52 83.43,-393.39 120.14,-507.2 38.87,109.09 61.94,252.09 94.48,364.51l38.52 -169.99c10.62,-110.12 11.14,-438.48 63.4,-514.65l9.85 164.1c84.97,-134.48 68.28,-306.8 73.01,-477.17l52.29 69.48c-8.06,-318.02 -194.97,-364.3 -439.35,-490.46 -4.32,-102.8 -3.41,-345.7 -94.31,-422.1 0.28,145.13 -17,255 -51.86,393.22 -17.29,68.57 -9.68,67.66 -65.58,82.27 -39.61,-41.02 -13.95,-79.97 -67.43,-128.03 -58.8,37.45 -22.74,51.25 -80.88,90.3 -40.71,-18.62 -45.5,-37.58 -80.88,-68.33 -50.53,88.21 -25.91,169.83 -323.55,273.9 -38.25,-39.52 -32.83,-67.94 -84.21,-97.29l-35.94 89.23c-35.94,-24.64 -23.39,-28.5 -68.65,-47.41 -27.84,34.69 -14.05,40.54 -53.9,66.97 -37.14,-25.12 -26.72,-29.7 -61.1,-65.27l-33.27 73.33c-210,-198.36 -45.96,-542.01 99.78,-680.07 155.49,-147.25 439.53,-240.01 733.39,-191.01 262.86,43.86 513.73,190.24 798.42,177.89 357.06,-15.5 486.51,-235.26 624.89,-339.85 -117.22,32.82 -278.01,191.15 -516.97,210.85 -454.95,37.5 -1303.68,-495.05 -1791.47,-129.91 60.36,-117.56 219.71,-130.16 293.44,-154.01 3.55,-1.14 8.37,-3.3 11.27,-4.3l22 -10.05c-178.11,-9.85 -341.15,27.09 -475.49,98.75 -398.65,212.63 -481.17,869.46 -380.7,1198.44 52.71,-61.05 62.14,-170.6 136.54,-242.87 37.25,38.86 64.84,93.17 107.63,118.89l48.66 -71.54c23,25.8 16.44,19.19 33.47,47.64l-46.78 35.34c-23.12,17.51 -16.47,17.06 -48.61,30.41 -45.76,-20.79 -74.66,-54.93 -107.86,-80.68 -161.62,193.3 -41.62,617.13 415.03,263.74 -139.05,204.29 -529.49,370.31 -620.65,-151.8 -60.93,-349.17 33.52,-684.24 159.78,-965.36 89.32,-198.84 327.55,-545.24 498.4,-674.24 110.86,-83.67 195.63,-158.33 346.18,-233.56 161.57,-80.71 262.21,-94.06 452.25,-127.84 -165.4,-96.58 -423.63,-126.05 -517.94,22.92 146.68,-248.33 332.33,-145.44 594.28,-53 321.94,113.56 420.76,49.88 677.2,-59.39 -45.22,34.51 -112.62,68.62 -159.09,106.01 34.74,247.13 75.83,358.58 75.46,636.57 107,-46.67 215.19,-326.48 248.04,-422.44 129.6,-378.74 4.55,-388.76 129.06,-517.71 149.44,-154.84 224.98,-530.88 152.7,-758.59 -52.88,-166.7 -90.1,-85.11 -171.04,-123.66 -127.5,-127.1 1.45,-255.91 -343.88,-153.94 -91.04,26.86 -151.74,12.58 -175.84,-69.92 -25.86,-88.64 24.44,-147.03 53.57,-214.09 -197.62,10.74 -352.49,46.28 -507.21,153.05 -43.49,29.93 -81.67,65.73 -121.68,90.82 39.47,28.93 48.24,36.34 93.63,54.08 -314.25,-0.57 -463.69,-100.01 -768.81,81.22 4.29,77.67 10.25,103.65 -6.64,174.22 -27.4,-40.23 -3.5,-304.43 -268.88,-339.71 13.92,25.57 23,30.66 37.54,51.7 -317.99,-49.68 -638.85,75.94 -953.04,119.94l73.3 -42.33c-22.44,-155.21 -4.1,-169.43 42.63,-295.37 -262.91,37.85 -369.29,178.71 -446.14,348.31 -64.98,143.26 -273,1.25 -307.43,322.48 140.73,-60.93 173.95,-39.6 334.85,-55.58l-104.5 -47.19c363.35,-52.54 861.14,115.81 1190.83,258.89 172.75,74.95 209.74,60.59 337.89,-27.17 -10.59,51.31 -35.34,81.05 -75.15,102.69 -131.21,71.25 -123.97,199.32 -317.56,244.52 93.35,-321.03 -335.64,-395.36 -344.36,-47.39 -57.01,-23.61 -145.56,-105.49 -176.95,-154.87 -87.53,-137.45 -22.66,-136.04 -26.6,-244.88 -72.3,-68.96 -263.57,-91.24 -376.39,-92.55 42.64,26.26 113.99,53.51 159.84,73.18 -129.83,3.81 -516.04,-69.16 -595.65,26.77 -27.73,24.56 -33.15,86.4 -45.99,130.42 -154.92,531.43 -570.51,474.99 -605.92,269.33 189.11,269.47 536.82,-192.54 588.57,-435.64 76.94,-361.6 -82.07,-559.84 9.91,-1050.07 -699.95,0 -957.18,877.61 -1195.14,1113.47 -123.95,-35.54 -417.02,-68.59 -521.58,12.98 84.52,2.81 178.46,8.4 248.21,46.47 -96.52,63.03 -422.38,-1.16 -601.31,510.79 101.71,-99.27 198.21,-222.12 405,-242.96 -263.4,342.78 -672.47,662.39 -784.52,1127.26l228.4 -109.04c-116.8,175.36 -269.76,587.53 -311.18,838.18 42.02,-32.09 37.45,-41.8 79.81,-59.96 -82.13,334.99 -136.52,675.63 -171.79,1019.92 -35.26,-344.28 -89.65,-684.92 -171.79,-1019.92 42.36,18.16 37.79,27.87 79.81,59.96 -41.42,-250.65 -194.38,-662.82 -311.18,-838.18l228.4 109.04c-112.05,-464.88 -521.12,-784.49 -784.52,-1127.26 206.79,20.84 303.29,143.69 405,242.96 -178.93,-511.95 -504.79,-447.75 -601.31,-510.79 69.75,-38.07 163.69,-43.66 248.21,-46.47 -104.56,-81.56 -397.63,-48.52 -521.58,-12.98 -237.96,-235.86 -495.19,-1113.47 -1195.14,-1113.47 91.98,490.24 -67.03,688.48 9.91,1050.07 51.76,243.1 399.47,705.11 588.57,435.64 -35.4,205.65 -451,262.09 -605.92,-269.33 -12.84,-44.02 -18.26,-105.86 -45.99,-130.42 -79.61,-95.93 -465.82,-22.97 -595.65,-26.77 45.85,-19.67 117.2,-46.92 159.84,-73.18 -112.82,1.31 -304.09,23.59 -376.39,92.55 -3.95,108.84 60.93,107.43 -26.6,244.88 -31.4,49.38 -119.94,131.25 -176.95,154.87 -8.72,-347.97 -437.72,-273.64 -344.36,47.39 -193.59,-45.2 -186.35,-173.27 -317.56,-244.52 -39.81,-21.64 -64.56,-51.39 -75.15,-102.69 128.15,87.76 165.14,102.12 337.89,27.17 329.69,-143.08 827.47,-311.43 1190.83,-258.89l-104.5 47.19c160.91,15.98 194.12,-5.34 334.85,55.58 -34.43,-321.23 -242.45,-179.22 -307.43,-322.48 -76.85,-169.6 -183.23,-310.46 -446.14,-348.31 46.73,125.94 65.07,140.16 42.63,295.37l73.3 42.33c-314.19,-44 -635.05,-169.62 -953.04,-119.94 14.54,-21.04 23.62,-26.12 37.54,-51.7 -265.39,35.28 -241.48,299.48 -268.88,339.71 -16.89,-70.58 -10.93,-96.56 -6.64,-174.22 -305.13,-181.24 -454.57,-81.79 -768.81,-81.22 45.39,-17.74 54.16,-25.15 93.63,-54.08 -40.01,-25.09 -78.19,-60.9 -121.68,-90.82 -154.73,-106.77 -309.59,-142.31 -507.21,-153.05 29.13,67.06 79.44,125.46 53.57,214.09 -24.1,82.49 -84.8,96.78 -175.84,69.92 -345.33,-101.97 -216.38,26.83 -343.88,153.94 -80.93,38.55 -118.15,-43.04 -171.04,123.66 -72.28,227.72 3.26,603.76 152.7,758.59 124.52,128.95 -0.54,138.97 129.06,517.71 32.85,95.96 141.04,375.77 248.04,422.44 -0.37,-277.99 40.72,-389.45 75.46,-636.57 -46.47,-37.39 -113.87,-71.49 -159.09,-106.01 256.44,109.26 355.26,172.95 677.2,59.39 261.95,-92.43 447.59,-195.32 594.28,53 -94.31,-148.96 -352.54,-119.49 -517.94,-22.92 190.04,33.78 290.68,47.13 452.25,127.84 150.55,75.23 235.32,149.89 346.18,233.56 170.85,129 409.09,475.41 498.4,674.24 126.26,281.12 220.71,616.2 159.78,965.36 -91.16,522.11 -481.6,356.09 -620.65,151.8 456.64,353.39 576.65,-70.44 415.03,-263.74 -33.19,25.75 -62.09,59.9 -107.86,80.68 -32.14,-13.35 -25.49,-12.9 -48.61,-30.41l-46.78 -35.34c17.03,-28.45 10.48,-21.84 33.47,-47.64l48.66 71.54c42.78,-25.72 70.38,-80.03 107.63,-118.89 74.4,72.27 83.83,181.83 136.54,242.87 100.47,-328.98 17.95,-985.8 -380.7,-1198.44 -134.35,-71.65 -297.38,-108.59 -475.49,-98.75l22 10.05c2.9,1 7.72,3.16 11.27,4.3 73.73,23.84 233.08,36.45 293.44,154.01 -487.79,-365.14 -1336.52,167.41 -1791.47,129.91 -238.96,-19.7 -399.76,-178.03 -516.97,-210.85zm12230.95 -770.21l183.98 -15.41c-16.66,65.32 -43.03,119.8 -76.37,157.5 -61.18,-21.04 -84.91,-88.49 -107.62,-142.09zm972.62 -1097.7c-61.63,-86.99 -57.43,-190.64 -196.34,-203.92 -70.52,-175.64 -134.28,-241.59 -354.61,-166.73 -230.71,78.39 -169.31,-160.4 38.27,-218.4 137.72,-38.5 374.26,-31.38 455.6,97.38 54.02,85.45 90.3,385.75 57.09,491.68zm-4348.84 2745.8l-467.49 -10.93c130.08,166.16 377.3,352.77 405.4,580.7l-108.56 -80.51c0.26,338.15 90.76,640.02 241.31,876.22 -23.14,-159.66 -123.44,-410.2 -143.14,-682.65 51.95,26.51 107.83,102.06 169.49,130.99 -75.01,-392.2 -170.4,-438.08 -338.07,-731.63 120.03,1.57 397.66,19.93 490.09,-7.52 16.58,-103.73 -100.52,-85.88 -323.24,-267.26 -268.26,-218.52 -731.29,-647.02 -760.73,-1030.99 -69.84,106.58 -57.32,319.13 -16.15,446 145.22,447.5 534.43,530.92 851.1,777.59zm407.16 -1471.29l-260.93 89.65c199.41,199.92 856.66,167.47 843.6,-11.76 -86.17,-29.01 -291.68,123.7 -618.75,38.61 56.84,-40.51 121.79,-26.23 165.53,-79.09 -7.83,-77.57 -150.97,-159.84 -210.31,-193.42l168.07 -16.18 -356.49 -54.39c57.94,115.21 150.98,153.76 269.27,226.58zm1776.22 -263.71c-46.25,20.41 -262.35,221.46 -321.32,267.94 -35.06,27.63 -77.84,56.53 -117.48,85.09 -131.16,94.48 -326.73,227.17 -522.03,268.47 43.57,-83.92 126.31,-156.93 170.82,-238.22 -199.01,67.4 -287.55,132.27 -540.14,162.11 17.12,-35.03 11.58,-18.77 29.5,-43.21 30.4,-41.48 8.8,3.7 29.32,-45.1 -108.33,31.94 -219,131.18 -291.84,189.3 141.38,18.62 391.89,-36.85 522.14,-73.59 -24.95,33.98 -84.94,109.87 -90.67,139.65 394.05,12.24 839.62,-327.98 1080.28,-632.58 26.65,-33.69 33.15,-56.86 51.42,-79.86zm-495.99 -542.55c-100.9,162.51 -37.62,140.98 -21.47,150.24 20.47,-36.25 19.19,-101.21 21.47,-150.24zm1305.8 -530.8c-242.5,1.5 -734.92,49.14 -585.85,406.2 203.06,-384.85 400.23,-337.16 829.03,-300.73 -212.15,-322.94 396.15,-37.28 582.84,-16.38 -138.06,-66.83 -1045.82,-426.58 -826.02,-89.09z"/>
 </g>
</svg>
